SplineFontDB: 3.2
FontName: SeriousShannsItalic
FullName: Serious Shanns Italic
FamilyName: Serious Shanns Italic
Weight: Book
Copyright: https://github.com/kaBeech/serious-shanns/blob/main/LICENSE
Version: 4.0.0
ItalicAngle: -12.7
UnderlinePosition: 0
UnderlineWidth: 0
Ascent: 1638
Descent: 410
InvalidEm: 0
sfntRevision: 0x00003333
LayerCount: 2
Layer: 0 0 "Back" 1
Layer: 1 0 "Fore" 0
XUID: [1021 45 630387186 1984481]
StyleMap: 0x0040
FSType: 4
OS2Version: 3
OS2_WeightWidthSlopeOnly: 0
OS2_UseTypoMetrics: 0
CreationTime: 1532631502
ModificationTime: 315532800
PfmFamily: 81
TTFWeight: 400
TTFWidth: 5
LineGap: 0
VLineGap: 0
Panose: 0 0 0 0 0 0 0 0 0 0
OS2TypoAscent: 1255
OS2TypoAOffset: 0
OS2TypoDescent: -385
OS2TypoDOffset: 0
OS2TypoLinegap: 201
OS2WinAscent: 1593
OS2WinAOffset: 0
OS2WinDescent: 631
OS2WinDOffset: 0
HheadAscent: 1630
HheadAOffset: 0
HheadDescent: -649
HheadDOffset: 0
OS2SubXSize: 649
OS2SubYSize: 600
OS2SubXOff: 0
OS2SubYOff: 76
OS2SupXSize: 649
OS2SupYSize: 600
OS2SupXOff: 0
OS2SupYOff: 350
OS2StrikeYSize: 0
OS2StrikeYPos: 270
OS2CapHeight: 1180
OS2XHeight: 993
OS2Vendor: 'NONE'
OS2CodePages: 00000001.00000000
OS2UnicodeRanges: 00000001.00000000.00000000.00000000
MarkAttachClasses: 1
DEI: 91125
LangName: 1033 "" "" "Normal" "" "" "Version 0.2.0"
Encoding: UnicodeBmp
UnicodeInterp: none
NameList: AGL For New Fonts
DisplaySize: -48
AntiAlias: 1
FitToEm: 0
WinInfo: 64 16 14
BeginPrivate: 8
BlueValues 39 [-82 -12 1018 1047 1450 1470 1567 1575]
OtherBlues 11 [-610 -588]
BlueScale 9 0.0291667
BlueShift 1 4
StdHW 5 [176]
StdVW 5 [119]
StemSnapH 25 [168 174 176 182 184 193]
StemSnapV 9 [119 139]
EndPrivate
BeginChars: 65537 123

StartChar: .notdef
Encoding: 65536 -1 0
Width: 1036
GlyphClass: 1
Flags: HW
LayerCount: 2
Fore
SplineSet
-129 -549 m 1
 350 1534 l 1
 1167 1534 l 1
 686 -549 l 1
 -129 -549 l 1
-2 -438 m 1
 608 -438 l 1
 1038 1423 l 1
 428 1423 l 1
 -2 -438 l 1
EndSplineSet
Validated: 1
EndChar

StartChar: exclam
Encoding: 33 33 12
Width: 1036
GlyphClass: 2
Flags: HMW
HStem: -49 313
VStem: 225 309
LayerCount: 2
Fore
SplineSet
813 1511 m 0
 810 1499 787 1409 743 1242 c 0
 699 1075 667 939 645 834 c 0
 623 732 609 670 602 650 c 0
 595 630 588 599 578 555 c 0
 568 525 551 501 528 484 c 0
 507 468 484 461 460 461 c 0
 458 461 457 461 455 461 c 0
 429 461 409 469 397 487 c 0
 390 496 388 509 388 523 c 0
 388 535 390 549 395 565 c 0
 402 585 409 606 417 625 c 0
 425 644 430 660 434 673 c 0
 438 686 446 717 458 765 c 0
 470 813 483 876 498 952 c 0
 508 1005 518 1062 532 1121 c 0
 546 1180 558 1230 568 1270 c 0
 578 1310 590 1354 603 1405 c 0
 616 1456 625 1489 629 1505 c 0
 639 1542 654 1570 676 1589 c 0
 698 1608 722 1618 748 1618 c 0
 750 1618 751 1618 753 1618 c 0
 777 1618 796 1609 807 1593 c 0
 814 1582 818 1569 818 1551 c 0
 818 1539 816 1526 813 1511 c 0
346 -49 m 0
 339 -50 332 -50 326 -50 c 0
 288 -50 261 -36 242 -8 c 0
 227 14 220 38 220 66 c 0
 220 80 221 96 225 111 c 0
 235 152 259 187 299 217 c 0
 339 247 379 263 420 264 c 0
 422 264 424 264 426 264 c 0
 468 264 498 250 518 222 c 0
 532 202 539 179 539 152 c 0
 539 140 538 127 535 113 c 0
 525 69 503 32 469 3 c 0
 435 -26 394 -44 346 -49 c 0
EndSplineSet
Validated: 1
EndChar

StartChar: quotedbl
Encoding: 34 34 13
Width: 1036
GlyphClass: 2
Flags: HMW
VStem: 207 627
LayerCount: 2
Fore
SplineSet
528 1511 m 0
 516 1455 494 1364 462 1236 c 0
 430 1108 405 1021 389 973 c 0
 379 946 364 925 342 911 c 0
 322 899 303 893 284 893 c 0
 282 893 281 893 279 893 c 0
 253 894 232 903 216 919 c 0
 206 929 201 940 201 955 c 0
 201 964 203 974 207 985 c 0
 227 1055 249 1144 273 1253 c 0
 297 1362 316 1453 330 1524 c 0
 333 1540 338 1554 348 1566 c 0
 358 1578 369 1586 381 1591 c 0
 393 1596 406 1601 418 1603 c 0
 430 1605 443 1605 455 1604 c 0
 466 1604 475 1602 485 1599 c 0
 495 1596 503 1592 511 1586 c 0
 519 1580 524 1571 527 1558 c 0
 530 1545 531 1529 528 1511 c 0
834 1511 m 0
 823 1455 801 1364 769 1236 c 0
 737 1108 712 1021 694 973 c 0
 684 946 669 925 647 911 c 0
 627 899 608 893 589 893 c 0
 587 893 586 893 584 893 c 0
 559 894 538 903 522 919 c 0
 512 928 507 940 507 954 c 0
 507 963 510 974 514 985 c 0
 534 1055 557 1144 580 1253 c 0
 603 1362 621 1453 635 1524 c 0
 638 1540 643 1554 653 1566 c 0
 663 1578 674 1586 687 1591 c 0
 700 1596 712 1601 724 1603 c 0
 736 1605 748 1605 760 1604 c 0
 772 1604 783 1602 792 1599 c 0
 801 1596 809 1592 817 1586 c 0
 825 1580 832 1570 835 1557 c 0
 838 1544 838 1529 834 1511 c 0
EndSplineSet
Validated: 1
EndChar

StartChar: numbersign
Encoding: 35 35 14
Width: 1036
GlyphClass: 2
Flags: HMW
HStem: 393 168<766 805 698 844> 911 172<494 780 563 713 563 971 563 901>
LayerCount: 2
Fore
SplineSet
147 86 m 0
 131 57 107 33 76 15 c 0
 54 2 34 -4 17 -4 c 0
 9 -4 3 -3 -4 0 c 0
 -26 5 -39 23 -44 52 c 0
 -45 58 -46 64 -46 71 c 0
 -46 95 -39 122 -25 150 c 0
 -6 187 31 265 84 387 c 1
 27 387 l 2
 -4 387 -27 394 -41 408 c 0
 -55 422 -58 440 -53 463 c 0
 -49 488 -37 508 -18 524 c 0
 1 540 26 550 59 553 c 0
 69 553 84 553 105 554 c 0
 126 555 143 555 154 555 c 1
 301 909 l 1
 290 909 276 909 258 908 c 0
 240 907 228 907 221 907 c 0
 218 907 216 907 214 907 c 0
 186 907 167 915 155 929 c 0
 142 945 138 964 143 987 c 0
 147 1012 159 1033 179 1050 c 0
 199 1067 226 1076 260 1077 c 0
 285 1078 322 1079 371 1079 c 1
 456 1285 499 1392 500 1399 c 0
 518 1433 538 1456 563 1470 c 0
 579 1479 596 1484 611 1484 c 0
 619 1484 626 1483 633 1481 c 0
 659 1476 676 1462 686 1440 c 0
 690 1432 692 1422 692 1411 c 0
 692 1394 687 1376 678 1354 c 2
 563 1083 l 1
 780 1083 l 1
 899 1382 l 2
 917 1417 938 1442 963 1456 c 0
 979 1465 995 1470 1011 1470 c 0
 1019 1470 1026 1468 1034 1466 c 0
 1061 1461 1080 1447 1090 1425 c 0
 1093 1417 1095 1409 1095 1400 c 0
 1095 1383 1089 1362 1077 1339 c 0
 1050 1282 1015 1198 973 1087 c 1
 993 1087 l 2
 1023 1087 1047 1078 1064 1060 c 0
 1078 1045 1085 1029 1085 1013 c 0
 1085 1009 1084 1005 1083 1001 c 0
 1078 976 1066 956 1047 939 c 0
 1028 922 1002 912 971 911 c 2
 901 911 l 1
 766 561 l 1
 844 561 l 2
 874 561 892 554 900 540 c 0
 908 526 909 506 905 483 c 0
 891 423 858 393 805 393 c 2
 698 393 l 1
 637 237 594 133 569 78 c 0
 551 49 529 27 500 11 c 0
 481 1 463 -4 447 -4 c 0
 438 -4 430 -3 422 0 c 0
 400 5 386 21 380 48 c 0
 378 55 378 62 378 69 c 0
 378 90 384 114 397 139 c 0
 423 194 459 278 504 391 c 1
 478 391 439 391 388 390 c 0
 337 389 299 389 276 389 c 1
 215 242 172 141 147 86 c 0
494 911 m 1
 348 561 l 1
 400 562 474 563 571 563 c 1
 617 675 665 791 713 911 c 1
 494 911 l 1
EndSplineSet
Validated: 1
EndChar

StartChar: dollar
Encoding: 36 36 15
Width: 1036
GlyphClass: 2
Flags: HMW
HStem: -59 174<252 328 274 328> 1317 162
VStem: 244 170 775 193
LayerCount: 2
Fore
SplineSet
414 -203 m 0
 404 -233 388 -256 365 -272 c 0
 342 -288 317 -297 291 -297 c 0
 268 -297 252 -287 244 -269 c 0
 241 -262 239 -253 239 -243 c 0
 239 -228 243 -210 250 -190 c 0
 260 -157 271 -114 283 -59 c 1
 274 -59 l 2
 229 -59 189 -53 152 -41 c 0
 115 -29 84 -12 59 8 c 0
 34 28 15 51 0 74 c 0
 -15 97 -27 123 -35 150 c 0
 -38 164 -39 177 -39 189 c 0
 -39 208 -36 226 -29 240 c 0
 -18 263 0 280 23 291 c 0
 39 298 52 302 62 305 c 0
 72 308 83 308 93 307 c 0
 103 306 113 301 121 291 c 0
 129 281 137 268 145 250 c 0
 161 208 183 175 210 151 c 0
 237 127 275 115 324 115 c 2
 328 115 l 1
 384 343 431 546 471 725 c 1
 464 725 453 726 439 729 c 0
 425 732 414 733 406 733 c 0
 362 738 324 752 291 772 c 0
 258 792 233 818 217 847 c 0
 201 876 189 907 184 939 c 0
 182 952 181 965 181 978 c 0
 181 997 183 1016 188 1036 c 0
 199 1085 217 1133 242 1178 c 0
 267 1223 297 1265 335 1304 c 0
 373 1343 418 1376 471 1404 c 0
 524 1432 582 1451 643 1462 c 1
 653 1495 664 1535 676 1581 c 0
 695 1656 729 1694 778 1694 c 0
 779 1694 780 1694 781 1694 c 0
 824 1694 845 1673 845 1630 c 0
 845 1618 844 1603 840 1587 c 2
 813 1479 l 1
 842 1478 880 1470 927 1458 c 0
 974 1446 1008 1434 1030 1423 c 0
 1052 1413 1066 1398 1072 1378 c 0
 1074 1370 1076 1362 1076 1354 c 0
 1076 1341 1073 1327 1067 1313 c 0
 1062 1297 1053 1284 1043 1275 c 0
 1033 1266 1022 1260 1010 1258 c 0
 998 1256 986 1256 975 1257 c 0
 964 1258 954 1261 944 1264 c 0
 933 1267 920 1272 904 1281 c 0
 888 1290 870 1298 850 1305 c 0
 830 1312 804 1316 774 1317 c 1
 747 1208 712 1063 668 883 c 1
 724 875 772 860 813 839 c 0
 854 818 885 793 906 766 c 0
 927 739 943 707 953 672 c 0
 963 639 968 606 968 574 c 0
 968 547 964 508 952 461 c 0
 937 398 914 339 882 283 c 0
 850 227 811 178 766 137 c 0
 721 96 671 61 617 31 c 0
 563 1 508 -22 449 -37 c 1
 430 -119 418 -174 414 -203 c 0
377 1088 m 0
 374 1076 373 1063 373 1051 c 0
 373 1022 381 996 398 973 c 0
 422 940 460 917 512 903 c 1
 535 997 566 1128 606 1296 c 1
 547 1278 498 1252 456 1217 c 0
 414 1182 388 1139 377 1088 c 0
768 426 m 0
 773 449 775 470 775 490 c 0
 775 516 771 540 762 566 c 0
 754 590 738 613 714 633 c 0
 690 653 659 671 621 686 c 1
 606 626 584 536 555 415 c 0
 526 294 506 207 492 152 c 1
 560 179 620 216 671 264 c 0
 722 312 754 366 768 426 c 0
EndSplineSet
Validated: 1
EndChar

StartChar: percent
Encoding: 37 37 16
Width: 1036
GlyphClass: 2
Flags: HMW
HStem: -57 156 350 152<733 759> 885 154<299 393> 1294 150<441 449>
LayerCount: 2
Fore
SplineSet
322 885 m 0
 277 885 240 898 211 925 c 0
 182 952 165 985 157 1025 c 0
 154 1041 152 1059 152 1076 c 0
 152 1101 156 1127 162 1155 c 0
 181 1240 218 1309 275 1363 c 0
 332 1417 400 1444 481 1444 c 0
 512 1444 540 1438 565 1426 c 0
 590 1414 611 1397 627 1374 c 0
 643 1351 652 1319 654 1279 c 0
 654 1274 655 1269 655 1264 c 0
 655 1227 648 1186 635 1139 c 0
 612 1056 575 992 524 949 c 0
 473 906 407 885 322 885 c 0
-47 39 m 0
 -7 98 84 221 227 409 c 0
 370 597 514 786 658 977 c 0
 802 1168 901 1304 954 1386 c 0
 974 1411 998 1427 1024 1433 c 0
 1032 1435 1040 1435 1047 1435 c 0
 1063 1435 1079 1430 1092 1421 c 0
 1112 1410 1121 1394 1119 1373 c 0
 1117 1352 1104 1326 1081 1296 c 0
 1014 1213 853 1000 597 659 c 0
 341 318 170 87 84 -33 c 0
 49 -81 16 -105 -15 -105 c 0
 -26 -105 -37 -102 -47 -96 c 0
 -70 -83 -81 -66 -81 -43 c 0
 -81 -20 -70 7 -47 39 c 0
377 1038 m 0
 408 1038 435 1049 457 1071 c 0
 479 1093 495 1122 506 1159 c 0
 512 1181 515 1201 515 1217 c 0
 515 1235 511 1251 504 1262 c 0
 490 1284 466 1294 432 1294 c 0
 402 1294 376 1282 353 1258 c 0
 330 1234 313 1202 301 1161 c 0
 296 1142 294 1126 294 1111 c 0
 294 1096 296 1083 301 1073 c 0
 311 1053 336 1041 377 1038 c 0
614 -57 m 0
 569 -57 533 -44 504 -17 c 0
 475 10 458 43 450 83 c 0
 447 99 445 117 445 134 c 0
 445 159 449 185 455 213 c 0
 474 298 511 367 568 421 c 0
 625 475 693 502 772 502 c 0
 803 502 832 496 857 485 c 0
 882 474 904 457 920 433 c 0
 936 409 945 377 947 337 c 0
 947 333 948 328 948 323 c 0
 948 286 941 244 926 197 c 0
 903 114 866 50 816 6 c 0
 768 -36 703 -57 622 -57 c 0
 619 -57 617 -57 614 -57 c 0
670 98 m 0
 672 98 673 98 675 98 c 0
 703 98 727 109 748 130 c 0
 770 153 786 182 797 217 c 0
 803 239 805 258 805 274 c 0
 805 325 778 350 723 350 c 0
 693 350 667 338 645 314 c 0
 623 290 606 259 594 219 c 0
 589 201 587 185 587 171 c 0
 587 156 590 143 595 132 c 0
 605 111 630 99 670 98 c 0
EndSplineSet
Validated: 1
EndChar

StartChar: ampersand
Encoding: 38 38 17
Width: 1036
GlyphClass: 2
Flags: HMW
HStem: -86 193<253 343> 1321 162<713 714>
VStem: 698 184 877 171<608 608>
LayerCount: 2
Fore
SplineSet
831 -72 m 0xe0
 818 -79 805 -83 792 -83 c 0
 779 -83 766 -79 753 -71 c 0
 728 -55 709 -28 698 10 c 0xe0
 697 17 694 38 689 72 c 0
 684 106 680 130 676 145 c 1
 672 140 661 129 645 111 c 0
 629 93 616 80 608 72 c 0
 600 64 586 51 568 35 c 0
 550 19 534 6 522 -3 c 0
 510 -12 494 -23 474 -35 c 0
 454 -47 436 -56 418 -62 c 0
 400 -68 380 -74 357 -79 c 0
 334 -84 312 -86 289 -86 c 0
 218 -86 157 -67 106 -27 c 0
 55 13 22 65 4 129 c 0
 -5 162 -10 198 -10 234 c 0
 -10 268 -6 302 2 338 c 0
 61 596 201 771 422 864 c 1
 415 884 406 909 396 938 c 0
 386 967 379 986 375 998 c 0
 371 1010 366 1025 361 1043 c 0
 356 1061 354 1078 354 1092 c 0
 354 1106 355 1122 357 1142 c 0
 359 1162 364 1183 369 1206 c 0
 374 1231 382 1255 394 1279 c 0
 406 1303 422 1328 442 1353 c 0
 462 1378 486 1400 513 1419 c 0
 540 1438 572 1453 611 1465 c 0
 650 1477 691 1483 735 1483 c 0
 772 1483 807 1476 840 1464 c 0
 873 1452 901 1434 925 1410 c 0
 949 1386 965 1355 973 1316 c 0
 977 1299 978 1281 978 1263 c 0
 978 1239 975 1213 969 1186 c 0
 959 1142 945 1102 925 1064 c 0
 905 1026 884 995 863 970 c 0
 842 945 816 920 786 897 c 0
 756 874 730 856 707 842 c 0
 684 828 657 815 627 801 c 1
 641 759 665 695 700 612 c 0
 735 529 758 473 768 446 c 1
 780 465 795 488 811 513 c 0
 827 538 841 558 852 574 c 0
 863 590 872 601 877 608 c 0
 907 643 932 666 955 675 c 0
 964 678 973 680 982 680 c 0
 995 680 1009 676 1022 668 c 0
 1039 658 1048 640 1048 615 c 0
 1048 591 1040 557 1008 508 c 0
 998 496 973 468 932 426 c 0
 891 384 855 344 825 309 c 1
 833 283 845 246 860 198 c 0
 875 150 884 121 885 113 c 0
 890 98 892 81 892 64 c 0
 892 45 890 25 883 4 c 0
 871 -36 853 -61 831 -72 c 0xe0
541 1171 m 0
 537 1154 535 1137 535 1118 c 0
 535 1099 537 1079 541 1059 c 0
 549 1018 562 981 580 950 c 1
 610 960 635 970 657 980 c 0
 679 990 701 1004 722 1020 c 0
 743 1036 760 1056 774 1080 c 0
 788 1104 798 1132 805 1165 c 0
 809 1182 811 1198 811 1213 c 0
 811 1241 803 1264 788 1281 c 0
 765 1308 734 1321 694 1321 c 0
 615 1321 564 1271 541 1171 c 0
197 356 m 0
 191 328 187 302 187 278 c 0
 187 240 195 207 210 178 c 0
 235 130 277 106 334 106 c 0
 352 106 369 109 387 113 c 0
 405 117 420 121 434 125 c 0
 448 129 462 135 477 145 c 0
 492 155 504 163 513 169 c 0
 522 175 533 185 547 198 c 0
 561 211 570 220 575 225 c 0
 580 230 590 241 602 255 c 0
 614 269 622 278 625 281 c 0
 615 334 606 376 596 406 c 0
 588 437 569 488 540 559 c 0
 511 630 489 683 477 717 c 1
 435 699 398 677 365 650 c 0
 332 623 305 594 283 562 c 0
 261 530 243 498 230 465 c 0
 217 432 207 396 197 356 c 0
EndSplineSet
Validated: 1
EndChar

StartChar: quotesingle
Encoding: 39 39 18
Width: 1036
GlyphClass: 2
Flags: HMW
HStem: 913 667
VStem: 365 311
LayerCount: 2
Fore
SplineSet
676 1491 m 0
 665 1436 645 1352 616 1238 c 0
 587 1124 565 1043 547 995 c 0
 537 966 522 946 500 932 c 0
 480 920 461 913 442 913 c 0
 440 913 438 913 436 913 c 0
 410 914 390 924 374 940 c 0
 364 950 359 963 359 978 c 0
 359 987 361 997 365 1008 c 0
 385 1079 406 1160 426 1253 c 0
 446 1346 463 1429 477 1501 c 0
 480 1517 486 1532 496 1544 c 0
 506 1556 516 1565 529 1570 c 0
 542 1575 554 1578 566 1580 c 0
 578 1582 590 1582 602 1581 c 0
 613 1581 623 1580 633 1577 c 0
 643 1574 651 1570 659 1564 c 0
 667 1558 673 1548 676 1536 c 0
 679 1524 679 1509 676 1491 c 0
EndSplineSet
Validated: 1
EndChar

StartChar: parenleft
Encoding: 40 40 19
Width: 1036
GlyphClass: 2
Flags: HMW
HStem: -268 172<384 479> 1501 166<817 900>
LayerCount: 2
Fore
SplineSet
520 -190 m 0
 515 -212 502 -231 482 -246 c 0
 462 -261 444 -268 426 -268 c 0
 341 -268 272 -236 218 -170 c 0
 164 -104 129 -14 113 102 c 0
 106 154 102 209 102 268 c 0
 102 341 108 420 119 504 c 0
 133 604 164 733 215 893 c 0
 266 1053 321 1184 381 1288 c 0
 408 1333 440 1378 477 1422 c 0
 514 1466 554 1507 598 1544 c 0
 642 1581 688 1610 737 1633 c 0
 786 1656 832 1667 874 1667 c 0
 916 1667 937 1649 937 1612 c 0
 937 1603 936 1594 934 1583 c 0
 927 1554 914 1534 895 1521 c 0
 876 1508 856 1501 834 1501 c 0
 801 1501 767 1490 734 1470 c 0
 701 1450 669 1421 639 1386 c 0
 609 1351 581 1312 556 1270 c 0
 531 1228 507 1182 485 1133 c 0
 452 1062 419 964 384 840 c 0
 349 716 325 615 313 537 c 0
 303 469 298 402 298 337 c 0
 298 323 299 308 299 294 c 0
 302 215 311 148 325 91 c 0
 339 34 359 -11 384 -45 c 0
 409 -79 437 -96 467 -96 c 0
 492 -96 508 -103 518 -117 c 0
 523 -124 526 -134 526 -148 c 0
 526 -160 524 -174 520 -190 c 0
EndSplineSet
Validated: 1
EndChar

StartChar: parenright
Encoding: 41 41 20
Width: 1036
GlyphClass: 2
Flags: HMW
HStem: -268 172<192 206> 1501 166<564 630>
VStem: 754 176
LayerCount: 2
Fore
SplineSet
827 504 m 0
 778 352 719 218 649 102 c 0
 579 -14 503 -104 418 -170 c 0
 333 -236 249 -268 164 -268 c 0
 146 -268 131 -261 117 -246 c 0
 103 -231 99 -212 104 -190 c 0
 112 -155 125 -131 141 -117 c 0
 157 -103 179 -96 205 -96 c 0
 235 -96 270 -79 310 -45 c 0
 350 -11 391 34 432 91 c 0
 473 148 513 216 553 295 c 0
 593 374 624 455 649 537 c 0
 674 615 697 716 719 840 c 0
 741 964 753 1062 754 1133 c 0
 754 1182 750 1228 744 1270 c 0
 738 1312 729 1351 716 1386 c 0
 703 1421 684 1450 660 1470 c 0
 636 1490 608 1501 575 1501 c 0
 552 1501 534 1508 522 1521 c 0
 513 1530 509 1542 509 1559 c 0
 509 1566 510 1574 512 1583 c 0
 516 1601 522 1615 530 1627 c 0
 538 1639 547 1648 557 1653 c 0
 567 1658 576 1662 584 1664 c 0
 592 1666 600 1667 608 1667 c 0
 652 1667 693 1656 731 1633 c 0
 769 1610 801 1581 828 1544 c 0
 855 1507 877 1466 895 1422 c 0
 913 1378 925 1333 930 1288 c 0
 934 1253 936 1215 936 1173 c 0
 936 1092 928 998 912 893 c 0
 888 733 860 604 827 504 c 0
EndSplineSet
Validated: 1
EndChar

StartChar: asterisk
Encoding: 42 42 21
Width: 1036
GlyphClass: 2
Flags: HMW
HStem: 600 213 627 158<637 727>
VStem: 328 176 532 176
LayerCount: 2
Fore
SplineSet
319 285 m 0x70
 311 269 300 256 286 248 c 0
 272 240 257 234 242 233 c 0
 227 232 213 234 201 237 c 0
 189 240 178 245 170 250 c 0
 160 257 152 267 147 280 c 0
 142 293 140 309 142 328 c 0
 144 347 153 367 168 387 c 2
 346 610 l 1
 240 603 162 600 113 600 c 0
 83 600 61 611 49 633 c 0
 40 648 36 664 36 680 c 0
 36 687 37 694 39 702 c 0
 40 714 44 727 50 740 c 0
 56 753 64 765 74 777 c 0
 84 789 96 798 111 805 c 0
 126 812 141 814 156 813 c 0xb0
 213 808 298 801 410 793 c 1
 379 893 351 969 328 1022 c 0
 323 1038 319 1054 319 1069 c 0
 319 1084 323 1099 328 1114 c 0
 339 1144 355 1164 377 1174 c 0
 391 1182 406 1186 423 1187 c 0
 440 1188 456 1182 472 1171 c 0
 488 1160 499 1144 504 1122 c 0
 511 1089 530 1011 561 887 c 1
 633 980 689 1057 729 1120 c 0
 743 1142 759 1158 779 1169 c 0
 799 1180 817 1186 833 1185 c 0
 849 1184 860 1179 870 1169 c 0
 881 1162 889 1152 894 1137 c 0
 899 1122 899 1103 894 1083 c 0
 889 1063 878 1043 862 1024 c 0
 806 960 743 880 672 784 c 1
 783 784 862 792 913 807 c 0
 923 810 932 811 940 811 c 0
 957 811 971 805 982 791 c 0
 994 775 1001 757 1001 739 c 0
 1001 734 1000 730 999 725 c 0
 996 713 992 700 987 688 c 0
 982 676 975 663 966 651 c 0
 957 639 946 630 932 623 c 0
 918 616 905 614 891 618 c 0
 860 624 805 628 725 628 c 0
 698 628 669 628 637 627 c 1
 711 389 l 2
 714 375 715 362 715 349 c 0
 715 334 713 319 709 306 c 0
 701 282 687 265 668 254 c 0
 654 246 636 241 616 240 c 0
 596 239 577 242 560 252 c 0
 543 262 533 277 532 299 c 0
 529 354 514 433 487 535 c 1
 398 409 342 326 319 285 c 0x70
EndSplineSet
Validated: 1
EndChar

StartChar: plus
Encoding: 43 43 22
Width: 1036
GlyphClass: 2
Flags: HMW
HStem: 731 172<405 459>
LayerCount: 2
Fore
SplineSet
522 512 m 0
 515 481 503 458 487 445 c 0
 471 432 452 426 430 426 c 0
 386 426 364 443 364 479 c 0
 364 489 366 500 369 512 c 2
 418 731 l 1
 392 731 357 731 314 730 c 0
 271 729 242 729 227 729 c 0
 196 729 175 738 163 755 c 0
 155 767 151 780 151 795 c 0
 151 802 152 809 154 817 c 0
 158 843 169 865 188 883 c 0
 206 899 229 907 259 907 c 0
 261 907 264 907 266 907 c 0
 355 904 419 903 459 903 c 1
 475 971 490 1045 504 1124 c 0
 515 1183 549 1212 606 1212 c 0
 632 1213 652 1208 666 1196 c 0
 674 1189 678 1178 678 1163 c 0
 678 1153 676 1140 672 1126 c 0
 649 1047 628 971 612 899 c 1
 821 899 l 2
 851 899 871 893 879 879 c 0
 887 865 890 846 887 823 c 0
 884 811 881 800 876 790 c 0
 871 780 864 770 856 760 c 0
 848 750 837 743 825 738 c 0
 813 733 799 732 784 733 c 0
 764 735 732 737 685 737 c 0
 654 737 616 736 573 735 c 1
 565 698 556 655 544 604 c 0
 532 553 525 523 522 512 c 0
EndSplineSet
Validated: 1
EndChar

StartChar: comma
Encoding: 44 44 23
Width: 1036
GlyphClass: 2
Flags: HMW
VStem: 255 522
LayerCount: 2
Fore
SplineSet
774 197 m 0
 745 130 695 26 621 -113 c 0
 547 -252 495 -338 465 -371 c 0
 438 -400 407 -420 373 -432 c 0
 353 -439 335 -443 320 -443 c 0
 310 -443 302 -441 295 -438 c 0
 283 -434 272 -426 264 -414 c 0
 256 -402 253 -387 255 -369 c 0
 257 -351 267 -332 283 -313 c 0
 318 -272 375 -182 454 -43 c 0
 533 96 583 193 606 248 c 0
 614 267 627 282 644 293 c 0
 661 304 677 309 693 309 c 0
 709 309 723 308 737 305 c 0
 755 298 768 285 777 266 c 0
 781 257 783 248 783 238 c 0
 783 225 780 212 774 197 c 0
EndSplineSet
Validated: 1
EndChar

StartChar: hyphen
Encoding: 45 45 24
Width: 1036
GlyphClass: 2
Flags: HMW
HStem: 498 178<296 307> 514 168<707 769>
VStem: 223 594
LayerCount: 2
Fore
SplineSet
324 676 m 0xa0
 396 676 483 677 583 679 c 0
 683 681 740 682 754 682 c 0
 784 682 803 674 811 660 c 0
 819 646 821 627 817 604 c 0
 803 544 770 514 715 514 c 0x60
 699 514 634 511 521 506 c 0
 408 501 330 498 285 498 c 0
 241 498 219 516 219 554 c 0
 219 563 220 574 223 586 c 0
 234 646 268 676 324 676 c 0xa0
EndSplineSet
Validated: 1
EndChar

StartChar: period
Encoding: 46 46 25
Width: 1036
GlyphClass: 2
Flags: HMW
HStem: -29 315
VStem: 365 309
LayerCount: 2
Fore
SplineSet
485 -29 m 0
 478 -30 472 -30 466 -30 c 0
 428 -30 400 -16 381 13 c 0
 366 35 359 61 359 88 c 0
 359 102 361 116 365 131 c 0
 375 173 398 210 438 240 c 0
 478 270 518 286 559 287 c 0
 561 287 563 287 565 287 c 0
 607 287 638 273 658 245 c 0
 672 226 679 202 679 176 c 0
 679 162 678 148 674 133 c 0
 664 89 642 53 608 24 c 0
 574 -5 533 -24 485 -29 c 0
EndSplineSet
Validated: 1
EndChar

StartChar: slash
Encoding: 47 47 26
Width: 1036
GlyphClass: 2
Flags: HMW
VStem: -129 195
LayerCount: 2
Fore
SplineSet
1135 1384 m 0
 1086 1314 953 1143 738 871 c 0
 523 599 392 431 344 365 c 0
 314 323 265 251 196 150 c 0
 127 49 84 -13 66 -35 c 0
 37 -73 5 -100 -30 -115 c 0
 -47 -123 -63 -126 -77 -126 c 0
 -91 -126 -103 -123 -113 -115 c 0
 -125 -107 -131 -90 -131 -66 c 0
 -131 -58 -130 -49 -129 -39 c 0
 -124 1 -107 37 -80 70 c 0
 182 398 408 689 598 944 c 0
 717 1101 845 1279 983 1477 c 0
 998 1499 1016 1515 1036 1527 c 0
 1056 1539 1076 1544 1092 1543 c 0
 1108 1542 1124 1539 1139 1532 c 0
 1159 1520 1169 1501 1169 1475 c 0
 1169 1449 1158 1418 1135 1384 c 0
EndSplineSet
Validated: 1
EndChar

StartChar: zero
Encoding: 48 48 27
Width: 1036
GlyphClass: 2
Flags: HMW
HStem: -49 172<305 328> 1305 166<687 689>
LayerCount: 2
Fore
SplineSet
309 -49 m 0
 250 -49 199 -37 153 -14 c 0
 107 9 71 41 45 82 c 0
 19 123 3 175 -3 236 c 0
 -4 251 -5 265 -5 281 c 0
 -5 330 2 382 16 438 c 0
 19 452 26 486 38 540 c 0
 50 594 59 637 67 669 c 0
 75 701 85 745 100 802 c 0
 115 859 129 907 143 948 c 0
 157 989 175 1033 195 1080 c 0
 215 1127 236 1169 256 1204 c 0
 308 1290 375 1356 458 1402 c 0
 541 1448 634 1470 739 1470 c 0
 791 1470 838 1461 878 1442 c 0
 918 1423 952 1395 980 1358 c 0
 1008 1321 1026 1273 1036 1214 c 0
 1040 1187 1043 1157 1043 1126 c 0
 1043 1090 1040 1053 1034 1012 c 0
 1023 944 1008 866 989 779 c 0
 970 692 948 605 922 517 c 0
 896 429 872 361 850 315 c 0
 828 269 806 228 784 193 c 0
 762 158 741 126 719 100 c 0
 697 74 673 53 648 35 c 0
 623 17 598 3 574 -8 c 0
 550 -19 524 -28 495 -34 c 0
 466 -40 437 -44 409 -46 c 0
 381 -48 347 -49 309 -49 c 0
209 471 m 0
 208 466 206 457 204 446 c 0
 202 435 200 428 199 424 c 1
 427 674 640 930 838 1194 c 1
 823 1229 801 1257 772 1276 c 0
 743 1295 710 1305 670 1305 c 0
 599 1305 538 1283 489 1241 c 0
 440 1199 395 1130 354 1036 c 0
 338 1002 322 962 308 916 c 0
 294 870 279 816 265 751 c 0
 251 686 242 640 237 613 c 0
 232 586 223 539 209 471 c 0
678 344 m 0
 686 360 702 405 725 479 c 0
 748 553 772 637 797 732 c 0
 822 827 840 919 854 1006 c 1
 648 706 429 453 197 250 c 1
 212 165 262 123 348 123 c 0
 382 123 413 126 442 132 c 0
 471 138 499 149 527 165 c 0
 555 181 581 203 606 233 c 0
 631 263 655 300 678 344 c 0
EndSplineSet
Validated: 1
EndChar

StartChar: one
Encoding: 49 49 28
Width: 1036
GlyphClass: 2
Flags: HMW
HStem: -18 175 -10 182<147 148>
LayerCount: 2
Fore
SplineSet
983 78 m 0x80
 978 51 965 27 947 9 c 0
 929 -9 900 -18 862 -18 c 0x80
 846 -18 733 -17 524 -14 c 0
 315 -11 180 -10 117 -10 c 0
 88 -10 69 -2 60 14 c 0
 55 24 52 36 52 50 c 0
 52 58 53 68 55 78 c 0
 60 105 72 127 90 145 c 0
 108 163 132 172 162 172 c 0x40
 219 172 317 171 455 170 c 1
 467 225 476 268 483 301 c 0
 484 312 493 349 507 410 c 0
 521 471 532 516 539 543 c 0
 546 570 559 620 579 694 c 0
 599 768 613 823 622 859 c 0
 631 895 646 952 667 1031 c 0
 688 1110 704 1167 715 1204 c 1
 602 1119 521 1069 473 1053 c 0
 465 1050 457 1048 449 1048 c 0
 432 1048 415 1056 401 1073 c 0
 386 1091 378 1110 378 1128 c 0
 378 1134 379 1141 381 1147 c 0
 385 1169 394 1188 408 1205 c 0
 422 1222 442 1239 469 1257 c 0
 513 1287 559 1321 607 1357 c 0
 655 1393 691 1420 714 1436 c 0
 737 1452 758 1466 779 1478 c 0
 800 1490 819 1495 834 1495 c 0
 861 1495 885 1483 908 1458 c 0
 927 1437 937 1420 937 1405 c 0
 937 1400 937 1399 847 1062 c 0
 796 870 767 758 760 725 c 0
 729 588 702 474 682 383 c 0
 670 332 655 259 637 162 c 1
 674 162 713 161 753 160 c 0
 793 159 826 158 852 157 c 0
 878 156 895 156 905 156 c 0
 940 156 964 148 974 134 c 0
 984 120 987 101 983 78 c 0x80
EndSplineSet
Validated: 1
EndChar

StartChar: two
Encoding: 50 50 29
Width: 1036
GlyphClass: 2
Flags: HMW
HStem: -37 172 -25 182<739 814> 1307 172<707 734>
LayerCount: 2
Fore
SplineSet
766 -25 m 0x60
 713 -25 646 -26 566 -29 c 0
 486 -32 415 -34 353 -37 c 0
 291 -40 228 -41 165 -41 c 0
 102 -41 51 -38 16 -33 c 0
 -11 -30 -27 -11 -32 23 c 0
 -33 31 -33 39 -33 48 c 0
 -33 80 -27 120 -14 170 c 0
 0 229 24 290 62 355 c 0
 100 420 149 483 209 542 c 0
 269 601 333 649 403 686 c 0
 559 768 661 825 707 858 c 0
 768 902 812 948 838 997 c 0
 852 1026 862 1062 872 1104 c 0
 878 1129 881 1151 881 1171 c 0
 881 1208 871 1237 851 1258 c 0
 820 1290 769 1307 698 1307 c 0
 649 1307 598 1290 545 1257 c 0
 492 1224 448 1189 414 1149 c 0
 398 1131 384 1117 372 1107 c 0
 360 1097 349 1091 337 1090 c 0
 325 1089 315 1089 306 1092 c 0
 297 1095 286 1099 274 1106 c 0
 255 1118 246 1136 246 1159 c 0
 246 1182 258 1212 283 1249 c 0
 302 1275 326 1301 357 1327 c 0
 388 1353 423 1378 462 1401 c 0
 501 1424 544 1443 592 1457 c 0
 640 1471 685 1479 729 1479 c 0
 867 1479 964 1444 1019 1376 c 0
 1054 1332 1072 1275 1072 1204 c 0
 1072 1164 1066 1118 1055 1069 c 0
 1029 956 981 865 911 797 c 0
 859 746 775 690 659 629 c 0
 630 613 581 587 510 553 c 0
 449 522 394 483 347 437 c 0
 300 391 263 345 236 297 c 0
 209 249 186 197 170 141 c 1
 240 137 307 135 373 135 c 0xa0
 439 135 489 136 527 138 c 0
 565 140 608 143 657 147 c 2
 756 156 l 2
 757 156 763 156 774 157 c 0
 785 158 793 158 796 158 c 2
 814 158 l 2
 823 158 830 157 834 154 c 0
 838 151 842 147 847 143 c 0
 852 139 855 134 857 127 c 0
 859 120 859 112 858 102 c 0
 857 86 853 68 845 50 c 0
 837 32 826 15 812 -1 c 0
 798 -17 782 -25 766 -25 c 0x60
EndSplineSet
Validated: 1
EndChar

StartChar: three
Encoding: 51 51 30
Width: 1036
GlyphClass: 2
Flags: HMW
HStem: -49 172<368 416> 651 205<427 441> 1307 172<653 684>
VStem: 718 205
LayerCount: 2
Fore
SplineSet
907 408 m 0
 876 267 811 156 711 74 c 0
 611 -8 489 -49 344 -49 c 0
 299 -49 256 -42 216 -28 c 0
 176 -14 142 5 113 28 c 0
 84 51 60 74 41 101 c 0
 22 128 9 154 4 180 c 0
 1 193 0 205 -0 217 c 0
 0 235 3 250 9 266 c 0
 19 292 36 311 59 322 c 0
 79 331 96 336 112 336 c 0
 119 336 126 335 132 333 c 0
 152 327 168 310 182 281 c 0
 201 240 229 203 264 171 c 0
 299 139 342 123 393 123 c 0
 468 123 536 147 596 193 c 0
 656 239 695 299 711 373 c 0
 717 403 720 430 720 455 c 0
 720 467 720 478 718 489 c 0
 713 522 700 551 678 576 c 0
 656 601 623 619 577 632 c 0
 531 645 475 651 408 651 c 0
 382 651 362 662 348 685 c 0
 339 700 335 716 335 733 c 0
 335 742 336 751 338 760 c 0
 345 789 357 811 375 829 c 0
 393 847 414 856 440 856 c 0
 546 856 636 879 708 925 c 0
 780 971 824 1037 842 1124 c 0
 847 1144 850 1163 850 1179 c 0
 850 1214 838 1242 814 1262 c 0
 779 1292 723 1307 645 1307 c 0
 630 1307 615 1305 601 1302 c 0
 587 1299 574 1294 564 1291 c 0
 554 1288 542 1282 530 1274 c 0
 518 1266 509 1258 501 1253 c 0
 493 1248 483 1239 471 1227 c 2
 445 1201 l 2
 440 1196 432 1186 420 1171 c 0
 393 1141 368 1123 345 1118 c 0
 339 1116 332 1116 326 1116 c 0
 310 1116 296 1121 281 1131 c 0
 263 1141 254 1157 254 1180 c 0
 254 1205 264 1236 289 1274 c 0
 308 1301 329 1326 354 1349 c 0
 379 1372 407 1393 438 1413 c 0
 469 1433 506 1449 547 1461 c 0
 588 1473 631 1479 676 1479 c 0
 822 1479 924 1446 983 1380 c 0
 1021 1338 1040 1283 1040 1215 c 0
 1040 1177 1034 1136 1022 1090 c 0
 1014 1050 1001 1014 984 982 c 0
 967 950 948 923 926 900 c 0
 904 877 879 858 851 841 c 0
 823 824 796 811 769 801 c 0
 742 791 714 783 684 778 c 1
 733 766 774 751 807 733 c 0
 840 715 867 693 887 665 c 0
 907 637 920 601 923 559 c 0
 924 551 924 542 924 533 c 0
 924 497 918 455 907 408 c 0
EndSplineSet
Validated: 1
EndChar

StartChar: four
Encoding: 52 52 31
Width: 1036
GlyphClass: 2
Flags: HMW
HStem: -47 43G<611 637> 459 164
LayerCount: 2
Fore
SplineSet
735 113 m 0
 734 69 722 31 699 -0 c 0
 676 -31 652 -47 623 -47 c 0
 600 -47 579 -37 561 -17 c 0
 546 0 538 17 538 35 c 0
 538 48 550 98 556 123 c 0
 565 160 578 213 594 282 c 0
 610 351 624 410 635 459 c 1
 608 459 581 459 556 459 c 0
 367 459 230 450 147 432 c 0
 127 428 109 429 93 434 c 0
 77 439 66 449 60 463 c 0
 54 477 50 492 49 510 c 0
 48 528 49 546 54 565 c 0
 59 584 66 603 76 621 c 0
 98 659 146 721 222 808 c 0
 298 895 395 1001 512 1129 c 0
 629 1257 713 1350 764 1407 c 0
 787 1433 811 1452 835 1465 c 0
 859 1478 879 1485 897 1485 c 0
 902 1485 907 1486 911 1486 c 0
 931 1486 949 1480 964 1470 c 0
 981 1459 989 1440 989 1413 c 0
 989 1403 987 1346 956 1186 c 0
 937 1086 920 1002 905 933 c 0
 890 864 868 760 838 621 c 1
 860 620 884 618 911 618 c 0
 941 618 961 611 969 597 c 0
 977 583 979 564 975 541 c 0
 961 481 927 451 872 451 c 0
 846 451 823 452 803 453 c 1
 758 254 735 140 735 113 c 0
799 1233 m 1
 549 968 374 762 274 616 c 1
 346 621 435 624 539 624 c 0
 581 624 625 624 672 623 c 1
 731 878 773 1081 799 1233 c 1
EndSplineSet
Validated: 1
EndChar

StartChar: five
Encoding: 53 53 32
Width: 1036
GlyphClass: 2
Flags: HMW
HStem: -37 172<328 341> 860 182<582 711> 1268 182<993 1057> 1290 164
LayerCount: 2
Fore
SplineSet
938 606 m 0xd0
 915 505 882 414 840 333 c 0
 798 252 748 184 693 130 c 0
 638 76 577 35 511 6 c 0
 445 -23 376 -37 305 -37 c 0
 249 -37 199 -30 155 -18 c 0
 111 -6 75 11 48 33 c 0
 21 55 1 77 -15 101 c 0
 -31 125 -43 150 -51 176 c 0
 -54 191 -55 204 -55 217 c 0
 -55 236 -52 252 -46 266 c 0
 -36 289 -18 307 8 319 c 0
 24 326 37 331 46 334 c 0
 55 337 65 337 77 336 c 0
 89 335 97 329 105 319 c 0
 113 309 120 297 127 279 c 0
 162 185 230 136 328 135 c 0
 424 135 509 176 583 257 c 0
 657 338 710 447 741 584 c 0
 750 622 754 657 754 688 c 0
 754 726 748 758 735 785 c 0
 712 835 664 860 592 860 c 0
 573 860 554 859 536 857 c 0
 518 855 501 852 488 849 c 0
 475 846 460 841 444 834 c 0
 428 827 416 821 408 817 c 0
 400 813 388 806 373 795 c 0
 358 784 348 776 343 772 c 0
 338 768 328 759 312 746 c 0
 296 733 287 726 283 723 c 0
 271 713 257 705 241 698 c 0
 225 691 207 687 189 685 c 0
 171 683 154 686 139 694 c 0
 120 704 108 725 105 758 c 0
 104 767 104 775 104 785 c 0
 104 812 108 844 115 879 c 0
 125 927 135 973 147 1017 c 0
 159 1061 173 1109 188 1160 c 0
 203 1211 213 1247 217 1266 c 1
 210 1284 208 1303 211 1326 c 0
 214 1349 219 1370 229 1389 c 0
 239 1408 251 1424 267 1438 c 0
 283 1452 299 1458 317 1458 c 0
 365 1458 476 1457 650 1454 c 0xd0
 824 1451 958 1450 1049 1450 c 0
 1065 1450 1076 1442 1083 1427 c 0
 1090 1412 1093 1395 1092 1376 c 0
 1091 1357 1086 1339 1081 1323 c 0
 1078 1313 1075 1305 1070 1298 c 0
 1065 1291 1060 1286 1053 1283 c 0
 1046 1280 1040 1277 1035 1274 c 0
 1030 1271 1024 1270 1014 1269 c 0
 1004 1268 997 1268 994 1268 c 0xe0
 991 1268 984 1269 973 1270 c 0
 962 1271 955 1272 954 1272 c 0
 936 1272 905 1274 861 1278 c 0
 817 1282 776 1285 741 1287 c 0
 706 1289 656 1290 593 1290 c 0
 530 1290 463 1288 393 1284 c 1
 389 1270 378 1231 361 1165 c 0
 344 1099 333 1052 325 1023 c 0
 317 994 308 952 297 897 c 1
 342 939 398 974 465 1001 c 0
 532 1028 604 1042 682 1042 c 0
 739 1042 787 1032 827 1009 c 0
 867 986 898 955 918 915 c 0
 938 875 950 830 953 777 c 0
 954 766 954 756 954 745 c 0
 954 702 949 655 938 606 c 0xd0
EndSplineSet
Validated: 1
EndChar

StartChar: six
Encoding: 54 54 33
Width: 1036
GlyphClass: 2
Flags: HMW
HStem: -45 172<399 406> 805 180<566 720> 1346 164
VStem: 35 170 787 195
LayerCount: 2
Fore
SplineSet
958 504 m 0
 940 428 912 356 872 288 c 0
 832 220 787 162 736 114 c 0
 685 66 627 27 564 -2 c 0
 501 -31 438 -45 375 -45 c 0
 297 -45 232 -29 181 3 c 0
 130 35 93 81 69 142 c 0
 46 199 35 268 35 347 c 0
 35 352 35 355 35 360 c 0
 36 445 50 540 76 645 c 0
 105 762 140 869 182 963 c 0
 224 1057 272 1136 323 1200 c 0
 374 1264 431 1319 494 1363 c 0
 557 1407 621 1441 688 1464 c 0
 755 1487 827 1502 905 1509 c 0
 911 1510 917 1510 922 1510 c 0
 945 1510 963 1505 978 1496 c 0
 995 1485 1004 1468 1004 1445 c 0
 1004 1437 1004 1417 969 1385 c 0
 947 1365 925 1353 903 1346 c 0
 888 1342 866 1336 835 1329 c 0
 804 1322 778 1316 757 1310 c 0
 736 1304 710 1294 679 1282 c 0
 648 1270 617 1252 584 1229 c 0
 551 1206 517 1178 483 1145 c 0
 448 1110 412 1060 374 999 c 0
 336 938 309 884 291 836 c 1
 343 887 403 923 471 948 c 0
 539 973 612 985 690 985 c 0
 749 985 799 976 841 958 c 0
 883 940 915 912 940 874 c 0
 965 836 979 786 982 724 c 0
 983 715 983 705 983 695 c 0
 983 639 974 576 958 504 c 0
209 471 m 0
 206 448 204 426 204 403 c 0
 204 395 205 388 205 380 c 0
 206 349 211 318 221 287 c 0
 231 256 243 228 259 205 c 0
 275 182 297 162 324 148 c 0
 351 134 382 127 416 127 c 0
 462 127 510 145 561 180 c 0
 612 215 655 260 692 314 c 0
 729 368 754 423 766 479 c 0
 780 540 787 592 787 635 c 0
 787 682 779 717 762 741 c 0
 746 764 724 781 698 791 c 0
 672 801 639 805 598 805 c 0
 534 805 470 787 407 752 c 0
 344 717 288 671 240 616 c 1
 225 557 214 509 209 471 c 0
EndSplineSet
Validated: 1
EndChar

StartChar: seven
Encoding: 55 55 34
Width: 1036
GlyphClass: 2
Flags: HMW
HStem: 1275 185
LayerCount: 2
Fore
SplineSet
143 53 m 0
 120 18 95 -9 67 -27 c 0
 46 -41 26 -47 7 -47 c 0
 1 -47 -5 -46 -10 -45 c 0
 -36 -38 -51 -22 -56 4 c 0
 -57 9 -58 14 -58 19 c 0
 -58 41 -50 65 -33 90 c 0
 64 231 166 371 272 510 c 0
 378 649 465 760 533 843 c 0
 601 926 665 1005 724 1083 c 0
 783 1161 826 1225 852 1274 c 1
 792 1276 730 1277 666 1277 c 0
 612 1277 557 1277 500 1275 c 0
 374 1272 291 1264 250 1253 c 0
 234 1249 220 1250 210 1255 c 0
 200 1260 192 1269 187 1280 c 0
 182 1291 180 1303 179 1315 c 0
 178 1327 179 1340 180 1352 c 0
 185 1377 196 1396 211 1410 c 0
 226 1424 250 1435 283 1442 c 0
 332 1452 398 1457 481 1460 c 0
 523 1461 563 1462 601 1462 c 0
 639 1462 676 1461 711 1460 c 0
 781 1457 848 1455 914 1452 c 0
 980 1449 1017 1448 1022 1448 c 0
 1036 1448 1048 1445 1059 1439 c 0
 1070 1433 1079 1423 1087 1409 c 0
 1095 1395 1098 1378 1093 1356 c 0
 1088 1334 1076 1309 1057 1280 c 0
 1030 1239 984 1178 918 1095 c 0
 852 1012 784 928 714 841 c 0
 644 754 556 639 451 495 c 0
 346 351 243 203 143 53 c 0
EndSplineSet
Validated: 1
EndChar

StartChar: eight
Encoding: 56 56 35
Width: 1036
GlyphClass: 2
Flags: HMW
HStem: -57 176<376 386> 1323 147<689 699>
VStem: 781 185
LayerCount: 2
Fore
SplineSet
956 418 m 0
 946 374 931 331 910 287 c 0
 889 243 861 201 826 159 c 0
 791 117 752 80 708 49 c 0
 664 18 610 -8 549 -28 c 0
 488 -48 421 -57 350 -57 c 0
 286 -57 230 -48 183 -29 c 0
 136 -10 100 15 75 44 c 0
 50 73 30 109 17 150 c 0
 5 189 -1 227 -1 267 c 0
 -1 290 0 338 14 401 c 0
 25 447 48 498 82 551 c 0
 116 604 159 653 211 698 c 0
 263 743 316 775 371 793 c 1
 311 827 269 872 244 927 c 0
 228 963 220 999 220 1035 c 0
 220 1055 222 1076 227 1096 c 0
 231 1112 237 1130 243 1148 c 0
 249 1166 258 1188 272 1213 c 0
 286 1238 301 1263 318 1286 c 0
 335 1309 357 1332 383 1355 c 0
 409 1378 437 1397 468 1414 c 0
 499 1431 536 1445 578 1455 c 0
 620 1465 665 1470 713 1470 c 0
 762 1470 805 1465 843 1455 c 0
 881 1445 911 1431 935 1414 c 0
 959 1397 978 1378 993 1355 c 0
 1008 1332 1019 1309 1026 1286 c 0
 1033 1263 1037 1238 1038 1212 c 0
 1039 1202 1039 1192 1039 1183 c 0
 1039 1169 1038 1156 1037 1144 c 0
 1035 1124 1032 1105 1028 1087 c 0
 1024 1071 1019 1054 1011 1038 c 0
 1003 1022 995 1007 986 995 c 0
 977 983 966 970 952 956 c 0
 938 942 926 932 915 922 c 0
 904 912 890 901 873 889 c 0
 856 877 843 867 833 861 c 0
 823 855 809 847 792 836 c 0
 775 825 763 817 756 813 c 1
 798 791 834 766 863 739 c 0
 892 712 915 685 929 658 c 0
 943 631 953 603 959 573 c 0
 964 548 967 526 967 506 c 0
 967 501 967 497 967 493 c 0
 966 469 961 444 956 418 c 0
408 1102 m 0
 405 1090 403 1078 403 1067 c 0
 403 1036 414 1008 437 982 c 0
 468 947 524 912 606 877 c 1
 665 900 719 931 769 971 c 0
 819 1011 847 1047 854 1081 c 0
 858 1097 859 1114 859 1130 c 0
 859 1152 856 1173 850 1194 c 0
 839 1231 818 1261 787 1286 c 0
 756 1311 720 1323 678 1323 c 0
 619 1323 563 1300 508 1254 c 0
 453 1208 420 1158 408 1102 c 0
399 119 m 0
 436 119 474 124 514 136 c 0
 554 148 591 164 626 186 c 0
 661 208 691 237 718 272 c 0
 745 307 762 345 772 385 c 0
 776 399 781 427 781 454 c 0
 781 472 779 493 773 516 c 0
 767 542 756 566 741 588 c 0
 726 610 704 632 674 656 c 0
 644 680 606 702 561 721 c 1
 463 695 378 650 307 586 c 0
 236 522 192 453 174 381 c 0
 169 362 167 343 167 325 c 0
 167 296 173 269 185 244 c 0
 205 203 234 172 272 151 c 0
 310 130 353 119 399 119 c 0
EndSplineSet
Validated: 1
EndChar

StartChar: nine
Encoding: 57 57 36
Width: 1036
GlyphClass: 2
Flags: HMW
HStem: -45 164<113 113> 481 182<371 517> 1341 172<657 664>
LayerCount: 2
Fore
SplineSet
113 -45 m 0
 107 -46 101 -46 96 -46 c 0
 73 -46 54 -41 39 -32 c 0
 22 -22 14 -6 14 15 c 0
 14 29 15 51 49 80 c 0
 71 99 93 112 115 119 c 0
 130 123 153 128 186 135 c 0
 219 142 248 149 275 157 c 0
 302 165 333 174 367 186 c 0
 401 198 435 216 468 238 c 0
 501 260 534 285 567 315 c 0
 608 355 647 401 684 454 c 0
 721 507 748 554 766 596 c 1
 721 552 669 522 610 506 c 0
 551 490 481 481 399 481 c 0
 343 481 293 495 249 523 c 0
 205 551 170 589 145 635 c 0
 120 681 105 735 98 796 c 0
 96 816 95 837 95 857 c 0
 95 898 100 939 109 981 c 0
 127 1057 155 1129 194 1195 c 0
 233 1261 278 1318 329 1364 c 0
 380 1410 437 1447 500 1474 c 0
 563 1501 625 1513 688 1513 c 0
 844 1513 945 1450 992 1323 c 0
 1013 1266 1024 1197 1024 1117 c 0
 1024 1020 1008 906 977 776 c 0
 951 667 915 568 871 480 c 0
 827 392 778 317 723 256 c 0
 668 195 608 142 540 98 c 0
 472 54 403 22 333 -1 c 0
 263 -24 189 -38 113 -45 c 0
301 1006 m 0
 289 955 283 910 283 870 c 0
 283 822 292 783 309 751 c 0
 340 693 400 664 489 664 c 0
 545 664 604 678 664 705 c 0
 724 732 775 769 817 817 c 1
 828 857 840 916 854 997 c 0
 857 1020 859 1043 859 1066 c 0
 859 1074 858 1081 858 1089 c 0
 857 1120 852 1151 842 1182 c 0
 832 1213 820 1241 804 1264 c 0
 788 1287 766 1306 739 1320 c 0
 712 1334 681 1341 647 1341 c 0
 599 1341 551 1325 503 1292 c 0
 455 1259 412 1217 375 1166 c 0
 338 1115 313 1062 301 1006 c 0
EndSplineSet
Validated: 1
EndChar

StartChar: colon
Encoding: 58 58 37
Width: 1036
GlyphClass: 2
Flags: HMW
VStem: 322 395
LayerCount: 2
Fore
SplineSet
717 854 m 0
 710 809 695 762 670 711 c 0
 658 684 639 662 614 648 c 0
 592 635 571 629 552 629 c 0
 550 629 549 629 547 629 c 0
 479 633 445 658 445 706 c 0
 445 711 445 717 446 723 c 0
 451 760 461 807 475 864 c 0
 479 882 488 896 500 908 c 0
 512 920 526 929 541 934 c 0
 556 939 570 943 583 944 c 0
 596 945 609 946 623 946 c 0
 634 946 644 945 655 942 c 0
 666 939 677 935 688 929 c 0
 699 923 707 913 712 900 c 0
 717 887 718 872 717 854 c 0
592 307 m 0
 589 259 576 211 551 160 c 0
 539 133 518 112 489 99 c 0
 463 87 440 82 420 82 c 0
 418 82 416 82 414 82 c 0
 388 83 365 92 345 108 c 0
 329 121 320 138 320 160 c 0
 320 165 321 169 322 174 c 0
 327 203 331 220 332 228 c 0
 333 236 337 250 343 270 c 0
 349 290 353 306 356 317 c 0
 360 333 368 348 380 360 c 0
 392 372 405 381 419 386 c 0
 433 391 447 394 460 396 c 0
 473 398 486 399 498 399 c 0
 513 399 527 397 541 392 c 0
 555 387 567 377 578 362 c 0
 589 347 593 329 592 307 c 0
EndSplineSet
Validated: 1
EndChar

StartChar: semicolon
Encoding: 59 59 38
Width: 1036
GlyphClass: 2
Flags: HMW
VStem: 213 616
LayerCount: 2
Fore
SplineSet
829 768 m 0
 822 723 806 676 780 625 c 0
 768 598 750 576 725 562 c 0
 703 549 683 543 665 543 c 0
 663 543 661 543 659 543 c 0
 643 544 627 548 611 554 c 0
 595 560 582 571 570 586 c 0
 558 601 554 619 557 639 c 0
 562 676 574 723 590 780 c 0
 594 796 601 811 613 823 c 0
 625 835 638 844 653 849 c 0
 668 854 682 857 696 859 c 0
 710 861 722 861 733 860 c 0
 745 860 757 859 768 857 c 0
 779 855 790 851 801 844 c 0
 812 837 819 827 824 814 c 0
 829 801 830 786 829 768 c 0
649 152 m 0
 635 108 553 -70 401 -383 c 0
 387 -412 370 -432 349 -445 c 0
 330 -457 312 -463 293 -463 c 0
 291 -463 289 -463 287 -463 c 0
 261 -462 239 -452 223 -436 c 0
 213 -426 208 -413 208 -398 c 0
 208 -389 209 -380 213 -369 c 0
 223 -336 254 -256 308 -129 c 0
 362 -2 404 95 434 162 c 0
 444 182 454 199 464 211 c 0
 474 223 484 232 494 236 c 0
 504 240 513 243 524 244 c 0
 535 245 545 245 553 244 c 0
 565 244 578 242 590 239 c 0
 602 236 614 230 626 224 c 0
 638 218 645 209 650 197 c 0
 655 185 654 170 649 152 c 0
EndSplineSet
Validated: 1
EndChar

StartChar: less
Encoding: 60 60 39
Width: 1036
GlyphClass: 2
Flags: HW
HStem: -25 43G<643 655>
LayerCount: 2
Fore
SplineSet
758 29 m 0
 748 15 736 4 722 -6 c 0
 708 -16 690 -22 667 -25 c 0
 662 -26 658 -25 653 -25 c 0
 634 -25 614 -21 592 -12 c 0
 563 -1 530 22 492 59 c 0
 454 96 413 140 371 191 c 0
 329 242 287 295 246 348 c 0
 205 401 162 456 116 513 c 0
 70 570 30 614 -4 645 c 0
 -18 657 -25 675 -25 700 c 0
 -25 725 -19 748 -7 771 c 0
 5 794 19 809 37 819 c 0
 122 876 223 948 341 1035 c 0
 459 1122 567 1201 664 1271 c 0
 761 1341 846 1397 918 1438 c 0
 941 1452 961 1458 979 1459 c 0
 997 1460 1011 1457 1022 1449 c 0
 1033 1441 1042 1432 1048 1421 c 0
 1054 1410 1058 1398 1061 1386 c 0
 1062 1381 1063 1376 1063 1371 c 0
 1063 1353 1055 1335 1040 1316 c 0
 1021 1292 987 1264 936 1231 c 0
 853 1178 724 1091 551 969 c 0
 378 847 267 770 221 737 c 1
 261 696 304 647 351 589 c 0
 398 531 439 478 474 431 c 0
 509 384 548 336 590 287 c 0
 632 238 671 199 705 170 c 0
 739 141 760 116 768 95 c 0
 771 88 772 80 772 72 c 0
 772 58 768 44 758 29 c 0
EndSplineSet
Validated: 1
EndChar

StartChar: equal
Encoding: 61 61 40
Width: 1036
GlyphClass: 2
Flags: HMW
HStem: 506 170<165 223> 907 174
LayerCount: 2
Fore
SplineSet
311 1081 m 0
 383 1078 458 1077 534 1077 c 0
 610 1077 681 1078 748 1079 c 0
 815 1080 854 1081 868 1081 c 0
 898 1081 918 1075 926 1061 c 0
 934 1047 936 1029 932 1006 c 0
 929 994 926 982 922 972 c 0
 918 962 911 952 903 942 c 0
 895 932 884 926 872 921 c 0
 860 916 846 914 831 915 c 0
 801 916 770 917 737 917 c 0
 721 917 704 916 687 916 c 0
 636 915 565 914 476 911 c 0
 387 908 322 907 281 907 c 0
 250 907 226 916 212 932 c 0
 198 948 194 968 199 991 c 0
 203 1017 214 1039 234 1057 c 0
 252 1073 277 1081 305 1081 c 0
 307 1081 309 1081 311 1081 c 0
223 676 m 0
 256 676 292 675 329 675 c 0
 403 675 484 676 573 678 c 0
 707 681 775 682 776 682 c 0
 806 682 826 674 834 660 c 0
 842 646 844 627 840 604 c 0
 837 592 833 580 828 570 c 0
 823 560 818 551 810 541 c 0
 802 531 792 524 780 519 c 0
 768 514 754 513 739 514 c 0
 709 515 677 515 644 515 c 0
 627 515 611 515 593 515 c 0
 540 514 469 513 378 510 c 0
 287 507 221 506 180 506 c 0
 149 506 128 514 116 531 c 0
 108 543 104 556 104 571 c 0
 104 578 104 586 106 594 c 0
 110 617 123 636 143 652 c 0
 163 668 190 676 223 676 c 0
EndSplineSet
Validated: 1
EndChar

StartChar: greater
Encoding: 62 62 41
Width: 1036
GlyphClass: 2
Flags: HW
LayerCount: 2
Fore
SplineSet
121 10 m 0
 99 -2 78 -9 60 -10 c 0
 42 -11 27 -9 16 -1 c 0
 5 7 -3 16 -9 27 c 0
 -15 38 -20 49 -23 61 c 0
 -24 66 -24 72 -24 77 c 0
 -24 95 -17 113 -2 132 c 0
 17 156 52 184 104 217 c 0
 187 270 315 357 488 479 c 0
 661 601 771 678 819 711 c 1
 779 752 736 801 688 859 c 0
 640 917 598 970 563 1017 c 0
 528 1064 489 1112 447 1161 c 0
 405 1210 368 1249 334 1278 c 0
 300 1307 278 1332 270 1353 c 0
 267 1360 266 1367 266 1375 c 0
 266 1389 271 1404 281 1419 c 0
 291 1433 302 1444 316 1454 c 0
 330 1464 349 1470 372 1473 c 0
 377 1474 381 1473 386 1473 c 0
 405 1473 424 1469 446 1460 c 0
 475 1449 509 1426 548 1390 c 0
 587 1354 627 1309 669 1257 c 0
 711 1205 752 1153 793 1100 c 0
 834 1047 877 992 923 936 c 0
 969 880 1009 836 1044 803 c 0
 1056 791 1063 773 1062 748 c 0
 1061 723 1055 700 1044 677 c 0
 1033 654 1019 639 1001 629 c 0
 916 572 815 500 697 413 c 0
 579 326 472 247 375 177 c 0
 278 107 193 51 121 10 c 0
EndSplineSet
Validated: 1
EndChar

StartChar: question
Encoding: 63 63 42
Width: 1036
GlyphClass: 2
Flags: HMW
HStem: -29 315 1307 172<571 597>
VStem: 109 309 264 195
LayerCount: 2
Fore
SplineSet
459 537 m 0xd0
 445 502 427 474 404 455 c 0
 389 442 373 436 353 436 c 0
 343 436 333 437 322 440 c 0
 289 450 269 468 264 494 c 0
 263 499 262 505 262 511 c 0
 262 534 271 564 287 598 c 0
 305 635 325 669 350 702 c 0
 375 735 400 763 425 786 c 0
 450 809 477 832 504 853 c 0
 531 874 557 894 582 912 c 0
 607 930 629 950 650 969 c 0
 671 988 690 1008 705 1031 c 0
 720 1054 730 1078 735 1104 c 0
 741 1129 744 1151 744 1171 c 0
 744 1208 734 1237 714 1258 c 0
 683 1290 632 1307 561 1307 c 0
 543 1307 524 1302 504 1293 c 0
 484 1284 466 1275 451 1264 c 0
 436 1253 418 1238 398 1220 c 0
 378 1202 363 1185 352 1172 c 0
 341 1159 328 1144 313 1126 c 0
 298 1108 284 1094 271 1084 c 0
 258 1074 247 1069 236 1068 c 0
 225 1067 215 1068 206 1070 c 0
 197 1072 186 1076 172 1083 c 0
 153 1095 143 1114 144 1137 c 0
 145 1160 157 1190 182 1227 c 0
 202 1256 226 1283 252 1310 c 0
 278 1337 309 1363 344 1390 c 0
 379 1417 419 1438 463 1454 c 0
 507 1470 550 1479 592 1479 c 0
 730 1479 827 1444 882 1376 c 0
 917 1332 935 1275 935 1204 c 0
 935 1164 929 1118 918 1069 c 0
 910 1032 896 999 878 969 c 0
 860 939 839 913 816 891 c 0
 793 869 769 848 742 829 c 0
 715 810 689 791 662 772 c 0
 635 753 608 733 583 713 c 0
 558 693 534 667 512 636 c 0
 490 605 473 572 459 537 c 0xd0
231 -29 m 0
 224 -30 218 -30 212 -30 c 0
 173 -30 144 -16 125 13 c 0
 110 35 103 61 103 88 c 0
 103 102 105 116 109 131 c 0
 119 173 142 210 182 240 c 0
 222 270 262 286 303 287 c 0
 305 287 307 287 309 287 c 0
 351 287 382 273 402 245 c 0
 416 226 423 202 423 176 c 0
 423 162 422 148 418 133 c 0xe0
 408 89 386 53 352 24 c 0
 318 -5 277 -24 231 -29 c 0
EndSplineSet
Validated: 1
EndChar

StartChar: at
Encoding: 64 64 43
Width: 1036
GlyphClass: 2
Flags: HMW
HStem: -264 174<272 371> 209 160<683 771> 242 164<440 457> 1255 184<709 717>
VStem: -36 175 612 166 921 155
LayerCount: 2
Fore
SplineSet
778 10 m 0xde
 767 -9 756 -26 745 -40 c 0
 734 -54 721 -72 705 -93 c 0
 689 -114 671 -132 653 -147 c 0
 635 -162 615 -178 590 -194 c 0
 565 -210 539 -222 512 -232 c 0
 485 -242 453 -251 417 -257 c 0
 387 -262 357 -265 326 -265 c 0
 319 -265 312 -264 305 -264 c 0
 238 -264 180 -246 129 -211 c 0
 78 -176 39 -125 11 -62 c 0
 -17 1 -33 78 -36 169 c 0
 -36 180 -36 192 -36 203 c 0
 -36 285 -26 372 -4 467 c 0
 25 587 59 699 100 803 c 0
 141 907 187 997 237 1074 c 0
 287 1151 339 1218 394 1273 c 0
 449 1328 506 1370 565 1398 c 0
 624 1426 681 1440 737 1440 c 0
 779 1440 818 1436 851 1428 c 0
 884 1420 915 1409 944 1392 c 0
 973 1375 996 1352 1014 1323 c 0
 1032 1294 1046 1258 1058 1215 c 0
 1070 1172 1075 1122 1075 1065 c 0
 1075 1008 1070 940 1059 862 c 0
 1048 784 1032 697 1010 600 c 0
 999 551 985 504 968 460 c 0
 951 416 930 374 907 335 c 0
 884 296 857 266 826 243 c 0
 795 220 763 209 729 209 c 0xde
 650 209 611 251 611 336 c 0
 611 350 612 365 614 381 c 1
 563 288 498 242 416 242 c 0
 341 242 288 266 258 317 c 0
 241 345 233 381 233 425 c 0
 233 461 239 502 250 549 c 0
 262 601 279 648 299 692 c 0
 319 736 343 773 368 804 c 0
 393 835 421 861 451 882 c 0
 481 903 511 918 542 927 c 0
 569 935 595 938 622 938 c 0
 634 938 l 0
 665 937 694 929 721 915 c 0
 748 903 768 886 780 866 c 0
 792 846 792 827 780 811 c 0
 773 800 766 791 758 784 c 0
 750 777 741 773 731 770 c 0
 721 767 714 765 706 764 c 0
 698 763 689 763 677 765 c 0
 665 767 656 769 650 770 c 0
 644 771 636 774 625 778 c 0
 610 781 594 781 577 780 c 0
 560 779 542 773 525 763 c 0
 508 753 492 740 476 724 c 0
 460 708 446 688 433 662 c 0
 420 636 409 606 401 573 c 0
 397 555 394 539 393 523 c 0
 392 507 391 490 392 470 c 0
 393 450 398 435 408 423 c 0
 418 411 431 405 449 405 c 0xbe
 489 405 520 423 545 456 c 0
 570 489 592 545 612 623 c 0
 617 645 639 662 674 676 c 0
 696 685 715 689 732 689 c 0
 744 689 755 687 764 682 c 0
 779 675 783 661 778 641 c 0
 753 569 738 512 733 472 c 0
 730 452 729 435 729 421 c 0
 729 407 730 397 733 390 c 0
 738 376 750 369 766 369 c 0
 777 369 788 377 800 395 c 0
 812 413 822 436 832 465 c 0
 842 494 849 519 855 541 c 0
 861 563 866 584 870 604 c 0
 886 674 899 738 907 797 c 0
 915 856 920 905 921 947 c 0
 921 951 921 956 921 960 c 0
 921 997 918 1030 912 1060 c 0
 906 1093 900 1121 892 1142 c 0
 884 1163 873 1181 859 1196 c 0
 845 1211 832 1222 820 1230 c 0
 808 1238 794 1243 778 1247 c 0
 762 1251 749 1253 741 1254 c 0
 733 1255 723 1255 711 1255 c 0
 660 1255 609 1238 556 1204 c 0
 503 1170 454 1123 407 1062 c 0
 360 1001 315 926 275 836 c 0
 235 746 203 647 178 541 c 0
 156 448 143 364 139 290 c 0
 138 270 138 250 138 232 c 0
 138 184 142 143 150 110 c 0
 161 64 177 25 198 -6 c 0
 219 -37 242 -60 268 -72 c 0
 294 -84 323 -90 354 -90 c 0
 387 -90 418 -87 447 -80 c 0
 476 -73 502 -65 522 -55 c 0
 542 -45 563 -32 583 -16 c 0
 603 0 619 15 632 29 c 0
 645 43 660 60 676 82 c 0
 683 92 688 99 693 104 c 0
 698 109 704 116 711 124 c 0
 718 132 723 137 728 140 c 0
 733 143 738 147 744 150 c 0
 750 153 757 154 763 154 c 0
 769 154 775 153 780 150 c 0
 790 146 797 140 802 134 c 0
 807 128 810 120 812 110 c 0
 814 100 812 86 807 69 c 0
 802 52 792 32 778 10 c 0xde
EndSplineSet
Validated: 1
EndChar

StartChar: A
Encoding: 65 65 44
Width: 1036
GlyphClass: 2
Flags: HMW
HStem: 514 166
VStem: 827 187
LayerCount: 2
Fore
SplineSet
174 84 m 2
 152 42 127 14 100 0 c 0
 85 -8 71 -11 58 -11 c 0
 48 -11 38 -9 29 -4 c 0
 8 8 -3 28 -3 56 c 0
 -3 81 6 113 23 152 c 0
 41 196 102 302 207 471 c 1
 192 484 185 498 185 515 c 0
 185 520 185 525 186 530 c 0
 189 549 201 568 223 585 c 0
 245 602 270 615 299 625 c 1
 545 1015 725 1276 840 1407 c 0
 865 1434 885 1454 903 1466 c 0
 921 1478 938 1485 956 1485 c 0
 960 1485 965 1486 969 1486 c 0
 988 1486 1005 1480 1019 1470 c 0
 1034 1459 1041 1443 1041 1419 c 0
 1041 1415 1040 1411 1040 1407 c 0
 1026 1238 1016 998 1008 687 c 0
 1005 571 1003 472 1003 393 c 0
 1003 261 1007 181 1016 152 c 0
 1019 140 1021 127 1021 116 c 0
 1021 104 1019 92 1015 81 c 0
 1007 60 997 42 983 28 c 0
 969 14 954 3 938 -4 c 0
 926 -9 915 -12 904 -12 c 0
 891 -12 878 -8 867 -1 c 0
 846 12 832 40 827 84 c 0
 825 101 824 134 824 183 c 0
 824 257 826 367 831 514 c 1
 667 507 519 493 387 471 c 1
 174 84 l 2
862 1233 m 1
 786 1142 661 947 489 651 c 1
 621 667 739 677 840 680 c 1
 862 1233 l 1
EndSplineSet
Validated: 1
EndChar

StartChar: B
Encoding: 66 66 45
Width: 1036
GlyphClass: 2
Flags: HMW
HStem: -47 43G<79 91> 608 147<465 473> 1290 162<637 666>
LayerCount: 2
Fore
SplineSet
322 -29 m 0
 300 -30 276 -32 249 -35 c 0
 222 -38 200 -40 183 -41 c 0
 166 -42 149 -44 131 -45 c 0
 113 -46 98 -47 85 -47 c 0
 72 -47 61 -46 51 -43 c 2
 43 -43 l 2
 17 -43 -1 -33 -13 -15 c 0
 -19 -5 -23 7 -23 21 c 0
 -23 33 -20 46 -16 61 c 0
 2 118 28 228 63 389 c 0
 98 550 134 716 168 887 c 0
 187 978 200 1040 207 1071 c 0
 214 1102 225 1145 239 1198 c 0
 253 1251 263 1289 268 1309 c 0
 278 1346 293 1374 316 1392 c 0
 339 1410 363 1419 389 1419 c 2
 395 1419 l 2
 417 1426 440 1432 464 1437 c 0
 488 1442 509 1445 528 1447 c 0
 547 1449 568 1450 589 1451 c 0
 610 1452 626 1452 637 1452 c 2
 675 1452 l 1
 696 1452 l 2
 782 1452 855 1435 914 1401 c 0
 973 1367 1015 1317 1040 1252 c 0
 1054 1216 1061 1176 1061 1133 c 0
 1061 1099 1057 1064 1049 1026 c 0
 1031 947 998 879 950 822 c 0
 902 765 846 724 780 698 c 1
 820 683 857 661 892 632 c 0
 927 603 954 570 973 534 c 0
 987 507 994 481 994 457 c 0
 994 448 993 440 991 432 c 0
 980 380 957 329 920 278 c 0
 883 227 836 179 779 137 c 0
 722 95 654 59 574 29 c 0
 494 -1 411 -21 322 -29 c 0
655 1290 m 0
 587 1290 519 1282 449 1264 c 1
 442 1238 431 1196 416 1139 c 0
 401 1082 386 1020 370 956 c 0
 354 892 339 827 324 760 c 1
 383 757 439 756 492 756 c 0
 530 756 566 759 599 766 c 0
 632 773 661 782 685 793 c 0
 709 804 732 817 752 833 c 0
 772 849 789 865 803 881 c 0
 817 897 829 915 839 935 c 0
 849 955 857 972 862 988 c 0
 867 1004 873 1020 877 1038 c 0
 882 1058 884 1078 884 1097 c 0
 884 1111 883 1124 880 1137 c 0
 874 1167 863 1191 847 1209 c 0
 831 1227 813 1243 790 1256 c 0
 767 1269 745 1278 722 1283 c 0
 699 1288 677 1290 655 1290 c 0
473 608 m 1
 380 608 320 607 291 606 c 1
 246 386 215 230 197 137 c 1
 211 137 233 138 265 139 c 0
 297 140 322 141 340 141 c 0
 399 144 456 155 512 174 c 0
 568 193 615 216 653 243 c 0
 691 270 724 298 749 327 c 0
 774 356 790 383 797 408 c 0
 801 426 797 443 787 461 c 0
 777 479 760 497 737 516 c 0
 714 535 680 553 634 569 c 0
 588 585 534 598 473 608 c 1
EndSplineSet
Validated: 1
EndChar

StartChar: C
Encoding: 67 67 46
Width: 1036
GlyphClass: 2
Flags: HMW
HStem: -63 184<214 326> 1294 166<797 801>
VStem: 879 158
LayerCount: 2
Fore
SplineSet
788 131 m 0
 653 1 477 -64 260 -64 c 0
 253 -64 247 -63 240 -63 c 0
 188 -63 141 -54 99 -35 c 0
 57 -16 24 10 -2 41 c 0
 -28 72 -48 109 -63 151 c 0
 -78 193 -87 237 -88 284 c 0
 -88 289 -88 293 -88 298 c 0
 -88 340 -83 383 -72 426 c 0
 -49 526 -16 622 24 715 c 0
 64 808 109 892 159 967 c 0
 209 1042 263 1110 321 1173 c 0
 379 1236 437 1288 494 1330 c 0
 551 1372 608 1403 665 1426 c 0
 722 1449 773 1460 821 1460 c 0
 867 1460 909 1455 946 1444 c 1
 956 1464 969 1481 986 1494 c 0
 1003 1507 1021 1515 1040 1516 c 0
 1062 1520 1082 1514 1100 1500 c 0
 1118 1486 1126 1465 1126 1438 c 0
 1126 1418 1125 1397 1122 1377 c 0
 1119 1357 1116 1338 1113 1319 c 0
 1110 1300 1107 1284 1104 1272 c 0
 1101 1260 1098 1245 1094 1229 c 0
 1090 1213 1086 1202 1085 1198 c 0
 1078 1169 1062 1140 1036 1111 c 0
 1010 1082 987 1066 965 1063 c 0
 960 1062 956 1062 951 1062 c 0
 932 1062 914 1068 899 1082 c 0
 884 1095 877 1113 877 1133 c 0
 877 1139 878 1145 879 1151 c 0
 882 1162 889 1191 903 1237 c 0
 902 1238 897 1242 888 1250 c 0
 879 1258 872 1264 868 1267 c 0
 864 1270 858 1275 849 1280 c 0
 840 1285 831 1289 823 1291 c 0
 815 1293 807 1294 797 1294 c 0
 757 1294 711 1280 660 1253 c 0
 609 1226 557 1188 504 1137 c 0
 451 1086 399 1029 351 963 c 0
 303 897 259 823 219 740 c 0
 179 657 151 575 133 492 c 0
 125 456 121 419 121 384 c 0
 121 361 123 338 126 315 c 0
 135 258 155 211 187 175 c 0
 219 139 259 121 305 121 c 0
 346 121 387 125 428 134 c 0
 469 143 507 155 541 169 c 0
 575 183 605 198 631 212 c 0
 657 226 682 242 705 258 c 0
 724 270 740 280 754 287 c 0
 768 294 782 297 796 297 c 0
 810 297 821 293 831 283 c 0
 845 269 852 253 852 236 c 0
 852 206 831 171 788 131 c 0
EndSplineSet
Validated: 1
EndChar

StartChar: D
Encoding: 68 68 47
Width: 1036
GlyphClass: 2
Flags: HMW
HStem: -63 176<489 513> 1421 41G<362 383>
LayerCount: 2
Fore
SplineSet
487 -63 m 0
 424 -63 363 -60 304 -54 c 0
 245 -48 198 -41 164 -33 c 0
 130 -25 100 -17 75 -10 c 0
 50 -3 35 0 31 0 c 0
 5 0 -14 10 -26 28 c 0
 -32 38 -35 50 -35 64 c 0
 -35 76 -33 89 -29 104 c 0
 -10 170 18 287 55 454 c 0
 92 621 130 802 170 997 c 0
 186 1073 198 1124 203 1148 c 0
 208 1172 217 1209 231 1260 c 0
 245 1311 253 1341 256 1352 c 0
 266 1389 281 1417 303 1435 c 0
 325 1453 349 1462 375 1462 c 0
 391 1462 411 1461 436 1458 c 0
 461 1455 492 1450 531 1442 c 0
 570 1434 609 1422 648 1408 c 0
 687 1394 728 1374 770 1348 c 0
 812 1322 852 1291 887 1257 c 0
 922 1223 955 1180 984 1129 c 0
 1013 1078 1036 1023 1052 962 c 0
 1066 906 1073 840 1073 764 c 0
 1073 757 1073 751 1073 744 c 0
 1072 660 1059 570 1036 473 c 0
 1025 425 1008 377 985 328 c 0
 962 279 932 230 897 183 c 0
 862 136 823 94 781 57 c 0
 739 20 693 -9 642 -31 c 0
 591 -53 539 -63 487 -63 c 0
291 713 m 0
 279 654 261 565 237 447 c 0
 213 329 195 240 184 180 c 1
 230 155 281 138 335 128 c 0
 389 118 452 113 526 113 c 0
 561 113 598 126 635 151 c 0
 672 176 705 209 735 249 c 0
 765 289 792 334 815 382 c 0
 838 430 855 478 866 524 c 0
 881 592 890 656 890 715 c 0
 890 880 830 1012 709 1112 c 0
 650 1160 561 1209 442 1260 c 1
 442 1262 l 1
 440 1262 l 1
 438 1262 l 1
 436 1264 l 1
 434 1264 l 1
 432 1266 l 1
 430 1266 l 1
 428 1266 l 1
 428 1268 l 1
 426 1268 l 1
 424 1268 l 1
 422 1270 l 1
 420 1270 l 1
 418 1270 l 1
 418 1272 l 1
 373 1095 331 908 291 713 c 0
EndSplineSet
Validated: 1
EndChar

StartChar: E
Encoding: 69 69 48
Width: 1036
GlyphClass: 2
Flags: HMW
HStem: -36 179 -12 185 639 176<209 294> 680 166<853 918> 1258 169
LayerCount: 2
Fore
SplineSet
719 -12 m 0x48
 715 -12 710 -12 704 -12 c 0
 676 -12 625 -14 551 -19 c 0
 461 -25 362 -31 256 -36 c 0
 199 -39 148 -40 105 -40 c 0
 68 -40 36 -39 10 -37 c 0
 -19 -36 -44 -20 -66 9 c 0
 -84 34 -93 63 -93 97 c 0
 -93 103 -93 110 -92 117 c 0
 -88 152 -75 216 -54 308 c 0
 -33 400 -10 498 15 602 c 0
 40 706 66 822 92 952 c 0
 110 1034 122 1088 128 1115 c 0
 134 1142 144 1181 158 1233 c 0
 172 1285 180 1317 184 1329 c 0
 194 1366 209 1394 231 1413 c 0
 253 1432 277 1442 303 1442 c 0
 305 1442 306 1442 308 1442 c 0
 339 1442 361 1430 373 1407 c 1
 448 1418 534 1424 632 1427 c 0
 681 1428 727 1430 770 1430 c 0
 813 1430 853 1428 890 1427 c 0
 964 1424 1023 1420 1065 1415 c 0
 1094 1411 1112 1403 1122 1391 c 0
 1132 1379 1133 1361 1128 1339 c 0
 1125 1327 1122 1316 1117 1305 c 0
 1112 1294 1107 1284 1099 1275 c 0
 1091 1266 1081 1258 1069 1253 c 0
 1057 1248 1042 1246 1026 1249 c 0
 939 1256 852 1260 763 1260 c 0
 731 1260 700 1259 668 1258 c 0
 546 1255 440 1247 350 1233 c 1
 312 1091 278 952 248 815 c 1xa8
 341 815 469 820 631 830 c 0
 793 840 884 846 903 846 c 0
 933 846 953 839 962 825 c 0
 971 811 972 793 967 768 c 0
 954 709 921 680 868 680 c 0
 867 680 865 680 864 680 c 0x18
 841 680 741 673 566 659 c 0
 391 645 272 639 209 639 c 1
 202 609 193 569 182 521 c 0
 171 473 163 431 155 396 c 0
 147 361 140 326 132 289 c 0
 124 252 119 222 116 198 c 0
 113 174 112 157 113 147 c 1
 131 141 171 139 235 139 c 0
 281 139 339 140 409 143 c 0xa8
 576 150 684 159 733 170 c 0
 752 173 768 174 781 173 c 0
 794 172 805 170 813 165 c 0
 821 160 827 155 831 150 c 0
 835 145 839 137 840 128 c 0
 841 119 842 111 842 104 c 0
 842 97 841 91 840 84 c 0
 835 58 821 34 800 14 c 0
 781 -4 758 -13 730 -13 c 0
 726 -13 723 -12 719 -12 c 0x48
EndSplineSet
Validated: 1
EndChar

StartChar: F
Encoding: 70 70 49
Width: 1036
GlyphClass: 2
Flags: HMW
HStem: 647 176 1268 178
LayerCount: 2
Fore
SplineSet
96 49 m 0
 86 20 69 -2 42 -19 c 0
 17 -35 -8 -43 -33 -43 c 0
 -35 -43 -37 -43 -39 -43 c 0
 -65 -43 -83 -33 -95 -15 c 0
 -101 -5 -105 7 -105 21 c 0
 -105 33 -102 46 -98 61 c 0
 -80 121 -53 237 -15 407 c 0
 23 577 59 752 94 932 c 0
 113 1023 126 1085 134 1116 c 0
 142 1147 153 1190 167 1243 c 0
 181 1296 192 1333 197 1352 c 0
 207 1389 222 1417 244 1435 c 0
 266 1453 289 1462 315 1462 c 0
 318 1462 322 1463 325 1463 c 0
 355 1463 376 1450 387 1427 c 1
 514 1437 641 1443 768 1446 c 0
 800 1447 830 1447 859 1447 c 0
 945 1447 1018 1444 1077 1438 c 0
 1106 1435 1125 1427 1134 1414 c 0
 1143 1401 1145 1383 1141 1360 c 0
 1136 1334 1123 1312 1105 1294 c 0
 1087 1276 1061 1268 1030 1268 c 0
 960 1272 887 1273 812 1273 c 0
 671 1273 520 1266 362 1253 c 1
 357 1230 348 1193 334 1142 c 0
 320 1091 307 1038 294 985 c 0
 281 932 268 878 256 823 c 1
 315 830 378 834 448 834 c 0
 460 834 471 834 483 834 c 0
 566 833 641 828 707 822 c 0
 773 816 824 810 862 803 c 0
 891 798 910 788 919 776 c 0
 928 764 930 747 926 725 c 0
 923 713 919 701 914 691 c 0
 909 681 903 672 895 662 c 0
 887 652 877 645 865 640 c 0
 853 635 839 634 823 635 c 0
 786 642 734 647 666 652 c 0
 598 657 520 659 433 660 c 0
 427 660 422 661 416 661 c 0
 337 661 271 656 217 647 c 1
 143 285 103 86 96 49 c 0
EndSplineSet
Validated: 1
EndChar

StartChar: G
Encoding: 71 71 50
Width: 1036
GlyphClass: 2
Flags: HMW
HStem: -63 184<218 322> 1317 166<806 816>
LayerCount: 2
Fore
SplineSet
879 500 m 0
 869 471 853 437 831 399 c 0
 809 361 784 321 753 278 c 0
 722 235 687 193 647 153 c 0
 607 113 566 76 524 43 c 0
 482 10 436 -16 386 -36 c 0
 339 -55 294 -64 252 -64 c 0
 249 -64 247 -63 244 -63 c 0
 192 -63 145 -54 103 -35 c 0
 61 -16 28 10 2 41 c 0
 -24 72 -44 109 -59 151 c 0
 -74 193 -83 237 -84 284 c 0
 -84 289 -84 294 -84 299 c 0
 -84 341 -80 384 -70 426 c 0
 -47 527 -14 625 28 721 c 0
 70 817 115 903 164 979 c 0
 213 1055 267 1126 326 1189 c 0
 385 1252 443 1306 501 1349 c 0
 559 1392 616 1425 673 1448 c 0
 730 1471 781 1483 829 1483 c 0
 882 1483 939 1470 998 1443 c 0
 1057 1416 1094 1393 1108 1374 c 0
 1118 1360 1123 1344 1123 1327 c 0
 1123 1306 1116 1283 1102 1257 c 0
 1094 1239 1079 1227 1058 1219 c 0
 1037 1211 1017 1211 999 1219 c 0
 992 1222 977 1231 953 1249 c 0
 929 1267 905 1282 879 1296 c 0
 853 1310 828 1317 805 1317 c 0
 765 1317 720 1303 668 1275 c 0
 616 1247 563 1207 510 1154 c 0
 457 1101 405 1042 356 975 c 0
 307 908 263 833 223 748 c 0
 183 663 154 578 135 492 c 0
 127 456 123 419 123 384 c 0
 123 361 125 338 128 315 c 0
 137 258 157 211 189 175 c 0
 221 139 261 121 307 121 c 0
 337 121 371 132 409 153 c 0
 447 174 482 200 515 233 c 0
 548 266 581 303 613 344 c 0
 645 385 673 425 697 463 c 0
 721 501 741 536 756 569 c 1
 675 565 595 558 516 547 c 0
 437 536 381 522 348 504 c 0
 336 498 326 495 316 495 c 0
 305 495 296 499 287 506 c 0
 271 520 263 538 266 561 c 0
 270 613 304 653 367 682 c 0
 408 701 488 716 609 726 c 0
 695 733 769 737 828 737 c 0
 852 737 873 736 893 735 c 0
 924 734 944 728 954 718 c 0
 964 708 968 692 967 670 c 0
 962 619 940 587 905 575 c 0
 904 571 900 561 893 543 c 0
 886 525 882 511 879 500 c 0
EndSplineSet
Validated: 1
EndChar

StartChar: H
Encoding: 72 72 51
Width: 1036
GlyphClass: 2
Flags: HMW
HStem: 639 176<248 324>
LayerCount: 2
Fore
SplineSet
809 49 m 0
 799 20 782 -2 756 -19 c 0
 732 -35 707 -43 682 -43 c 0
 680 -43 678 -43 676 -43 c 0
 650 -43 632 -33 620 -15 c 0
 614 -5 610 7 610 21 c 0
 610 33 612 46 616 61 c 0
 672 251 727 464 780 700 c 1
 758 699 679 689 540 669 c 0
 401 649 304 639 248 639 c 0
 247 635 245 627 242 617 c 0
 239 607 237 600 236 596 c 0
 198 461 155 278 109 49 c 0
 99 20 81 -2 54 -19 c 0
 29 -35 5 -43 -19 -43 c 0
 -21 -43 -23 -43 -25 -43 c 0
 -50 -43 -68 -33 -81 -15 c 0
 -88 -5 -91 7 -91 21 c 0
 -91 33 -89 46 -84 61 c 0
 -79 80 -70 112 -59 154 c 0
 -48 196 -34 253 -18 324 c 0
 -2 395 13 459 27 516 c 0
 38 562 54 629 77 716 c 0
 100 803 115 866 125 908 c 2
 168 1096 l 2
 180 1157 189 1196 193 1213 c 0
 197 1230 203 1254 211 1284 c 2
 229 1352 l 2
 239 1389 255 1417 278 1435 c 0
 301 1453 324 1462 350 1462 c 0
 352 1462 354 1462 356 1462 c 0
 382 1462 402 1455 415 1439 c 0
 424 1428 428 1413 428 1394 c 0
 428 1383 427 1371 424 1358 c 0
 421 1344 412 1315 398 1270 c 0
 384 1225 373 1183 365 1145 c 0
 357 1110 345 1055 329 982 c 0
 313 909 301 853 291 815 c 1
 358 815 428 819 500 827 c 0
 572 835 637 844 696 852 c 0
 755 860 796 865 819 868 c 1
 820 878 823 892 826 910 c 0
 829 928 833 942 836 952 c 0
 855 1037 867 1093 872 1120 c 0
 877 1147 888 1190 903 1247 c 0
 918 1304 928 1340 932 1352 c 0
 942 1389 957 1417 979 1435 c 0
 1001 1453 1025 1462 1051 1462 c 0
 1053 1462 1055 1462 1057 1462 c 0
 1083 1462 1102 1455 1115 1439 c 0
 1124 1428 1129 1413 1129 1394 c 0
 1129 1383 1127 1371 1124 1358 c 0
 1119 1332 1105 1279 1085 1198 c 0
 1065 1117 1047 1047 1033 986 c 0
 1019 925 1000 838 975 723 c 0
 956 627 926 502 885 346 c 0
 844 190 819 91 809 49 c 0
EndSplineSet
Validated: 1
EndChar

StartChar: I
Encoding: 73 73 52
Width: 1036
GlyphClass: 2
Flags: HMW
HStem: -29 164 -13 160 1253 182 1280 170<273 328 311 328 311 565>
LayerCount: 2
Fore
SplineSet
750 -23 m 0x60
 719 -18 665 -14 591 -13 c 0x60
 576 -13 561 -13 546 -13 c 0
 487 -13 429 -14 371 -16 c 0
 299 -19 222 -22 141 -25 c 0
 60 -28 4 -29 -27 -29 c 0
 -60 -29 -82 -22 -95 -8 c 0
 -108 6 -112 23 -107 45 c 0
 -103 70 -91 91 -72 108 c 0
 -53 125 -27 134 6 135 c 0
 61 138 155 141 289 145 c 1
 356 378 416 626 471 887 c 0
 481 936 491 982 501 1026 c 0
 511 1070 518 1101 522 1120 c 0
 526 1139 534 1169 546 1209 c 0
 558 1249 564 1273 565 1280 c 1
 508 1281 456 1282 410 1282 c 0
 364 1282 324 1281 289 1280 c 0
 258 1280 235 1288 222 1303 c 0
 209 1318 205 1337 209 1360 c 0
 213 1385 226 1405 246 1423 c 0
 266 1441 294 1450 328 1450 c 0x90
 435 1453 534 1455 625 1455 c 0
 807 1455 958 1449 1077 1436 c 0
 1123 1431 1147 1410 1147 1373 c 0
 1147 1366 1146 1360 1145 1352 c 0
 1142 1340 1138 1328 1132 1316 c 0
 1126 1304 1118 1293 1109 1282 c 0
 1100 1271 1089 1262 1075 1256 c 0
 1061 1250 1046 1249 1030 1253 c 0
 995 1260 904 1268 758 1276 c 1
 755 1265 747 1235 734 1184 c 0
 721 1133 711 1093 703 1063 c 0
 695 1033 686 990 674 934 c 0
 662 878 649 823 637 768 c 0
 617 671 588 551 550 406 c 0
 512 261 490 174 483 147 c 1
 539 147 603 147 674 146 c 0
 745 145 783 145 788 145 c 0
 818 145 838 138 846 124 c 0
 854 110 856 91 852 68 c 0
 849 56 846 44 842 34 c 0
 838 24 831 13 823 3 c 0
 815 -7 805 -14 792 -19 c 0
 779 -24 765 -26 750 -23 c 0x60
EndSplineSet
Validated: 1
EndChar

StartChar: J
Encoding: 74 74 53
Width: 1036
GlyphClass: 2
Flags: HMW
HStem: -72 207<278 293> 1280 170<242 295>
VStem: -78 179 -51 158
LayerCount: 2
Fore
SplineSet
614 440 m 0xe0
 576 317 539 217 501 141 c 0
 463 65 426 10 389 -23 c 0
 352 -56 313 -72 272 -72 c 0
 228 -72 189 -63 152 -47 c 0
 115 -31 83 -9 58 18 c 0
 33 45 11 76 -8 108 c 0
 -27 140 -42 172 -52 204 c 0
 -62 236 -70 265 -74 290 c 0
 -78 315 -79 335 -78 350 c 0xe0
 -78 362 -75 377 -70 394 c 0
 -65 411 -58 427 -51 442 c 0
 -44 457 -33 470 -19 482 c 0
 -5 494 13 501 33 504 c 0
 40 505 47 506 53 506 c 0
 73 506 87 499 97 486 c 0
 105 475 110 462 110 447 c 0
 110 439 109 431 107 422 c 0xd0
 107 421 101 392 101 361 c 0
 101 341 104 319 110 294 c 0
 116 266 125 240 138 217 c 0
 151 194 172 175 199 159 c 0
 226 143 259 135 297 135 c 0
 342 135 396 254 459 492 c 0
 466 522 486 618 521 780 c 0
 556 942 594 1109 635 1278 c 1
 551 1280 472 1282 398 1282 c 0
 349 1282 302 1281 258 1280 c 0
 227 1280 204 1288 190 1303 c 0
 176 1318 173 1337 178 1360 c 0
 182 1385 195 1405 216 1423 c 0
 237 1441 264 1450 295 1450 c 0
 402 1453 501 1455 592 1455 c 0
 775 1455 927 1449 1047 1436 c 0
 1093 1431 1116 1410 1116 1373 c 0
 1116 1366 1115 1360 1114 1352 c 0
 1111 1340 1107 1328 1101 1316 c 0
 1095 1304 1087 1293 1077 1282 c 0
 1067 1271 1056 1262 1042 1256 c 0
 1028 1250 1014 1249 999 1253 c 0
 957 1260 890 1267 799 1272 c 1
 789 1232 777 1173 761 1092 c 0
 745 1011 731 937 718 871 c 0
 705 805 689 731 670 650 c 0
 651 569 632 499 614 440 c 0xe0
EndSplineSet
Validated: 1
EndChar

StartChar: K
Encoding: 75 75 54
Width: 1036
GlyphClass: 2
Flags: HW
HStem: -43 43G<3 17 748 770> 1421 41G<357 371>
LayerCount: 2
Fore
SplineSet
133 49 m 0
 123 20 106 -2 79 -19 c 0
 54 -35 29 -43 4 -43 c 0
 2 -43 0 -43 -2 -43 c 0
 -28 -43 -46 -33 -58 -15 c 0
 -64 -5 -68 7 -68 21 c 0
 -68 33 -65 46 -61 61 c 0
 -43 121 -15 237 23 407 c 0
 61 577 98 752 133 932 c 0
 151 1019 163 1078 170 1109 c 0
 177 1140 188 1184 204 1242 c 0
 220 1300 229 1337 233 1352 c 0
 243 1389 259 1417 281 1435 c 0
 303 1453 326 1462 352 1462 c 0
 354 1462 357 1462 359 1462 c 0
 385 1462 404 1455 417 1439 c 0
 426 1428 430 1413 430 1394 c 0
 430 1383 429 1371 426 1358 c 0
 419 1325 402 1254 373 1143 c 0
 344 1032 321 940 303 868 c 1
 360 916 446 988 561 1085 c 0
 676 1182 767 1259 834 1316 c 0
 901 1373 944 1407 963 1421 c 0
 985 1439 1004 1451 1022 1457 c 0
 1040 1463 1054 1464 1066 1461 c 0
 1078 1458 1088 1451 1096 1440 c 0
 1103 1429 1107 1416 1107 1403 c 0
 1107 1372 1085 1336 1044 1296 c 0
 1019 1271 936 1197 792 1072 c 0
 648 947 521 838 410 745 c 1
 441 696 496 619 575 515 c 0
 654 411 723 319 781 240 c 0
 817 190 873 115 873 82 c 0
 873 59 867 38 857 20 c 0
 845 0 831 -16 813 -27 c 0
 795 -38 778 -44 762 -44 c 0
 735 -44 711 -27 692 8 c 0
 682 26 648 74 589 150 c 0
 530 226 465 310 396 402 c 0
 327 494 278 568 248 623 c 1
 238 582 l 2
 234 559 199 381 133 49 c 0
EndSplineSet
Validated: 1
EndChar

StartChar: L
Encoding: 76 76 55
Width: 1036
GlyphClass: 2
Flags: HMW
HStem: -18 166
LayerCount: 2
Fore
SplineSet
895 20 m 0
 805 2 671 -10 494 -18 c 0
 317 -26 186 -31 104 -31 c 0
 78 -31 60 -21 48 -3 c 0
 42 7 39 20 39 34 c 0
 39 46 41 59 45 74 c 0
 48 85 73 163 121 308 c 0
 169 453 212 594 250 729 c 0
 268 790 295 903 330 1067 c 0
 365 1231 384 1319 387 1333 c 0
 397 1370 412 1398 435 1417 c 0
 458 1436 481 1446 506 1446 c 0
 508 1446 510 1446 512 1446 c 0
 538 1446 557 1438 571 1422 c 0
 580 1412 585 1398 585 1380 c 0
 585 1369 584 1355 580 1341 c 0
 570 1301 557 1248 539 1180 c 0
 521 1112 498 1026 471 922 c 0
 444 818 420 727 401 651 c 0
 386 594 362 510 329 401 c 0
 296 292 272 207 258 147 c 1
 267 147 276 147 286 147 c 0
 386 147 502 154 634 167 c 0
 778 181 875 195 926 209 c 0
 942 213 956 212 967 207 c 0
 978 202 985 193 990 182 c 0
 995 171 997 159 998 146 c 0
 999 133 998 122 997 111 c 0
 992 86 982 66 967 51 c 0
 952 36 928 25 895 20 c 0
EndSplineSet
Validated: 1
EndChar

StartChar: M
Encoding: 77 77 56
Width: 1036
GlyphClass: 2
Flags: HMW
HStem: -20 43G<-37 -25>
VStem: 311 199 756 182
LayerCount: 2
Fore
SplineSet
86 121 m 0
 78 77 62 42 37 17 c 0
 12 -8 -12 -20 -37 -20 c 0
 -67 -19 -82 3 -82 49 c 0
 -82 71 -79 98 -72 131 c 0
 -68 147 -59 175 -46 215 c 0
 -33 255 -16 307 4 371 c 0
 24 435 42 491 57 539 c 0
 61 555 69 580 80 614 c 0
 110 715 135 794 153 851 c 0
 171 908 194 978 221 1063 c 0
 248 1148 272 1215 291 1263 c 0
 310 1311 326 1345 340 1364 c 0
 359 1393 384 1413 414 1426 c 0
 439 1437 461 1443 481 1443 c 0
 485 1443 490 1442 494 1442 c 0
 551 1442 580 1417 580 1366 c 0
 580 1361 580 1355 580 1349 c 0
 580 1288 573 1194 561 1068 c 0
 547 929 530 771 508 594 c 0
 486 417 472 299 465 242 c 1
 522 435 577 608 629 762 c 0
 666 875 708 989 754 1104 c 0
 800 1219 837 1306 866 1366 c 0
 876 1386 890 1403 909 1416 c 0
 928 1429 947 1437 965 1440 c 0
 983 1443 1000 1443 1016 1442 c 2
 1024 1442 l 1
 1050 1442 l 2
 1056 1442 1064 1440 1075 1437 c 0
 1086 1434 1095 1428 1101 1423 c 0
 1107 1418 1112 1410 1116 1398 c 0
 1120 1386 1121 1372 1120 1356 c 0
 1116 1315 1085 1115 1026 756 c 0
 967 397 938 193 938 147 c 0
 937 65 911 14 860 -8 c 0
 848 -13 836 -16 825 -16 c 0
 812 -16 801 -12 790 -5 c 0
 770 8 759 36 756 80 c 0
 756 83 755 87 755 91 c 0
 755 201 824 596 961 1276 c 1
 879 1078 814 897 766 735 c 0
 718 579 668 432 616 292 c 0
 564 152 529 66 510 35 c 0
 488 2 448 -14 391 -14 c 0
 365 -15 346 -12 332 -2 c 0
 318 8 311 21 311 39 c 0
 311 105 321 254 340 490 c 0
 359 726 379 951 399 1167 c 1
 353 1020 l 2
 336 965 322 918 310 878 c 0
 298 838 281 777 258 698 c 0
 235 619 217 559 205 518 c 0
 189 461 171 402 152 341 c 0
 133 280 117 233 106 198 c 0
 95 163 89 137 86 121 c 0
EndSplineSet
Validated: 1
EndChar

StartChar: N
Encoding: 78 78 57
Width: 1036
GlyphClass: 2
Flags: HW
HStem: -25 43G<-43 -30>
LayerCount: 2
Fore
SplineSet
680 -29 m 0
 655 -30 637 -25 624 -15 c 0
 611 -5 603 9 600 27 c 0
 595 54 578 114 550 207 c 0
 522 300 493 397 464 497 c 0
 435 597 405 710 376 834 c 0
 347 958 327 1064 319 1151 c 1
 292 1002 262 863 231 735 c 0
 200 607 167 476 132 343 c 0
 97 210 77 129 72 100 c 0
 64 56 49 24 26 4 c 0
 5 -15 -18 -25 -42 -25 c 0
 -44 -25 -45 -25 -47 -25 c 0
 -73 -25 -88 -13 -92 10 c 0
 -93 17 -94 25 -94 34 c 0
 -94 55 -91 81 -84 113 c 0
 -79 140 -52 246 -6 430 c 0
 40 614 81 775 115 913 c 0
 149 1051 178 1184 203 1311 c 0
 207 1338 215 1361 227 1380 c 0
 239 1399 254 1413 270 1422 c 0
 286 1431 303 1438 319 1441 c 0
 335 1444 352 1445 367 1442 c 0
 423 1442 452 1417 455 1366 c 0
 460 1276 495 1110 560 868 c 0
 625 626 682 432 731 283 c 1
 765 411 809 598 864 843 c 0
 919 1088 950 1249 958 1327 c 0
 962 1360 975 1387 996 1410 c 0
 1017 1433 1040 1444 1065 1444 c 0
 1079 1444 1090 1442 1100 1439 c 0
 1110 1436 1116 1431 1121 1426 c 0
 1126 1421 1129 1414 1130 1403 c 0
 1131 1392 1133 1382 1132 1373 c 0
 1131 1364 1129 1350 1128 1331 c 0
 1127 1309 1104 1199 1059 1002 c 0
 1014 805 964 601 910 389 c 0
 856 177 819 56 797 23 c 0
 777 -11 737 -29 680 -29 c 0
EndSplineSet
Validated: 1
EndChar

StartChar: O
Encoding: 79 79 58
Width: 1036
GlyphClass: 2
Flags: HMW
HStem: -49 172<307 309> 1305 166<694 717>
LayerCount: 2
Fore
SplineSet
283 -49 m 0
 205 -48 141 -22 90 28 c 0
 39 78 7 144 -7 228 c 0
 -12 259 -15 291 -15 324 c 0
 -15 381 -8 441 8 504 c 0
 9 511 12 523 16 539 c 0
 30 600 41 649 51 686 c 0
 61 723 75 773 93 834 c 0
 111 895 133 954 156 1009 c 0
 179 1064 204 1116 233 1165 c 0
 286 1254 360 1327 454 1384 c 0
 548 1441 643 1470 743 1470 c 0
 794 1470 841 1460 883 1439 c 0
 925 1418 960 1388 988 1348 c 0
 1016 1308 1036 1257 1046 1196 c 0
 1051 1166 1053 1135 1053 1102 c 0
 1053 1067 1050 1028 1044 989 c 0
 1033 921 1019 848 1002 770 c 0
 985 692 965 614 941 534 c 0
 917 454 894 390 872 344 c 0
 842 280 809 224 774 178 c 0
 739 132 703 94 667 65 c 0
 631 36 591 12 549 -5 c 0
 507 -22 465 -34 423 -40 c 0
 381 -46 335 -49 283 -49 c 0
322 123 m 0
 356 123 390 127 424 136 c 0
 458 145 491 159 524 179 c 0
 557 199 589 225 620 258 c 0
 651 291 676 329 698 373 c 0
 706 391 721 432 742 496 c 0
 763 560 786 636 809 725 c 0
 832 814 850 901 864 987 c 0
 868 1013 870 1038 870 1062 c 0
 870 1120 859 1170 835 1213 c 0
 802 1274 751 1305 684 1305 c 0
 616 1305 553 1278 494 1224 c 0
 435 1170 384 1094 340 997 c 0
 281 867 235 714 201 537 c 0
 193 493 186 453 183 416 c 0
 181 393 180 370 180 347 c 0
 180 333 180 319 181 305 c 0
 183 268 189 237 199 210 c 0
 209 183 224 162 245 146 c 0
 266 130 292 123 322 123 c 0
EndSplineSet
Validated: 1
EndChar

StartChar: P
Encoding: 80 80 59
Width: 1036
GlyphClass: 2
Flags: HMW
HStem: 471 168<449 467 449 501> 1290 166<646 750>
LayerCount: 2
Fore
SplineSet
164 49 m 0
 159 20 143 -1 116 -17 c 0
 92 -31 66 -39 41 -39 c 0
 39 -39 37 -39 35 -39 c 0
 8 -39 -13 -30 -26 -13 c 0
 -33 -4 -36 7 -36 21 c 0
 -36 33 -34 46 -29 61 c 0
 -24 83 -15 116 -4 159 c 0
 7 202 19 255 33 318 c 0
 47 381 60 444 72 503 c 0
 84 562 99 635 117 721 c 0
 135 807 150 879 162 936 c 0
 181 1025 209 1142 246 1288 c 1
 238 1298 l 2
 233 1314 233 1332 240 1349 c 0
 247 1366 256 1381 270 1395 c 0
 284 1409 297 1416 311 1419 c 0
 360 1430 430 1439 520 1446 c 0
 610 1453 673 1456 707 1456 c 0
 793 1456 866 1440 926 1407 c 0
 986 1374 1028 1324 1053 1258 c 0
 1067 1221 1073 1180 1073 1135 c 0
 1073 1100 1069 1062 1061 1022 c 0
 1043 946 1015 874 976 806 c 0
 937 738 892 680 841 631 c 0
 790 582 732 543 667 514 c 0
 602 485 535 471 467 471 c 0
 367 471 291 479 238 494 c 1
 227 437 217 382 208 329 c 0
 199 276 190 222 181 165 c 0
 172 108 167 69 164 49 c 0
668 1290 m 0
 624 1290 543 1285 424 1274 c 1
 417 1247 404 1196 385 1122 c 0
 366 1048 347 973 328 895 c 0
 309 817 290 742 274 668 c 1
 318 649 372 639 436 639 c 0
 440 639 445 639 449 639 c 0
 486 639 520 642 551 647 c 0
 582 652 610 660 635 670 c 0
 660 680 683 692 705 708 c 0
 727 724 745 739 760 755 c 0
 775 771 789 789 802 810 c 0
 815 831 826 850 834 867 c 0
 842 884 849 904 857 927 c 0
 865 950 870 968 874 982 c 0
 878 996 884 1014 889 1034 c 0
 894 1057 896 1079 896 1099 c 0
 896 1112 895 1126 893 1138 c 0
 888 1169 877 1193 861 1211 c 0
 845 1229 827 1245 804 1257 c 0
 781 1269 758 1278 735 1283 c 0
 712 1288 690 1290 668 1290 c 0
EndSplineSet
Validated: 1
EndChar

StartChar: Q
Encoding: 81 81 60
Width: 1036
GlyphClass: 2
Flags: HMW
HStem: -49 172<299 389> 1305 166<692 715>
LayerCount: 2
Fore
SplineSet
694 -422 m 0
 679 -431 664 -436 649 -436 c 0
 642 -436 634 -434 627 -432 c 0
 605 -425 587 -410 575 -385 c 0
 563 -360 544 -315 517 -248 c 0
 490 -181 465 -113 440 -43 c 1
 413 -47 384 -50 352 -50 c 0
 344 -50 336 -49 328 -49 c 0
 271 -49 220 -39 178 -20 c 0
 136 -1 101 25 74 59 c 0
 47 93 25 134 11 181 c 0
 -4 231 -11 284 -11 341 c 0
 -11 392 -6 447 6 504 c 0
 58 769 133 986 231 1157 c 0
 284 1247 358 1322 452 1381 c 0
 546 1440 641 1470 741 1470 c 0
 793 1470 840 1461 881 1442 c 0
 922 1423 956 1395 984 1358 c 0
 1012 1321 1031 1271 1041 1208 c 0
 1046 1178 1049 1145 1049 1110 c 0
 1049 1072 1046 1032 1040 989 c 0
 1028 895 1005 780 971 644 c 0
 937 508 904 405 874 334 c 0
 813 187 726 81 614 18 c 1
 630 -22 649 -61 668 -102 c 0
 687 -143 705 -182 723 -217 c 0
 741 -252 753 -277 760 -289 c 0
 765 -304 765 -320 758 -338 c 0
 751 -356 741 -372 729 -388 c 0
 717 -404 705 -415 694 -422 c 0
199 537 m 0
 191 490 186 445 186 404 c 0
 186 377 188 351 191 327 c 0
 200 265 220 215 250 178 c 0
 280 141 320 123 369 123 c 2
 389 123 l 1
 373 184 361 232 356 266 c 0
 354 279 354 293 354 305 c 0
 354 366 374 410 414 438 c 0
 428 448 441 454 455 456 c 0
 469 458 480 453 490 443 c 0
 500 433 507 417 508 397 c 0
 515 329 531 255 557 174 c 1
 621 214 672 278 709 365 c 0
 717 385 731 426 749 488 c 0
 767 550 788 628 811 721 c 0
 834 814 851 902 862 987 c 0
 865 1013 867 1039 867 1062 c 0
 867 1125 855 1177 831 1219 c 0
 798 1276 749 1305 682 1305 c 0
 612 1305 547 1278 488 1225 c 0
 429 1172 378 1097 336 1001 c 0
 272 859 226 705 199 537 c 0
EndSplineSet
Validated: 1
EndChar

StartChar: R
Encoding: 82 82 61
Width: 1036
GlyphClass: 2
Flags: HW
HStem: -39 43G<38 53 764 789> 1421 41G<359 373>
VStem: 895 181<838 1063>
LayerCount: 2
Fore
SplineSet
162 49 m 0
 157 20 141 -1 115 -17 c 0
 91 -31 66 -39 40 -39 c 0
 38 -39 35 -39 33 -39 c 0
 7 -39 -13 -30 -27 -13 c 0
 -35 -4 -38 8 -38 22 c 0
 -38 33 -36 46 -31 61 c 0
 -9 132 7 193 19 243 c 0
 31 293 58 415 100 610 c 0
 105 636 120 692 143 777 c 0
 166 862 185 944 199 1020 c 0
 209 1066 219 1129 232 1208 c 0
 245 1287 254 1336 258 1352 c 2
 260 1364 l 2
 264 1390 278 1413 301 1432 c 0
 322 1453 345 1462 372 1462 c 0
 374 1462 375 1462 377 1462 c 0
 402 1462 420 1457 434 1446 c 1
 538 1441 630 1426 711 1402 c 0
 792 1378 856 1348 905 1313 c 0
 954 1278 993 1237 1022 1192 c 0
 1051 1147 1068 1102 1073 1057 c 0
 1075 1041 1076 1024 1076 1007 c 0
 1076 978 1073 950 1067 920 c 0
 1059 886 1047 854 1032 825 c 0
 1017 796 1000 772 980 751 c 0
 960 730 936 710 908 694 c 0
 880 678 851 664 821 652 c 0
 791 640 757 631 717 622 c 0
 677 613 639 606 601 601 c 0
 563 596 521 592 473 588 c 1
 585 517 679 434 755 339 c 0
 757 337 891 167 891 89 c 0
 891 67 886 47 876 29 c 0
 864 9 848 -8 829 -20 c 0
 813 -31 797 -37 781 -37 c 0
 764 -35 l 0
 742 -30 725 -13 713 14 c 0
 699 43 678 78 650 120 c 0
 622 162 588 208 547 259 c 0
 506 310 457 361 401 411 c 0
 345 461 289 500 233 530 c 1
 218 451 203 358 189 250 c 0
 175 142 166 75 162 49 c 0
371 1020 m 0
 368 1005 363 984 355 959 c 0
 347 934 341 912 335 892 c 0
 329 872 320 845 309 810 c 0
 298 775 290 750 285 735 c 1
 300 732 319 731 343 731 c 0
 361 731 380 731 403 733 c 0
 455 736 500 739 538 742 c 0
 576 745 612 751 649 757 c 0
 686 763 717 770 742 778 c 0
 767 786 791 797 812 809 c 0
 833 821 850 836 863 853 c 0
 876 870 886 889 891 911 c 0
 894 923 895 935 895 947 c 0
 895 973 889 998 877 1022 c 0
 859 1057 833 1089 799 1116 c 0
 765 1143 725 1168 679 1191 c 0
 633 1214 589 1231 546 1245 c 0
 503 1259 462 1270 422 1278 c 1
 402 1178 385 1092 371 1020 c 0
EndSplineSet
Validated: 1
EndChar

StartChar: S
Encoding: 83 83 62
Width: 1036
GlyphClass: 2
Flags: HMW
HStem: -59 174<277 285> 1294 156 1321 162<786 786>
LayerCount: 2
Fore
SplineSet
-80 135 m 0xa0
 -83 149 -84 163 -84 175 c 0
 -84 194 -81 211 -74 225 c 0
 -63 248 -46 267 -23 279 c 0
 -7 286 7 290 17 293 c 0
 27 296 38 296 48 295 c 0
 58 294 68 289 76 279 c 0
 84 269 92 256 100 238 c 0
 114 201 138 171 173 148 c 0
 208 125 251 115 303 115 c 0
 333 115 366 119 401 128 c 0
 436 137 473 151 508 169 c 0
 543 187 577 208 608 233 c 0
 639 258 666 288 689 321 c 0
 712 354 727 389 735 426 c 0
 739 446 742 465 744 481 c 0
 746 497 746 516 743 535 c 0
 740 554 735 571 727 587 c 0
 719 603 705 618 687 634 c 0
 669 650 647 664 621 676 c 0
 595 688 561 700 521 710 c 0
 481 720 436 728 385 733 c 0
 341 738 303 752 270 772 c 0
 237 792 213 818 197 847 c 0
 181 876 170 907 165 939 c 0
 163 952 162 966 162 979 c 0
 162 998 164 1017 168 1036 c 0
 179 1082 196 1127 221 1170 c 0
 246 1213 277 1254 317 1292 c 0
 357 1330 402 1364 451 1392 c 0
 500 1420 557 1442 621 1458 c 0
 685 1474 751 1483 821 1483 c 0xa0
 855 1483 901 1480 959 1474 c 0
 1017 1468 1057 1460 1077 1450 c 0
 1099 1440 1113 1425 1118 1405 c 0
 1120 1397 1121 1389 1121 1380 c 0
 1121 1367 1119 1353 1114 1339 c 0
 1109 1323 1101 1310 1090 1300 c 0
 1079 1290 1067 1285 1055 1284 c 0
 1043 1283 1031 1282 1021 1283 c 0
 1011 1284 1000 1286 989 1290 c 0
 988 1290 984 1291 977 1294 c 0xc0
 957 1299 940 1305 928 1308 c 0
 916 1311 895 1314 866 1317 c 0
 837 1320 805 1321 768 1321 c 0
 711 1321 654 1311 597 1293 c 0
 540 1275 492 1247 450 1210 c 0
 408 1173 383 1132 373 1087 c 0
 370 1073 368 1060 368 1047 c 0
 368 1011 381 979 406 952 c 0
 440 915 495 896 573 893 c 0
 643 889 703 877 754 857 c 0
 805 837 842 813 869 785 c 0
 896 757 916 725 929 687 c 0
 942 649 948 612 948 575 c 0
 948 538 944 501 934 461 c 0
 919 398 895 339 862 284 c 0
 829 229 790 180 746 138 c 0
 702 96 653 61 599 31 c 0
 545 1 489 -22 430 -37 c 0
 371 -52 313 -59 256 -59 c 0
 167 -59 93 -41 32 -3 c 0
 -29 35 -66 80 -80 135 c 0xa0
EndSplineSet
Validated: 1
EndChar

StartChar: T
Encoding: 84 84 63
Width: 1036
GlyphClass: 2
Flags: HMW
HStem: 1253 182<876 943> 1272 164
LayerCount: 2
Fore
SplineSet
342 68 m 0x80
 332 39 315 16 289 -2 c 0
 265 -18 240 -27 215 -27 c 0
 213 -27 211 -27 209 -27 c 0
 183 -27 164 -17 152 1 c 0
 145 11 142 23 142 37 c 0
 142 50 145 64 150 80 c 0
 169 141 210 331 274 650 c 0
 338 969 381 1176 403 1272 c 1x40
 239 1280 146 1286 121 1290 c 0
 67 1299 41 1320 41 1352 c 0
 41 1358 41 1364 43 1370 c 0
 47 1396 60 1420 82 1440 c 0
 98 1455 117 1463 138 1463 c 0
 145 1463 152 1462 160 1460 c 0
 227 1448 483 1440 928 1436 c 0
 958 1436 977 1427 987 1411 c 0
 997 1395 999 1375 995 1352 c 0
 990 1325 976 1300 956 1280 c 0
 938 1262 917 1253 891 1253 c 0
 888 1253 885 1253 881 1253 c 0
 871 1253 776 1257 594 1264 c 1
 531 985 447 587 342 68 c 0x80
EndSplineSet
Validated: 1
EndChar

StartChar: U
Encoding: 85 85 64
Width: 1036
GlyphClass: 2
Flags: HMW
HStem: -59 186<250 371> 1411 41G<249 289>
VStem: -67 187
LayerCount: 2
Fore
SplineSet
918 532 m 0
 902 471 880 413 854 359 c 0
 828 305 800 259 771 219 c 0
 742 179 710 144 676 112 c 0
 642 80 607 53 572 32 c 0
 537 11 502 -6 466 -20 c 0
 430 -34 395 -44 362 -50 c 0
 329 -56 298 -59 268 -59 c 0
 231 -59 195 -54 160 -43 c 0
 125 -32 89 -14 56 13 c 0
 23 40 -5 74 -26 114 c 0
 -47 154 -61 206 -67 271 c 0
 -69 289 -69 307 -69 326 c 0
 -69 376 -63 430 -51 489 c 0
 35 904 98 1186 139 1335 c 0
 149 1372 165 1401 188 1421 c 0
 211 1441 236 1452 262 1452 c 0
 302 1452 322 1432 322 1393 c 0
 322 1380 319 1365 315 1348 c 0
 209 885 148 605 133 508 c 0
 126 470 122 433 121 399 c 0
 121 393 120 387 120 381 c 0
 120 353 123 325 128 298 c 0
 134 265 145 235 160 210 c 0
 175 185 196 165 224 150 c 0
 252 135 286 127 326 127 c 0
 417 127 498 159 569 224 c 0
 640 289 695 388 735 520 c 0
 753 577 773 650 794 737 c 0
 815 824 833 902 848 970 c 0
 863 1038 879 1109 895 1185 c 0
 911 1261 922 1305 926 1319 c 0
 933 1349 940 1374 949 1394 c 0
 958 1414 968 1428 980 1436 c 0
 992 1444 1002 1449 1011 1451 c 0
 1020 1453 1030 1454 1044 1454 c 0
 1069 1454 1087 1444 1098 1424 c 0
 1104 1413 1107 1399 1107 1383 c 0
 1107 1371 1106 1356 1102 1341 c 0
 1064 1128 1003 858 918 532 c 0
EndSplineSet
Validated: 1
EndChar

StartChar: V
Encoding: 86 86 65
Width: 1036
GlyphClass: 2
Flags: HMW
VStem: 8 180
LayerCount: 2
Fore
SplineSet
322 55 m 0
 297 1 259 -25 211 -25 c 0
 208 -25 205 -25 201 -25 c 0
 145 -25 113 0 106 49 c 0
 87 195 66 422 41 731 c 0
 19 1009 8 1188 8 1269 c 0
 8 1278 8 1285 8 1292 c 0
 9 1374 35 1426 84 1448 c 0
 96 1453 108 1455 119 1455 c 0
 132 1455 144 1452 155 1445 c 0
 175 1432 185 1404 188 1360 c 0
 188 1352 191 1308 196 1229 c 0
 201 1150 205 1071 209 995 c 0
 213 919 218 833 224 737 c 0
 230 641 237 552 242 468 c 0
 247 384 252 315 256 262 c 1
 339 414 458 635 612 924 c 0
 766 1213 844 1359 844 1360 c 0
 867 1402 893 1430 921 1444 c 0
 937 1452 950 1455 964 1455 c 0
 975 1455 985 1453 995 1448 c 0
 1007 1441 1017 1430 1023 1416 c 0
 1029 1402 1031 1384 1029 1363 c 0
 1027 1342 1017 1318 999 1292 c 0
 954 1221 844 1027 668 708 c 0
 492 389 377 171 322 55 c 0
EndSplineSet
Validated: 1
EndChar

StartChar: W
Encoding: 87 87 66
Width: 1036
GlyphClass: 2
Flags: HMW
HStem: -23 43G<21 27 27 35>
VStem: 942 156
LayerCount: 2
Fore
SplineSet
186 53 m 0
 176 33 162 16 142 4 c 0
 122 -8 103 -16 85 -19 c 0
 67 -22 50 -24 35 -23 c 2
 27 -23 l 2
 16 -23 7 -22 -0 -21 c 0
 -7 -20 -16 -19 -27 -16 c 0
 -38 -13 -46 -9 -51 -4 c 0
 -56 1 -62 10 -66 22 c 0
 -70 34 -71 48 -70 64 c 0
 -70 65 -66 107 -60 190 c 0
 -54 273 -47 348 -39 414 c 0
 -17 571 26 864 90 1294 c 0
 104 1380 134 1434 182 1454 c 0
 194 1459 207 1461 219 1460 c 0
 231 1459 243 1455 253 1450 c 0
 263 1445 270 1434 273 1418 c 0
 276 1402 275 1384 270 1364 c 0
 250 1286 203 996 131 492 c 0
 124 446 115 382 105 301 c 0
 95 220 89 172 86 154 c 1
 101 195 129 274 169 391 c 0
 209 508 246 615 278 709 c 0
 310 803 345 904 383 1011 c 0
 421 1118 453 1206 480 1276 c 0
 507 1346 527 1389 539 1407 c 0
 561 1440 599 1456 655 1456 c 0
 681 1457 701 1454 715 1444 c 0
 729 1434 735 1421 735 1403 c 0
 735 1380 732 1339 727 1280 c 0
 722 1221 716 1164 710 1109 c 0
 704 1054 694 975 682 873 c 0
 670 771 660 694 653 639 c 0
 643 558 632 425 618 238 c 1
 684 431 764 688 858 1010 c 0
 906 1172 934 1276 942 1321 c 0
 950 1365 966 1399 990 1424 c 0
 1013 1448 1036 1460 1059 1460 c 0
 1060 1460 1062 1460 1063 1460 c 0
 1094 1459 1109 1437 1109 1393 c 0
 1109 1371 1106 1344 1098 1311 c 0
 1082 1240 1051 1132 1006 989 c 0
 965 857 934 761 915 702 c 0
 896 643 868 557 831 443 c 0
 794 329 764 241 740 180 c 0
 716 119 697 77 682 57 c 0
 663 28 638 8 608 -6 c 0
 583 -17 560 -23 540 -23 c 0
 536 -23 532 -23 528 -23 c 0
 471 -23 441 2 440 53 c 0
 440 183 456 357 487 575 c 0
 495 634 512 739 535 889 c 0
 558 1039 573 1142 580 1198 c 1
 510 978 435 750 355 513 c 0
 275 276 219 123 186 53 c 0
EndSplineSet
Validated: 1
EndChar

StartChar: X
Encoding: 88 88 67
Width: 1036
GlyphClass: 2
Flags: HW
VStem: 214 194<1285 1416>
LayerCount: 2
Fore
SplineSet
41 0 m 0
 21 -22 1 -36 -17 -43 c 0
 -35 -50 -51 -51 -63 -46 c 0
 -75 -41 -86 -32 -96 -20 c 0
 -107 -6 -112 9 -112 26 c 0
 -112 55 -98 90 -68 129 c 0
 -54 147 20 234 152 391 c 0
 284 548 378 663 434 735 c 1
 227 1266 l 2
 218 1289 214 1310 214 1329 c 0
 214 1366 230 1396 262 1419 c 0
 277 1430 293 1438 310 1443 c 0
 327 1448 346 1446 364 1438 c 0
 382 1430 397 1414 408 1391 c 0
 437 1334 497 1164 590 883 c 1
 803 1167 936 1339 991 1399 c 0
 1010 1421 1030 1436 1048 1444 c 0
 1066 1452 1083 1455 1097 1452 c 0
 1111 1449 1123 1444 1133 1434 c 0
 1143 1424 1148 1413 1150 1400 c 0
 1152 1387 1150 1371 1145 1352 c 0
 1140 1333 1129 1313 1114 1294 c 0
 1100 1278 1032 1194 910 1042 c 0
 788 890 703 786 657 727 c 1
 653 723 l 2
 650 720 649 718 649 717 c 0
 668 664 702 563 749 415 c 0
 796 267 828 173 846 133 c 0
 857 108 863 88 864 70 c 0
 865 52 864 37 859 25 c 0
 854 13 846 1 834 -10 c 0
 819 -24 803 -34 788 -40 c 0
 773 -46 756 -46 736 -38 c 0
 716 -30 698 -15 682 10 c 0
 664 39 645 83 625 143 c 0
 605 203 581 281 554 375 c 0
 527 469 508 535 496 573 c 1
 440 510 354 403 238 251 c 0
 122 99 56 15 41 0 c 0
EndSplineSet
Validated: 1
EndChar

StartChar: Y
Encoding: 89 89 68
Width: 1036
GlyphClass: 2
Flags: HMW
HStem: 1423 41G<995 1008>
VStem: 76 205
LayerCount: 2
Fore
SplineSet
309 -25 m 0
 291 -51 269 -68 242 -77 c 0
 233 -80 225 -81 217 -81 c 0
 200 -81 184 -74 170 -61 c 0
 160 -51 153 -41 148 -27 c 0
 143 -13 142 2 145 20 c 0
 148 38 158 58 174 78 c 2
 293 502 l 1
 281 551 263 614 239 692 c 0
 215 770 198 823 190 852 c 0
 180 885 166 931 147 991 c 0
 128 1051 113 1103 101 1147 c 0
 89 1191 81 1234 76 1278 c 0
 75 1288 74 1299 74 1308 c 0
 74 1327 77 1344 82 1359 c 0
 90 1382 101 1399 113 1413 c 0
 125 1427 140 1437 156 1444 c 0
 168 1449 181 1453 195 1454 c 0
 209 1455 221 1454 233 1449 c 0
 245 1444 256 1433 264 1417 c 0
 272 1401 278 1380 281 1354 c 0
 282 1327 285 1299 288 1272 c 0
 291 1245 295 1222 298 1204 c 0
 301 1186 307 1161 315 1128 c 0
 323 1095 329 1076 332 1068 c 0
 335 1060 341 1037 353 999 c 0
 365 961 371 941 371 940 c 0
 396 859 414 779 428 700 c 1
 435 708 453 736 483 784 c 0
 512 826 560 895 626 991 c 0
 692 1087 741 1161 772 1214 c 0
 782 1230 798 1256 822 1289 c 0
 846 1322 863 1348 874 1366 c 0
 888 1389 903 1408 919 1424 c 0
 935 1440 949 1451 963 1456 c 0
 977 1461 989 1464 1001 1464 c 0
 1013 1464 1024 1461 1034 1456 c 0
 1042 1451 1050 1444 1057 1435 c 0
 1064 1426 1068 1415 1070 1401 c 0
 1072 1387 1071 1371 1066 1352 c 0
 1061 1333 1052 1311 1038 1288 c 0
 1027 1272 1008 1244 980 1205 c 0
 952 1166 930 1135 915 1110 c 0
 897 1081 863 1030 810 958 c 0
 757 886 716 826 686 780 c 0
 653 729 613 670 566 602 c 0
 519 534 510 479 482 438 c 4
 454 397 447 369 410 204 c 4
 379 66 335 12 309 -25 c 0
EndSplineSet
Validated: 1
EndChar

StartChar: Z
Encoding: 90 90 69
Width: 1036
GlyphClass: 2
Flags: HMW
HStem: -18 190<457 752> 1260 190 1267 159
LayerCount: 2
Fore
SplineSet
854 78 m 0xa0
 849 51 836 27 817 9 c 0
 798 -9 770 -18 733 -18 c 0
 725 -18 666 -16 555 -13 c 0
 444 -10 344 -8 253 -7 c 0
 235 -7 217 -7 198 -7 c 0
 123 -7 44 -8 -39 -10 c 0
 -62 -10 -78 3 -88 30 c 0
 -94 47 -97 63 -97 79 c 0
 -97 88 -96 97 -94 106 c 0
 -87 139 -45 207 33 309 c 0
 92 387 219 541 416 770 c 0
 613 999 760 1167 858 1272 c 1
 792 1271 691 1269 554 1267 c 0xa0
 417 1265 326 1263 281 1260 c 0
 279 1260 277 1259 275 1259 c 0
 250 1259 232 1268 224 1284 c 0
 219 1295 216 1307 216 1321 c 0
 216 1329 217 1339 219 1348 c 0
 223 1374 239 1397 267 1418 c 0
 295 1439 325 1450 356 1450 c 0xc0
 385 1450 423 1446 471 1438 c 0
 519 1430 559 1425 590 1425 c 0
 646 1425 702 1426 759 1428 c 0
 816 1430 880 1435 952 1440 c 0
 1024 1445 1065 1448 1075 1448 c 0
 1097 1449 1113 1439 1124 1418 c 0
 1131 1404 1135 1388 1135 1371 c 0
 1135 1362 1135 1353 1133 1343 c 0
 1132 1332 1120 1316 1098 1294 c 0
 1076 1272 1051 1249 1022 1222 c 0
 993 1195 972 1173 958 1157 c 0
 903 1089 821 991 710 865 c 0
 599 739 490 613 385 489 c 0
 280 365 193 255 123 158 c 1
 266 168 398 172 517 172 c 0
 636 172 723 168 776 160 c 0
 809 153 831 143 843 130 c 0
 855 117 858 100 854 78 c 0xa0
EndSplineSet
Validated: 1
EndChar

StartChar: bracketleft
Encoding: 91 91 70
Width: 1036
GlyphClass: 2
Flags: HMW
HStem: -168 160<423 619> 1569 170
LayerCount: 2
Fore
SplineSet
565 -174 m 0
 532 -170 492 -168 446 -168 c 0
 400 -168 357 -169 317 -171 c 0
 277 -173 232 -175 179 -178 c 0
 126 -181 84 -182 53 -182 c 0
 22 -182 0 -176 -14 -162 c 0
 -28 -148 -33 -129 -29 -106 c 0
 -26 -94 -21 -82 -14 -68 c 2
 -8 -47 l 2
 14 23 47 150 93 334 c 0
 139 518 181 703 221 887 c 0
 229 931 239 979 251 1034 c 0
 263 1089 276 1145 290 1204 c 0
 304 1263 317 1314 328 1357 c 0
 339 1400 351 1447 365 1500 c 0
 379 1553 386 1583 387 1593 c 2
 391 1606 l 2
 388 1617 388 1630 391 1645 c 0
 395 1670 408 1690 428 1708 c 0
 448 1726 475 1735 508 1735 c 0
 608 1738 697 1739 777 1739 c 0
 857 1739 930 1740 997 1743 c 0
 1027 1743 1048 1734 1058 1718 c 0
 1068 1702 1071 1682 1067 1659 c 0
 1064 1648 1060 1636 1053 1624 c 0
 1046 1612 1038 1600 1029 1589 c 0
 1020 1578 1009 1570 995 1565 c 0
 981 1560 967 1558 952 1561 c 0
 904 1568 831 1572 732 1572 c 0
 683 1572 627 1571 565 1569 c 1
 558 1540 540 1467 509 1348 c 0
 478 1229 453 1130 433 1051 c 0
 413 972 392 877 367 768 c 0
 351 686 317 544 269 343 c 0
 221 142 192 21 182 -20 c 1
 199 -20 217 -21 235 -21 c 0
 298 -21 367 -19 443 -15 c 0
 541 -10 594 -8 604 -8 c 0
 634 -8 654 -15 662 -29 c 0
 670 -43 672 -61 668 -86 c 0
 665 -98 661 -110 656 -120 c 0
 651 -130 645 -141 637 -151 c 0
 629 -161 618 -168 606 -172 c 0
 594 -176 580 -177 565 -174 c 0
EndSplineSet
Validated: 1
EndChar

StartChar: backslash
Encoding: 92 92 71
Width: 1036
GlyphClass: 2
Flags: HMW
VStem: 627 191
LayerCount: 2
Fore
SplineSet
532 365 m 0
 514 431 461 599 372 871 c 0
 283 1143 229 1314 213 1384 c 0
 210 1397 209 1410 209 1421 c 0
 209 1440 213 1458 220 1474 c 0
 232 1499 250 1518 276 1532 c 0
 294 1539 312 1542 330 1543 c 0
 348 1544 364 1539 378 1527 c 0
 392 1515 403 1499 408 1477 c 0
 454 1278 501 1100 547 944 c 0
 621 689 712 398 821 70 c 0
 825 55 828 39 828 23 c 0
 828 4 824 -17 818 -38 c 0
 806 -77 789 -103 766 -115 c 0
 752 -123 738 -127 724 -127 c 0
 684 -116 l 0
 657 -100 638 -73 627 -35 c 0
 620 -13 606 49 583 150 c 0
 560 251 543 323 532 365 c 0
EndSplineSet
Validated: 1
EndChar

StartChar: bracketright
Encoding: 93 93 72
Width: 1036
GlyphClass: 2
Flags: HMW
HStem: -168 160<65 187> 1569 174
LayerCount: 2
Fore
SplineSet
666 -106 m 0
 661 -129 648 -148 629 -162 c 0
 610 -176 584 -182 551 -182 c 0
 518 -182 477 -181 426 -178 c 0
 375 -175 331 -173 292 -171 c 0
 253 -169 210 -168 164 -168 c 0
 118 -168 76 -170 41 -174 c 0
 25 -177 11 -176 1 -172 c 0
 -9 -168 -15 -161 -18 -151 c 0
 -21 -141 -23 -130 -23 -120 c 0
 -23 -110 -21 -98 -18 -86 c 0
 -11 -63 -1 -44 13 -30 c 0
 27 -16 50 -8 80 -8 c 0
 90 -8 142 -10 238 -15 c 0
 312 -19 380 -21 443 -21 c 0
 461 -21 479 -20 496 -20 c 1
 506 21 533 142 577 343 c 0
 621 544 654 686 674 768 c 0
 701 879 723 973 740 1052 c 0
 757 1131 778 1229 802 1348 c 0
 826 1467 841 1540 848 1569 c 1
 787 1571 731 1571 682 1571 c 0
 583 1571 509 1568 457 1561 c 0
 441 1558 427 1560 416 1565 c 0
 405 1570 397 1578 392 1589 c 0
 387 1600 385 1611 384 1623 c 0
 383 1635 384 1647 387 1659 c 0
 394 1684 406 1703 424 1719 c 0
 442 1735 465 1743 494 1743 c 0
 560 1742 633 1741 715 1741 c 0
 797 1741 886 1739 983 1735 c 0
 1016 1735 1038 1726 1050 1708 c 0
 1057 1697 1061 1684 1061 1670 c 0
 1061 1662 1060 1654 1057 1645 c 0
 1054 1630 1048 1617 1040 1606 c 2
 1036 1593 l 2
 1035 1585 1029 1554 1018 1501 c 0
 1007 1448 997 1400 987 1357 c 0
 977 1314 966 1263 953 1204 c 0
 940 1145 927 1089 914 1034 c 0
 901 979 890 931 879 887 c 0
 833 703 790 518 750 334 c 0
 710 150 685 23 674 -47 c 2
 670 -68 l 2
 670 -82 669 -94 666 -106 c 0
EndSplineSet
Validated: 1
EndChar

StartChar: asciicircum
Encoding: 94 94 73
Width: 1036
GlyphClass: 2
Flags: HW
LayerCount: 2
Fore
SplineSet
217 1319 m 0
 212 1314 204 1306 193 1296 c 0
 155 1261 127 1238 111 1228 c 0
 95 1218 77 1217 61 1225 c 0
 51 1230 44 1238 37 1248 c 0
 30 1258 24 1271 20 1285 c 0
 16 1299 18 1316 25 1335 c 0
 32 1354 43 1374 61 1393 c 0
 94 1428 137 1471 191 1522 c 0
 245 1573 305 1630 370 1693 c 0
 435 1756 500 1824 567 1896 c 0
 583 1914 604 1926 627 1931 c 0
 638 1934 648 1935 658 1935 c 0
 669 1935 681 1933 691 1930 c 0
 711 1924 724 1912 729 1894 c 0
 760 1824 788 1766 813 1719 c 0
 838 1672 856 1638 870 1615 c 0
 884 1592 905 1561 932 1520 c 0
 959 1479 984 1440 1006 1405 c 0
 1017 1387 1021 1369 1019 1350 c 0
 1017 1331 1010 1313 998 1299 c 0
 986 1285 975 1273 961 1262 c 0
 947 1251 934 1242 920 1237 c 0
 900 1227 882 1228 870 1239 c 0
 858 1250 839 1275 813 1313 c 0
 806 1323 802 1329 799 1333 c 0
 743 1415 704 1474 684 1509 c 0
 664 1544 636 1601 602 1677 c 1
 557 1626 517 1584 482 1551 c 0
 447 1518 420 1494 400 1478 c 0
 380 1462 353 1440 319 1411 c 0
 285 1382 251 1352 217 1319 c 0
EndSplineSet
Validated: 1
EndChar

StartChar: underscore
Encoding: 95 95 74
Width: 1036
GlyphClass: 2
Flags: HMW
HStem: -205 174
LayerCount: 2
Fore
SplineSet
145 -31 m 0
 282 -32 391 -33 473 -33 c 0
 555 -33 646 -32 746 -31 c 0
 846 -30 909 -29 932 -29 c 0
 962 -29 981 -36 989 -51 c 0
 997 -66 999 -86 995 -111 c 0
 981 -170 947 -199 891 -199 c 0
 862 -199 746 -200 541 -202 c 0
 336 -204 191 -205 106 -205 c 0
 62 -205 41 -186 41 -148 c 0
 41 -139 42 -129 45 -117 c 0
 56 -60 88 -31 142 -31 c 0
 143 -31 144 -31 145 -31 c 0
EndSplineSet
Validated: 1
EndChar

StartChar: grave
Encoding: 96 96 75
Width: 1036
GlyphClass: 2
Flags: HMW
HStem: 1279 377
VStem: 314 410
LayerCount: 2
Fore
SplineSet
565 1298 m 0
 561 1301 545 1312 516 1332 c 0
 487 1352 466 1367 451 1378 c 0
 436 1389 416 1404 393 1422 c 0
 370 1440 351 1459 336 1475 c 0
 325 1487 317 1503 314 1521 c 0
 311 1539 311 1556 315 1572 c 0
 319 1588 326 1602 334 1616 c 0
 352 1636 376 1650 406 1656 c 0
 414 1658 421 1658 428 1658 c 0
 448 1658 466 1651 481 1638 c 0
 484 1634 498 1619 523 1592 c 0
 548 1565 567 1547 577 1536 c 0
 587 1525 603 1511 623 1493 c 0
 643 1475 662 1461 678 1450 c 0
 703 1434 718 1411 724 1383 c 0
 726 1375 726 1369 726 1362 c 0
 726 1344 721 1328 709 1315 c 0
 694 1296 673 1284 646 1279 c 0
 640 1278 635 1277 629 1277 c 0
 608 1277 587 1284 565 1298 c 0
EndSplineSet
Validated: 1
EndChar

StartChar: a
Encoding: 97 97 76
Width: 1036
GlyphClass: 2
Flags: HMW
HStem: -78 43G<842 887> -57 160<396 504> 465 178 860 184
LayerCount: 2
Fore
SplineSet
344 848 m 0x70
 367 874 394 899 424 922 c 0
 451 942 483 961 519 978 c 0
 555 995 599 1010 652 1024 c 0
 705 1038 763 1044 827 1044 c 0
 946 1041 1017 1009 1040 948 c 0
 1056 903 1065 850 1065 787 c 0
 1065 719 1055 640 1036 551 c 0
 1026 510 1006 423 973 291 c 0
 966 261 956 194 944 92 c 0
 932 -21 906 -78 868 -78 c 0xb0
 816 -78 791 -64 791 -37 c 0
 791 82 789 141 788 141 c 0
 729 66 672 13 616 -18 c 0
 571 -44 505 -57 416 -57 c 0
 376 -57 336 -46 294 -23 c 0
 252 0 221 37 198 85 c 0
 175 133 161 182 156 233 c 1
 164 268 177 307 195 348 c 0
 214 392 242 430 279 461 c 0
 328 505 361 531 379 539 c 0
 451 576 494 596 508 600 c 0
 612 629 665 643 668 643 c 0
 734 651 776 658 795 662 c 0
 802 663 834 674 893 696 c 1
 903 714 908 734 909 756 c 0
 909 766 906 778 901 793 c 0
 890 813 876 829 860 840 c 0
 845 851 816 857 772 860 c 0
 765 861 759 861 752 861 c 0
 725 861 697 857 668 848 c 0
 631 837 599 824 573 809 c 0
 547 794 526 780 510 768 c 0
 495 756 484 746 477 741 c 0
 433 694 395 670 363 670 c 0
 347 670 332 676 319 688 c 0
 301 704 292 723 292 744 c 0
 292 773 309 808 344 848 c 0x70
494 102 m 0x70
 516 102 538 107 562 115 c 0
 586 123 612 137 639 156 c 0
 666 175 692 197 716 224 c 0
 740 251 762 285 785 327 c 0
 808 369 826 414 840 465 c 1
 586 442 417 376 332 270 c 1
 347 209 367 165 394 140 c 0
 421 115 454 102 494 102 c 0x70
EndSplineSet
Validated: 1
EndChar

StartChar: b
Encoding: 98 98 77
Width: 1036
GlyphClass: 2
Flags: HMW
HStem: -29 176<425 479> 846 168
LayerCount: 2
Fore
SplineSet
975 537 m 0
 960 465 938 397 909 336 c 0
 880 275 849 222 814 178 c 0
 779 134 741 97 701 66 c 0
 661 35 621 11 580 -5 c 0
 539 -21 499 -29 459 -29 c 0
 353 -29 270 4 213 68 c 1
 202 35 188 12 171 -1 c 0
 154 -14 135 -22 113 -23 c 0
 111 -23 109 -23 107 -23 c 0
 64 -23 42 0 42 46 c 0
 42 59 43 73 47 90 c 0
 84 258 140 499 214 813 c 0
 288 1127 341 1342 371 1458 c 0
 381 1500 394 1530 412 1546 c 0
 430 1562 450 1572 473 1573 c 0
 477 1573 481 1573 484 1573 c 0
 507 1573 526 1565 538 1549 c 0
 546 1539 549 1525 549 1507 c 0
 549 1491 547 1472 541 1450 c 0
 538 1438 523 1370 494 1247 c 0
 465 1124 439 1016 416 922 c 1
 507 983 607 1014 713 1014 c 0
 789 1013 851 991 899 950 c 0
 947 909 977 853 990 781 c 0
 995 755 997 728 997 700 c 0
 997 649 990 596 975 537 c 0
631 846 m 0
 627 846 622 846 618 846 c 0
 541 846 460 812 375 745 c 1
 338 581 297 409 252 227 c 1
 271 198 297 178 329 166 c 0
 361 154 401 147 449 147 c 0
 534 147 606 181 666 248 c 0
 726 315 769 405 795 520 c 0
 803 557 806 592 806 625 c 0
 806 643 805 661 803 678 c 0
 796 726 778 766 749 797 c 0
 720 828 680 845 631 846 c 0
EndSplineSet
Validated: 1
EndChar

StartChar: c
Encoding: 99 99 78
Width: 1036
GlyphClass: 2
Flags: HMW
HStem: -63 184 895 184<664 785>
VStem: 764 195<721 851>
LayerCount: 2
Fore
SplineSet
958 815 m 0
 958 737 928 685 868 659 c 0
 854 654 842 651 831 650 c 0
 820 649 810 651 799 655 c 0
 788 659 779 668 773 681 c 0
 767 694 764 711 764 731 c 0
 764 738 764 749 763 765 c 0
 762 781 762 792 761 800 c 0
 760 808 759 816 757 828 c 0
 755 840 752 849 749 855 c 0
 746 861 740 867 734 874 c 0
 728 881 720 887 710 890 c 0
 700 893 688 895 674 895 c 0
 654 895 631 891 607 882 c 0
 583 873 556 858 527 837 c 0
 498 816 470 789 443 756 c 0
 416 723 391 681 365 628 c 0
 339 575 316 516 297 449 c 0
 280 388 272 335 272 291 c 0
 272 183 322 127 422 121 c 0
 429 121 436 120 443 120 c 0
 496 120 543 129 583 147 c 0
 629 167 658 191 672 217 c 0
 686 240 699 258 713 272 c 0
 727 286 740 295 753 299 c 0
 766 303 776 304 786 303 c 0
 796 302 806 299 817 295 c 0
 840 282 851 264 851 240 c 0
 851 215 838 183 813 145 c 0
 797 120 776 97 750 74 c 0
 724 51 692 28 655 6 c 0
 618 -16 574 -33 521 -46 c 0
 473 -58 424 -64 371 -64 c 0
 365 -64 360 -63 354 -63 c 0
 297 -62 248 -49 207 -24 c 0
 166 1 136 35 116 77 c 0
 96 119 84 165 81 218 c 0
 80 229 80 239 80 250 c 0
 80 293 85 336 96 381 c 0
 119 474 149 559 185 637 c 0
 221 715 261 781 304 835 c 0
 347 889 393 934 444 971 c 0
 495 1008 546 1035 598 1053 c 0
 650 1071 702 1079 754 1079 c 0
 817 1079 866 1053 903 1000 c 0
 940 947 958 886 958 815 c 0
EndSplineSet
Validated: 1
EndChar

StartChar: d
Encoding: 100 100 79
Width: 1036
GlyphClass: 2
Flags: HMW
HStem: -29 182<246 335> 868 178 1534 41G<975 1004>
LayerCount: 2
Fore
SplineSet
647 -18 m 0
 638 -20 630 -21 623 -21 c 0
 598 -21 581 -11 572 11 c 0
 565 29 561 51 561 78 c 0
 561 94 562 112 565 131 c 1
 546 109 528 90 510 72 c 0
 492 54 470 38 445 22 c 0
 420 6 392 -6 362 -15 c 0
 332 -24 300 -29 266 -29 c 0
 226 -29 190 -21 156 -5 c 0
 122 11 90 35 62 67 c 0
 34 99 13 137 -2 183 c 0
 -17 229 -25 284 -25 349 c 0
 -25 414 -15 484 4 559 c 0
 24 650 58 733 106 806 c 0
 154 879 213 937 282 980 c 0
 351 1023 424 1046 500 1047 c 0
 608 1047 693 1018 754 961 c 1
 814 1214 856 1376 879 1448 c 0
 905 1533 947 1575 1004 1575 c 0
 1030 1574 1047 1564 1057 1546 c 0
 1061 1539 1063 1529 1063 1517 c 0
 1063 1499 1059 1476 1051 1448 c 0
 1028 1366 988 1215 932 996 c 0
 876 777 835 611 809 498 c 0
 793 422 780 354 772 297 c 0
 764 240 760 199 759 175 c 0
 758 151 758 131 757 113 c 0
 756 95 753 80 748 68 c 0
 733 22 699 -7 647 -18 c 0
326 154 m 0
 345 154 364 156 382 160 c 0
 400 164 416 169 430 174 c 0
 444 179 458 188 473 199 c 0
 488 210 500 219 510 228 c 0
 520 237 531 249 544 264 c 0
 557 279 566 291 571 299 c 0
 576 307 586 320 598 336 c 0
 601 340 603 343 606 346 c 0
 609 361 614 383 620 410 c 0
 626 437 632 462 637 486 c 0
 642 510 648 533 653 555 c 0
 656 570 662 593 670 624 c 0
 678 655 684 677 688 692 c 0
 673 744 648 787 613 820 c 0
 580 852 540 868 495 868 c 0
 493 868 491 868 489 868 c 0
 438 865 392 848 348 817 c 0
 304 786 269 746 240 698 c 0
 211 650 190 598 176 541 c 0
 161 476 153 419 153 369 c 0
 153 325 159 288 171 256 c 0
 196 188 248 154 326 154 c 0
EndSplineSet
Validated: 1
EndChar

StartChar: e
Encoding: 101 101 80
Width: 1036
GlyphClass: 2
Flags: HMW
HStem: -57 168 907 160<618 717>
LayerCount: 2
Fore
SplineSet
801 123 m 0
 775 94 750 69 726 49 c 0
 702 29 672 10 637 -8 c 0
 602 -26 560 -39 513 -47 c 0
 473 -54 428 -58 379 -58 c 0
 371 -58 362 -57 354 -57 c 0
 237 -56 157 -7 115 89 c 0
 93 139 82 198 82 267 c 0
 82 331 92 404 111 485 c 0
 133 576 164 659 206 733 c 0
 248 807 294 868 345 916 c 0
 396 964 452 1002 513 1028 c 0
 574 1054 635 1067 698 1067 c 0
 735 1067 773 1055 811 1032 c 0
 849 1009 882 976 910 932 c 0
 938 888 953 842 956 791 c 0
 955 757 939 720 908 680 c 0
 877 640 847 610 817 590 c 0
 791 571 760 551 722 531 c 0
 684 511 642 492 596 472 c 0
 550 452 510 436 477 423 c 0
 444 410 403 394 353 376 c 0
 303 358 272 346 260 342 c 1
 259 326 258 310 258 295 c 0
 258 280 259 266 260 253 c 0
 263 226 270 202 280 181 c 0
 290 160 306 143 327 131 c 0
 348 119 375 112 406 111 c 0
 410 111 413 110 417 110 c 0
 444 110 472 115 502 123 c 0
 536 133 565 145 590 161 c 0
 615 177 634 190 649 202 c 0
 664 214 675 222 682 229 c 0
 723 276 759 300 788 300 c 0
 803 300 815 295 827 283 c 0
 843 267 852 248 852 227 c 0
 852 197 835 163 801 123 c 0
629 907 m 0
 609 907 587 903 564 895 c 0
 541 887 518 873 493 854 c 0
 468 835 444 812 421 785 c 0
 398 758 376 725 355 683 c 0
 334 641 317 596 303 547 c 1
 542 611 698 675 772 739 c 1
 760 800 742 844 719 869 c 0
 696 894 666 907 629 907 c 0
EndSplineSet
Validated: 1
EndChar

StartChar: f
Encoding: 102 102 81
Width: 1036
GlyphClass: 2
Flags: HMW
HStem: -35 182 825 176 844 168 1389 176
LayerCount: 2
Fore
SplineSet
551 -33 m 0xb0
 550 -33 510 -34 431 -35 c 0
 379 -36 329 -36 281 -36 c 0
 257 -36 234 -36 211 -36 c 0
 143 -35 88 -33 47 -29 c 0
 16 -29 -4 -19 -14 0 c 0
 -20 11 -23 24 -23 37 c 0
 -23 47 -21 57 -18 68 c 0
 -13 94 -2 115 16 132 c 0
 32 148 55 156 83 156 c 0
 85 156 88 156 90 156 c 0
 102 155 121 154 147 153 c 0
 173 152 193 152 205 152 c 1
 212 177 216 199 218 222 c 0
 220 245 224 271 231 301 c 0
 236 327 244 366 254 418 c 0
 264 470 276 539 292 626 c 0
 308 713 320 779 330 827 c 1
 308 826 279 825 242 825 c 0
 203 825 183 843 183 878 c 0
 183 888 185 900 188 913 c 0
 199 972 231 1003 283 1004 c 2
 367 1004 l 1xd0
 371 1026 377 1057 385 1098 c 0
 400 1164 423 1223 453 1276 c 0
 483 1329 517 1374 557 1409 c 0
 597 1444 640 1474 688 1498 c 0
 736 1522 785 1539 836 1550 c 0
 887 1561 938 1567 991 1567 c 0
 1016 1567 1035 1560 1048 1546 c 0
 1057 1536 1061 1523 1061 1507 c 0
 1061 1500 1061 1493 1059 1485 c 0
 1054 1458 1042 1434 1025 1416 c 0
 1008 1398 990 1389 971 1389 c 0
 866 1389 774 1360 698 1303 c 0
 622 1246 573 1170 553 1077 c 0
 546 1048 542 1025 539 1006 c 1
 725 1009 829 1010 852 1010 c 0
 879 1010 897 1003 905 989 c 0
 913 975 915 957 911 934 c 0
 897 874 866 844 815 844 c 0
 801 844 780 843 749 842 c 0
 718 841 678 839 629 837 c 0
 580 835 538 834 504 834 c 1
 497 799 480 709 453 568 c 0
 426 427 404 320 389 246 c 0
 377 185 371 151 371 147 c 0
 472 143 547 140 596 139 c 0
 625 139 644 132 655 118 c 0
 666 104 669 84 664 61 c 0
 659 35 646 13 626 -5 c 0
 606 -23 581 -33 551 -33 c 0xb0
EndSplineSet
Validated: 1
EndChar

StartChar: g
Encoding: 103 103 82
Width: 1036
GlyphClass: 2
Flags: HMW
HStem: -598 172<216 245> -63 180 870 172
LayerCount: 2
Fore
SplineSet
831 -86 m 0
 809 -154 782 -216 749 -272 c 0
 716 -328 678 -376 637 -416 c 0
 596 -456 552 -489 506 -517 c 0
 460 -545 413 -566 365 -579 c 0
 317 -592 269 -598 221 -598 c 0
 184 -598 149 -592 115 -580 c 0
 81 -568 53 -555 33 -541 c 0
 32 -540 28 -536 23 -532 c 0
 18 -528 13 -526 11 -525 c 0
 9 -524 6 -522 3 -518 c 0
 0 -514 -2 -511 -3 -510 c 0
 -4 -509 -5 -506 -8 -503 c 0
 -11 -500 -12 -497 -12 -494 c 0
 -12 -491 -12 -487 -13 -482 c 0
 -14 -477 -14 -473 -13 -468 c 0
 -12 -463 -11 -458 -10 -451 c 0
 -5 -424 8 -401 28 -383 c 0
 48 -365 66 -360 84 -365 c 0
 92 -366 104 -372 119 -383 c 0
 134 -394 151 -404 169 -413 c 0
 187 -422 206 -426 225 -426 c 0
 285 -426 346 -412 407 -383 c 0
 468 -354 521 -313 568 -258 c 0
 615 -203 651 -142 676 -74 c 0
 687 -45 702 6 721 78 c 1
 640 -16 536 -63 408 -63 c 0
 292 -60 216 -15 183 72 c 0
 168 111 161 159 161 215 c 0
 161 284 172 366 195 461 c 0
 215 543 242 617 275 683 c 0
 308 749 346 805 388 849 c 0
 430 893 475 930 524 959 c 0
 573 988 623 1010 674 1023 c 0
 725 1036 776 1042 829 1042 c 0
 892 1042 937 1039 963 1033 c 0
 989 1027 1013 1015 1036 999 c 0
 1046 992 1052 983 1053 969 c 0
 1054 955 1053 942 1049 928 c 0
 1045 914 1039 903 1032 895 c 0
 1032 894 1031 891 1028 888 c 0
 1025 885 1023 882 1022 881 c 1
 1043 875 1053 860 1053 835 c 0
 1053 826 1052 815 1049 803 c 0
 1049 800 1031 723 998 573 c 0
 965 423 935 297 909 193 c 0
 883 89 857 -4 831 -86 c 0
383 526 m 0
 372 482 362 441 353 401 c 0
 344 361 340 324 340 289 c 0
 340 254 343 223 351 197 c 0
 359 171 373 150 393 136 c 0
 412 123 434 117 461 117 c 0
 464 117 466 117 469 117 c 0
 503 118 536 124 568 136 c 0
 600 148 628 163 651 181 c 0
 674 199 696 221 716 246 c 0
 736 271 752 294 765 317 c 0
 778 340 789 364 799 389 c 0
 809 429 824 494 845 585 c 0
 866 676 883 745 895 791 c 0
 899 807 905 824 915 840 c 1
 905 842 l 1
 854 861 806 871 759 871 c 0
 753 871 747 870 741 870 c 0
 716 869 692 864 667 856 c 0
 642 848 615 834 586 816 c 0
 557 798 531 776 506 751 c 0
 481 726 458 693 436 655 c 0
 414 617 397 574 383 526 c 0
EndSplineSet
Validated: 1
EndChar

StartChar: h
Encoding: 104 104 83
Width: 1036
GlyphClass: 2
Flags: HMW
HStem: 848 193<713 857>
VStem: 350 10 397 184
LayerCount: 2
Fore
SplineSet
848 84 m 0
 838 42 822 10 797 -13 c 0
 774 -34 749 -45 725 -45 c 0
 724 -45 722 -45 721 -45 c 0
 698 -44 679 -32 665 -12 c 0
 655 2 650 18 650 37 c 0
 650 46 651 56 653 66 c 0
 661 104 680 178 708 289 c 0
 736 400 758 489 774 559 c 0
 789 629 797 687 797 732 c 0
 797 747 797 761 795 773 c 0
 788 823 766 848 731 848 c 0
 696 848 662 841 630 827 c 0
 598 813 570 796 545 776 c 0
 520 756 497 733 475 707 c 0
 453 681 436 655 422 630 c 0
 408 605 396 580 385 555 c 0
 374 530 365 511 360 497 c 0
 355 483 351 472 350 465 c 1
 350 467 l 1
 349 459 346 445 341 427 c 0
 336 409 333 395 330 385 c 0
 323 359 315 327 306 288 c 0
 297 249 291 219 286 199 c 0
 281 179 274 154 266 127 c 0
 258 100 251 74 244 49 c 0
 234 20 216 -2 190 -19 c 0
 166 -35 143 -43 120 -43 c 0
 118 -43 117 -43 115 -43 c 0
 90 -43 72 -33 60 -15 c 0
 54 -5 51 7 51 21 c 0
 51 33 53 46 57 61 c 0
 73 117 101 216 139 357 c 0
 177 498 202 595 213 647 c 0
 257 876 318 1147 397 1460 c 0
 407 1497 422 1525 443 1544 c 0
 464 1563 488 1573 514 1573 c 0
 516 1573 518 1573 520 1573 c 0
 544 1573 562 1565 574 1549 c 0
 582 1539 586 1525 586 1507 c 0
 586 1496 585 1482 582 1468 c 0
 547 1316 498 1106 438 834 c 1
 457 861 479 885 504 908 c 0
 529 931 557 953 590 974 c 0
 623 995 660 1011 702 1023 c 0
 744 1035 790 1040 838 1040 c 0
 878 1040 909 1030 933 1010 c 0
 957 990 972 961 979 924 c 0
 984 898 986 869 986 838 c 0
 986 826 986 813 985 800 c 0
 982 754 975 704 961 651 c 0
 942 569 921 466 898 341 c 0
 875 216 859 130 848 84 c 0
EndSplineSet
Validated: 1
EndChar

StartChar: i
Encoding: 105 105 84
Width: 1036
GlyphClass: 2
Flags: HMW
HStem: -35 176 827 168
LayerCount: 2
Fore
SplineSet
758 1141 m 0
 753 1141 748 1140 743 1140 c 0
 705 1140 677 1155 658 1184 c 0
 644 1206 637 1230 637 1257 c 0
 637 1271 639 1285 643 1300 c 0
 653 1341 676 1377 714 1407 c 0
 752 1437 789 1453 829 1456 c 0
 831 1456 833 1456 835 1456 c 0
 876 1456 906 1442 925 1414 c 0
 938 1394 945 1371 945 1345 c 0
 945 1332 943 1319 940 1305 c 0
 930 1261 909 1224 876 1194 c 0
 843 1164 803 1146 758 1141 c 0
823 -25 m 0
 803 -25 700 -27 514 -30 c 0
 328 -33 208 -35 152 -35 c 0
 123 -35 105 -26 98 -8 c 0
 95 1 93 10 93 21 c 0
 93 32 95 44 98 57 c 0
 103 83 114 104 129 119 c 0
 144 134 166 141 193 141 c 2
 469 141 l 1
 484 204 496 257 504 301 c 0
 511 336 517 371 525 404 c 0
 533 437 542 477 553 521 c 0
 564 565 572 596 577 614 c 0
 582 632 591 670 606 728 c 0
 621 786 630 819 633 827 c 1
 625 829 611 830 590 830 c 0
 574 830 554 829 531 828 c 0
 499 827 472 827 449 827 c 0
 434 827 421 826 410 827 c 0
 388 827 373 835 364 851 c 0
 355 867 353 885 358 905 c 0
 362 930 372 951 388 969 c 0
 404 987 423 995 446 995 c 0
 535 1002 618 1006 692 1006 c 0
 713 1006 734 1007 754 1006 c 0
 773 1006 788 1001 799 992 c 0
 810 983 816 971 818 956 c 0
 820 941 821 928 821 916 c 0
 821 904 820 895 817 887 c 0
 791 801 767 714 746 626 c 0
 725 538 708 462 695 399 c 0
 682 336 665 250 645 141 c 1
 866 141 l 2
 893 141 911 134 918 120 c 0
 925 106 925 86 918 61 c 0
 904 4 872 -25 823 -25 c 0
EndSplineSet
Validated: 1
EndChar

StartChar: j
Encoding: 106 106 85
Width: 1036
GlyphClass: 2
Flags: HMW
HStem: -588 184<10 77> 813 176<369 424> 1133 315
VStem: 793 286
LayerCount: 2
Fore
SplineSet
897 1133 m 0
 852 1133 821 1151 803 1186 c 0
 792 1208 786 1232 786 1259 c 0
 786 1275 789 1293 793 1311 c 0
 803 1352 824 1384 858 1409 c 0
 892 1434 929 1447 969 1448 c 0
 971 1448 972 1448 974 1448 c 0
 1015 1448 1045 1434 1064 1406 c 0
 1077 1387 1084 1364 1084 1338 c 0
 1084 1325 1081 1310 1078 1295 c 0
 1068 1251 1046 1213 1012 1181 c 0
 978 1149 939 1133 897 1133 c 0
561 -29 m 0
 564 -18 574 34 591 128 c 0
 608 222 627 316 647 412 c 0
 667 508 700 641 745 813 c 1
 729 812 697 811 650 811 c 0
 603 811 551 811 492 812 c 0
 433 813 397 813 383 813 c 0
 356 813 337 824 325 844 c 0
 318 857 314 871 314 886 c 0
 314 895 314 903 317 913 c 0
 321 933 333 952 353 967 c 0
 373 982 397 989 424 989 c 0
 466 992 540 995 644 998 c 0
 719 1000 781 1002 829 1002 c 0
 848 1002 866 1001 881 1001 c 0
 899 1001 913 997 924 987 c 0
 935 977 941 965 944 951 c 0
 947 937 948 924 948 912 c 0
 948 900 947 891 944 883 c 0
 939 869 932 850 924 827 c 0
 916 804 909 785 904 770 c 0
 899 755 895 738 891 719 c 0
 883 685 859 573 819 385 c 0
 779 197 748 50 723 -55 c 0
 709 -112 691 -166 668 -216 c 0
 645 -266 618 -309 589 -344 c 0
 560 -379 526 -411 489 -440 c 0
 452 -469 416 -492 378 -510 c 0
 340 -528 301 -543 259 -555 c 0
 217 -567 177 -576 139 -581 c 0
 101 -586 63 -588 23 -588 c 0
 -2 -588 -21 -580 -34 -566 c 0
 -47 -552 -50 -532 -43 -506 c 0
 -38 -479 -24 -454 -4 -434 c 0
 16 -414 36 -403 55 -403 c 0
 99 -403 141 -399 183 -390 c 0
 225 -381 266 -367 306 -348 c 0
 346 -329 384 -305 417 -276 c 0
 450 -247 480 -212 505 -170 c 0
 530 -128 549 -81 561 -29 c 0
EndSplineSet
Validated: 1
EndChar

StartChar: k
Encoding: 107 107 86
Width: 1036
GlyphClass: 2
Flags: HMW
VStem: 45 139
LayerCount: 2
Fore
SplineSet
236 66 m 0
 225 24 207 -7 184 -24 c 0
 164 -39 142 -46 118 -46 c 0
 114 -46 110 -45 106 -45 c 0
 83 -44 65 -34 51 -17 c 0
 43 -7 39 6 39 22 c 0
 39 33 41 46 45 61 c 0
 64 122 91 222 124 359 c 0
 157 496 188 625 216 745 c 0
 244 865 276 1006 312 1168 c 0
 348 1330 371 1430 381 1470 c 0
 389 1504 404 1530 427 1547 c 0
 450 1564 475 1573 502 1573 c 0
 527 1573 545 1564 558 1548 c 0
 566 1538 570 1525 570 1508 c 0
 570 1497 568 1486 565 1473 c 0
 524 1297 456 1019 362 639 c 1
 444 709 546 791 667 887 c 0
 788 983 854 1037 868 1049 c 0
 888 1068 908 1080 924 1086 c 0
 940 1092 954 1094 964 1090 c 0
 974 1086 982 1078 989 1067 c 0
 995 1056 999 1044 999 1031 c 0
 999 1000 980 966 942 926 c 0
 912 895 807 804 627 655 c 1
 639 606 664 535 703 442 c 0
 742 349 777 268 808 198 c 0
 836 133 850 94 850 81 c 0
 850 80 846 12 788 -27 c 0
 773 -37 759 -42 746 -44 c 0
 733 -46 721 -43 709 -35 c 0
 697 -27 687 -12 680 8 c 0
 676 19 663 47 642 93 c 2
 579 230 l 2
 558 276 537 328 517 386 c 0
 497 444 485 492 481 532 c 1
 303 385 l 2
 302 384 300 383 299 383 c 0
 287 332 275 273 263 204 c 0
 251 135 243 89 236 66 c 0
EndSplineSet
Validated: 1
EndChar

StartChar: l
Encoding: 108 108 87
Width: 1036
GlyphClass: 2
Flags: HMW
HStem: -57 176
VStem: 244 526
LayerCount: 2
Fore
SplineSet
729 0 m 0
 660 -27 591 -58 505 -58 c 0
 501 -58 498 -57 494 -57 c 0
 449 -56 409 -47 375 -30 c 0
 341 -13 312 11 289 40 c 0
 266 69 251 108 244 154 c 0
 241 172 240 190 240 210 c 0
 240 241 243 275 250 311 c 0
 253 333 259 367 271 413 c 0
 283 459 291 489 295 505 c 0
 299 521 306 549 318 591 c 0
 330 633 338 660 341 673 c 0
 344 686 353 712 365 752 c 0
 469 1088 469 1087 500 1313 c 0
 503 1335 512 1355 528 1375 c 0
 544 1395 564 1405 584 1405 c 0
 606 1405 627 1396 649 1378 c 0
 670 1361 680 1344 680 1326 c 0
 680 1320 646 1127 526 701 c 0
 510 643 499 604 494 584 c 0
 489 564 479 528 466 478 c 0
 453 428 445 399 444 390 c 0
 443 381 438 360 430 326 c 0
 426 306 425 287 425 270 c 0
 425 234 432 204 447 179 c 0
 470 141 508 121 563 119 c 0
 566 119 569 119 572 119 c 0
 641 119 701 150 772 182 c 0
 792 190 808 189 820 178 c 0
 832 167 837 148 836 121 c 0
 835 95 823 71 802 49 c 0
 781 27 756 11 729 0 c 0
EndSplineSet
Validated: 1
EndChar

StartChar: m
Encoding: 109 109 88
Width: 1036
GlyphClass: 2
Flags: HMW
HStem: 852 193
VStem: 246 119
LayerCount: 2
Fore
SplineSet
164 61 m 0
 159 39 151 21 142 5 c 0
 133 -11 124 -22 113 -30 c 0
 102 -38 92 -42 82 -44 c 0
 72 -46 61 -47 49 -47 c 0
 26 -46 9 -38 -1 -23 c 0
 -6 -15 -9 -4 -9 11 c 0
 -9 25 -7 41 -2 61 c 0
 1 73 4 92 8 116 c 0
 12 140 18 170 25 207 c 0
 32 244 38 275 43 301 c 0
 83 472 131 685 190 942 c 0
 201 988 220 1022 246 1044 c 0
 270 1065 295 1075 319 1075 c 0
 324 1075 l 0
 349 1075 365 1064 375 1044 c 0
 379 1036 380 1028 380 1017 c 0
 380 998 375 973 365 944 c 0
 361 933 354 916 346 893 c 0
 338 870 332 853 328 842 c 1
 415 977 507 1044 607 1044 c 0
 608 1044 609 1044 610 1044 c 0
 635 1044 652 1026 662 989 c 0
 669 960 673 924 673 880 c 0
 673 867 673 854 672 840 c 1
 768 977 873 1044 986 1044 c 0
 987 1044 988 1044 989 1044 c 0
 1018 1044 1035 1025 1043 985 c 0
 1046 969 1048 951 1048 930 c 0
 1048 900 1044 865 1038 826 c 0
 1027 760 1012 685 994 601 c 0
 976 517 956 431 933 344 c 0
 910 257 892 171 877 86 c 0
 872 59 864 35 856 17 c 0
 848 -1 839 -15 829 -24 c 0
 819 -33 811 -38 803 -41 c 0
 795 -44 784 -45 772 -45 c 0
 760 -45 749 -44 740 -42 c 0
 731 -40 723 -35 715 -26 c 0
 707 -17 701 -3 699 15 c 0
 698 20 699 26 699 32 c 0
 699 47 701 65 705 86 c 0
 713 132 724 187 740 250 c 0
 756 313 773 380 790 451 c 0
 807 522 822 587 836 646 c 0
 850 705 858 755 862 794 c 0
 866 833 864 852 854 852 c 0
 853 852 852 852 851 852 c 0
 819 852 786 833 751 793 c 0
 715 752 679 699 645 633 c 1
 631 557 607 455 572 328 c 0
 537 201 517 115 510 70 c 0
 506 45 500 24 492 8 c 0
 484 -8 474 -20 464 -28 c 0
 454 -36 443 -40 433 -43 c 0
 423 -46 412 -46 401 -45 c 0
 378 -45 361 -38 351 -23 c 0
 345 -14 342 1 342 21 c 0
 342 35 343 51 346 70 c 0
 354 114 375 190 406 299 c 0
 437 408 459 494 473 555 c 0
 476 567 479 583 483 602 c 0
 508 704 522 772 525 804 c 0
 528 836 522 852 504 852 c 0
 475 852 440 829 399 784 c 0
 358 739 320 686 283 625 c 1
 272 581 254 500 229 383 c 0
 218 335 205 274 191 199 c 0
 177 124 168 77 164 61 c 0
EndSplineSet
Validated: 1
EndChar

StartChar: n
Encoding: 110 110 89
Width: 1036
GlyphClass: 2
Flags: HMW
HStem: 854 190<705 829>
LayerCount: 2
Fore
SplineSet
254 61 m 0
 244 21 228 -7 205 -24 c 0
 185 -39 163 -46 140 -46 c 0
 136 -46 133 -45 129 -45 c 0
 107 -44 91 -34 80 -18 c 0
 73 -8 70 5 70 23 c 0
 70 34 71 47 74 61 c 0
 77 72 81 106 89 161 c 0
 97 216 104 263 111 301 c 0
 129 390 160 512 204 666 c 0
 248 820 274 909 279 934 c 0
 290 976 308 1007 334 1027 c 0
 358 1046 383 1055 407 1055 c 0
 412 1055 l 0
 438 1055 456 1045 468 1027 c 0
 473 1019 476 1008 476 994 c 0
 476 978 472 959 465 936 c 0
 457 907 449 884 444 868 c 1
 484 919 533 961 592 994 c 0
 651 1027 716 1044 788 1044 c 0
 870 1044 924 1010 949 941 c 0
 961 907 968 866 968 819 c 0
 968 770 961 714 948 651 c 0
 932 568 916 462 901 333 c 0
 886 204 875 119 870 78 c 0
 862 36 848 5 829 -15 c 0
 810 -35 789 -45 764 -45 c 0
 762 -45 761 -45 759 -45 c 0
 736 -45 716 -36 703 -18 c 0
 694 -6 690 11 690 34 c 0
 690 47 691 62 694 78 c 0
 695 90 704 154 720 271 c 0
 736 388 751 484 766 559 c 0
 784 654 793 724 793 768 c 0
 793 778 793 787 792 794 c 0
 787 834 763 854 719 854 c 0
 690 854 661 849 630 838 c 0
 599 827 572 813 547 796 c 0
 522 779 498 758 473 734 c 0
 448 710 428 688 411 667 c 0
 394 646 376 623 360 600 c 1
 338 522 321 450 307 383 c 0
 296 335 285 275 275 202 c 0
 265 129 258 81 254 61 c 0
307 502 m 1
 307 506 l 1
 307 502 l 1
EndSplineSet
Validated: 1
EndChar

StartChar: o
Encoding: 111 111 90
Width: 1036
GlyphClass: 2
Flags: HMW
HStem: -55 164 858 160<627 640>
VStem: 83 181
LayerCount: 2
Fore
SplineSet
360 -55 m 0
 303 -54 254 -38 212 -9 c 0
 170 20 139 58 119 106 c 0
 99 154 86 209 83 271 c 0
 82 281 82 292 82 302 c 0
 82 355 89 409 104 465 c 0
 122 543 148 615 182 683 c 0
 216 751 257 809 304 859 c 0
 351 909 406 948 467 976 c 0
 528 1004 593 1018 661 1018 c 0
 703 1018 743 1011 779 998 c 0
 815 985 848 964 876 935 c 0
 904 906 924 868 938 824 c 0
 949 787 955 743 955 690 c 0
 955 679 954 668 954 657 c 0
 951 590 938 516 913 434 c 0
 890 355 862 285 831 226 c 0
 800 167 762 116 718 73 c 0
 674 30 621 -3 561 -24 c 0
 501 -45 434 -55 360 -55 c 0
438 109 m 0
 441 109 443 108 446 108 c 0
 477 108 508 116 537 132 c 0
 568 149 597 174 622 207 c 0
 647 240 669 278 688 321 c 0
 707 364 723 411 737 463 c 0
 758 543 768 610 768 665 c 0
 768 704 764 737 753 763 c 0
 728 826 677 858 602 858 c 0
 534 858 474 824 422 755 c 0
 370 686 326 589 291 465 c 0
 280 423 272 384 267 351 c 0
 264 330 263 309 263 289 c 0
 263 278 263 267 264 256 c 0
 267 226 275 200 288 180 c 0
 301 160 320 143 345 131 c 0
 370 119 401 112 438 109 c 0
EndSplineSet
Validated: 1
EndChar

StartChar: p
Encoding: 112 112 91
Width: 1036
GlyphClass: 2
Flags: HMW
HStem: -608 43G<72 83> -63 168 870 172<730 732>
VStem: 845 189
LayerCount: 2
Fore
SplineSet
178 -504 m 0
 171 -538 157 -564 137 -582 c 0
 117 -600 95 -608 72 -608 c 0
 25 -606 1 -582 1 -535 c 0
 1 -525 2 -514 4 -502 c 0
 27 -378 72 -165 139 135 c 0
 206 435 260 673 301 846 c 0
 328 962 351 1034 369 1061 c 0
 384 1083 402 1099 424 1110 c 0
 446 1121 465 1125 483 1122 c 0
 502 1119 517 1110 527 1092 c 0
 537 1074 538 1055 528 1036 c 0
 517 1013 507 982 496 942 c 1
 596 1009 687 1042 772 1042 c 0
 818 1042 858 1037 890 1027 c 0
 922 1017 950 998 975 971 c 0
 1000 944 1016 907 1026 862 c 0
 1033 830 1036 793 1036 750 c 0
 1036 731 1035 712 1034 691 c 0
 1030 622 1017 540 997 446 c 0
 987 401 972 355 952 308 c 0
 932 261 907 216 876 172 c 0
 845 128 811 89 775 54 c 0
 739 19 698 -9 653 -30 c 0
 608 -51 562 -62 516 -63 c 0
 508 -63 500 -64 492 -64 c 0
 391 -64 322 -55 281 -39 c 1
 266 -105 246 -191 223 -299 c 0
 200 -407 185 -475 178 -504 c 0
442 725 m 2
 437 700 427 651 411 577 c 0
 395 503 378 425 361 345 c 0
 344 265 328 191 313 121 c 1
 333 111 364 105 405 104 c 0
 419 104 433 104 447 104 c 0
 475 104 503 104 532 106 c 0
 569 107 604 121 637 146 c 0
 670 171 698 204 723 244 c 0
 748 284 768 326 784 371 c 0
 800 416 814 463 825 512 c 0
 836 569 843 620 845 663 c 0
 846 676 846 688 846 699 c 0
 846 726 844 748 841 766 c 0
 836 792 828 813 816 829 c 0
 804 845 791 857 776 862 c 0
 761 867 743 870 721 870 c 0
 681 870 637 859 586 836 c 0
 535 813 489 784 448 750 c 1
 442 725 l 2
EndSplineSet
Validated: 1
EndChar

StartChar: q
Encoding: 113 113 92
Width: 1036
GlyphClass: 2
Flags: HMW
HStem: -610 43G<426 596 426 426> -63 170 827 184<616 740>
VStem: 52 198
LayerCount: 2
Fore
SplineSet
664 -313 m 2
 596 -610 l 1
 426 -610 l 1
 434 -578 l 1
 429 -568 426 -555 426 -541 c 0
 426 -527 429 -510 434 -492 c 0
 464 -390 506 -235 561 -27 c 1
 505 -52 435 -64 350 -64 c 0
 341 -64 333 -63 324 -63 c 0
 278 -62 236 -52 201 -33 c 0
 166 -14 137 12 116 43 c 0
 95 74 79 111 68 151 c 0
 58 189 52 228 52 268 c 0
 52 302 56 349 68 401 c 0
 90 490 118 570 153 640 c 0
 188 710 225 769 267 815 c 0
 309 861 354 900 404 930 c 0
 454 960 504 981 554 993 c 0
 604 1005 656 1012 709 1012 c 0
 772 1012 826 1001 874 978 c 0
 922 955 955 927 973 893 c 0
 981 878 985 862 986 845 c 0
 987 828 985 813 981 801 c 0
 977 789 971 778 963 770 c 0
 951 758 937 748 922 743 c 1
 919 728 900 650 867 507 c 0
 834 364 810 265 796 208 c 0
 782 151 760 68 733 -42 c 0
 706 -152 683 -242 664 -313 c 2
387 107 m 0
 397 107 407 106 416 106 c 0
 489 106 552 119 608 147 c 1
 628 226 683 443 770 797 c 1
 752 811 734 819 715 822 c 0
 696 825 667 827 627 827 c 0
 607 827 584 824 561 817 c 0
 538 810 512 798 483 780 c 0
 454 762 427 741 401 714 c 0
 375 687 351 652 328 609 c 0
 305 566 285 518 270 465 c 0
 259 423 253 381 250 341 c 0
 249 329 249 318 249 307 c 0
 249 279 251 252 256 227 c 0
 263 192 277 163 300 141 c 0
 323 119 352 108 387 107 c 0
EndSplineSet
Validated: 1
EndChar

StartChar: r
Encoding: 114 114 93
Width: 1036
GlyphClass: 2
Flags: HMW
HStem: 860 176
VStem: 63 174<45 45> 764 168
LayerCount: 2
Fore
SplineSet
238 45 m 0
 225 -17 191 -47 136 -47 c 0
 133 -47 129 -47 125 -47 c 0
 100 -46 83 -39 72 -26 c 0
 65 -17 61 -4 61 14 c 0
 61 23 61 34 63 45 c 0
 63 49 67 83 75 146 c 0
 83 209 90 261 98 301 c 0
 116 388 146 506 190 654 c 0
 234 802 260 896 270 936 c 0
 281 978 299 1009 323 1027 c 0
 347 1045 372 1055 401 1055 c 0
 427 1055 446 1045 456 1027 c 0
 461 1018 463 1006 463 992 c 0
 463 977 461 959 455 938 c 2
 414 813 l 1
 433 839 460 865 494 891 c 0
 528 917 567 942 613 965 c 0
 659 988 711 1006 770 1019 c 0
 823 1031 878 1036 933 1036 c 0
 939 1036 944 1036 950 1036 c 0
 962 1033 971 1019 975 992 c 0
 977 977 978 963 978 946 c 0
 978 932 978 917 976 902 c 0
 973 869 967 835 959 800 c 0
 951 765 943 737 932 717 c 0
 922 692 910 673 894 659 c 0
 878 645 860 636 838 631 c 0
 815 626 795 631 781 647 c 0
 769 661 763 677 763 697 c 0
 763 701 764 705 764 709 c 0
 764 723 767 741 773 764 c 0
 779 787 782 806 782 821 c 0
 782 836 779 849 772 860 c 1
 734 860 694 852 653 835 c 0
 612 818 576 796 543 771 c 0
 510 746 479 718 449 688 c 0
 419 658 394 631 376 607 c 0
 358 583 344 563 334 547 c 0
 315 476 302 421 295 383 c 0
 283 332 270 265 258 182 c 0
 246 99 239 53 238 45 c 0
EndSplineSet
Validated: 1
EndChar

StartChar: s
Encoding: 115 115 94
Width: 1036
GlyphClass: 2
Flags: HMW
HStem: -72 178<301 401> 829 180<760 943>
VStem: 72 195 786 160
LayerCount: 2
Fore
SplineSet
72 129 m 0
 72 203 95 251 143 274 c 0
 161 281 179 285 196 285 c 0
 213 285 228 278 241 266 c 0
 254 254 262 236 266 211 c 0
 269 193 271 180 273 172 c 0
 275 164 280 154 285 144 c 0
 290 134 296 127 304 123 c 0
 312 119 322 115 336 112 c 0
 350 109 366 106 385 106 c 0
 418 106 459 115 508 133 c 0
 557 151 603 176 646 207 c 0
 689 238 716 269 727 299 c 0
 732 317 730 332 718 346 c 0
 706 360 686 372 659 382 c 0
 632 392 603 402 574 410 c 0
 545 418 510 427 469 439 c 0
 428 451 392 462 362 473 c 0
 301 498 262 524 244 553 c 0
 234 569 229 590 229 615 c 0
 229 634 232 656 238 680 c 0
 263 782 334 863 451 922 c 0
 568 981 730 1010 936 1010 c 0
 951 1010 961 991 964 953 c 0
 966 930 967 907 967 885 c 0
 967 872 967 860 966 847 c 0
 964 814 961 788 958 770 c 0
 954 754 950 738 946 723 c 0
 942 708 935 694 924 682 c 0
 913 670 899 660 883 653 c 0
 873 650 863 648 854 648 c 0
 840 648 828 652 817 659 c 0
 799 671 789 687 786 705 c 0
 779 746 776 787 776 829 c 1
 743 829 708 826 668 820 c 0
 628 814 590 805 552 792 c 0
 514 779 483 761 456 740 c 0
 449 734 412 704 412 668 c 0
 412 639 467 611 578 584 c 0
 623 574 663 564 698 552 c 0
 733 540 768 526 800 509 c 0
 832 492 858 474 876 454 c 0
 894 434 906 410 911 381 c 0
 913 372 914 363 914 354 c 0
 914 333 910 312 901 289 c 0
 875 215 832 150 773 94 c 0
 714 38 645 -4 567 -31 c 0
 489 -58 409 -72 324 -72 c 0
 279 -72 238 -65 200 -51 c 0
 162 -37 132 -16 108 15 c 0
 84 46 72 84 72 129 c 0
EndSplineSet
Validated: 1
EndChar

StartChar: t
Encoding: 116 116 95
Width: 1036
GlyphClass: 2
Flags: HMW
HStem: -57 176 821 168 827 178<173 261 216 261 216 285>
LayerCount: 2
Fore
SplineSet
637 -18 m 0xc0
 571 -44 497 -58 415 -58 c 0
 407 -58 399 -57 391 -57 c 0
 346 -56 306 -47 272 -30 c 0
 238 -13 209 11 186 40 c 0
 163 69 148 108 141 154 c 0
 138 172 137 190 137 210 c 0
 137 241 140 275 147 311 c 0
 150 333 157 367 169 413 c 0
 181 459 189 489 193 505 c 0
 197 521 204 549 216 591 c 0
 228 633 236 660 239 673 c 0
 242 686 250 712 262 752 c 0
 274 792 282 816 285 827 c 1
 199 827 l 2
 160 827 140 844 140 879 c 0
 140 890 141 904 145 918 c 0
 159 977 191 1006 242 1006 c 0xa0
 280 1006 311 1005 334 1004 c 1
 361 1101 382 1204 397 1313 c 0
 400 1335 410 1355 426 1375 c 0
 442 1395 461 1405 481 1405 c 0
 503 1405 525 1396 547 1378 c 0
 568 1361 578 1344 578 1326 c 0
 578 1316 520 1074 502 999 c 1
 539 998 584 996 639 994 c 0
 694 992 738 990 771 989 c 0
 804 988 828 987 842 987 c 0
 882 987 901 968 901 931 c 0
 901 921 900 910 897 897 c 0
 890 874 880 856 866 842 c 0
 852 828 832 821 805 821 c 0
 778 821 662 822 457 825 c 1
 452 800 440 759 424 701 c 0
 408 643 396 604 391 584 c 0
 386 564 377 528 364 478 c 0
 351 428 343 399 342 390 c 0
 341 381 336 360 328 326 c 0
 324 306 322 287 322 270 c 0
 322 234 330 204 345 179 c 0
 368 141 406 122 461 119 c 0
 467 119 472 118 478 118 c 0
 545 118 612 134 680 164 c 0
 700 172 716 171 728 160 c 0
 740 149 744 129 743 102 c 0
 742 76 731 53 710 31 c 0
 689 9 664 -7 637 -18 c 0xc0
EndSplineSet
Validated: 1
EndChar

StartChar: u
Encoding: 117 117 96
Width: 1036
GlyphClass: 2
Flags: HMW
HStem: -33 188 991 41G<306 330 909 922>
LayerCount: 2
Fore
SplineSet
686 -47 m 0
 682 -47 679 -48 675 -48 c 0
 652 -48 634 -41 620 -26 c 0
 610 -15 605 1 605 21 c 0
 605 33 606 47 610 63 c 2
 625 121 l 1
 588 92 549 66 508 43 c 0
 467 20 421 0 368 -16 c 0
 329 -28 291 -35 256 -35 c 0
 244 -35 232 -34 221 -33 c 0
 181 -29 148 -11 119 20 c 0
 90 51 70 89 60 133 c 0
 54 157 52 181 52 205 c 0
 52 224 53 243 57 262 c 0
 72 356 95 466 125 592 c 0
 135 636 150 696 171 774 c 0
 192 852 206 905 211 934 c 0
 219 967 233 992 253 1008 c 0
 273 1024 294 1032 317 1032 c 0
 343 1032 364 1024 379 1007 c 0
 389 996 393 981 393 964 c 0
 393 955 392 945 389 934 c 0
 386 922 374 877 354 799 c 0
 334 721 317 655 305 602 c 0
 274 461 254 355 246 281 c 0
 244 265 243 251 243 239 c 0
 243 230 244 221 245 214 c 0
 247 197 252 184 261 176 c 0
 270 168 280 163 291 160 c 0
 302 157 317 156 336 156 c 0
 387 156 441 170 500 197 c 0
 559 224 615 257 668 297 c 1
 688 386 711 487 737 600 c 0
 771 752 795 864 807 936 c 0
 814 965 827 988 846 1005 c 0
 865 1022 886 1031 909 1032 c 0
 934 1032 954 1024 970 1007 c 0
 980 996 985 982 985 965 c 0
 985 956 984 946 981 936 c 0
 980 916 971 871 957 803 c 0
 943 735 935 694 934 682 c 0
 909 562 864 357 797 66 c 0
 787 26 773 -2 753 -19 c 0
 733 -36 711 -46 686 -47 c 0
EndSplineSet
Validated: 1
EndChar

StartChar: v
Encoding: 118 118 97
Width: 1036
GlyphClass: 2
Flags: HMW
VStem: 86 190
LayerCount: 2
Fore
SplineSet
379 -14 m 0
 368 -32 352 -44 329 -50 c 0
 306 -56 285 -56 266 -49 c 0
 247 -42 234 -30 229 -12 c 0
 157 297 109 582 86 846 c 0
 85 869 86 890 89 909 c 0
 92 928 99 944 108 958 c 0
 117 972 125 983 135 991 c 0
 145 999 156 1007 168 1012 c 0
 180 1019 192 1022 203 1023 c 0
 214 1024 225 1021 237 1014 c 0
 249 1007 257 995 265 979 c 0
 273 963 276 941 276 915 c 0
 277 882 280 849 282 815 c 0
 284 781 286 750 288 723 c 0
 290 696 293 664 297 628 c 0
 301 592 304 563 306 543 c 0
 308 523 312 493 317 455 c 0
 322 417 327 391 329 377 c 0
 331 363 335 336 341 296 c 0
 347 256 350 231 350 223 c 1
 534 493 678 730 780 932 c 0
 803 977 828 1007 855 1021 c 0
 869 1029 882 1033 895 1033 c 0
 906 1033 917 1030 926 1024 c 0
 937 1017 944 1007 949 994 c 0
 954 981 954 963 951 939 c 0
 948 915 938 887 922 856 c 0
 895 801 861 743 822 680 c 0
 783 617 718 515 627 373 c 0
 536 231 453 102 379 -14 c 0
EndSplineSet
Validated: 1
EndChar

StartChar: w
Encoding: 119 119 98
Width: 1036
GlyphClass: 2
Flags: HMW
HStem: -74 43G<83 100>
VStem: 20 166 446 217<18 18> 473 178
LayerCount: 2
Fore
SplineSet
186 -6 m 0xe0
 175 -28 160 -44 142 -56 c 0
 124 -68 107 -74 92 -74 c 0
 73 -74 57 -67 43 -55 c 0
 29 -43 21 -23 20 6 c 0
 17 85 16 162 16 237 c 0
 16 486 31 709 63 905 c 0
 67 939 78 965 95 983 c 0
 112 1001 133 1011 158 1014 c 0
 164 1015 170 1015 175 1015 c 0
 193 1015 207 1010 219 999 c 0
 231 988 237 971 237 947 c 0
 237 940 237 934 236 926 c 0
 211 754 186 500 160 164 c 1
 178 210 210 295 258 418 c 0
 306 541 348 648 386 739 c 0
 424 830 453 898 473 942 c 0
 498 995 532 1022 577 1022 c 0
 579 1022 582 1022 584 1022 c 0
 603 1021 618 1015 630 1003 c 0
 642 991 648 970 651 940 c 0xd0
 651 935 647 885 638 791 c 0
 629 697 620 587 611 462 c 0
 602 337 597 236 596 160 c 1
 651 291 740 546 866 926 c 0
 878 963 895 987 916 1000 c 0
 931 1009 946 1014 961 1014 c 0
 967 1014 973 1014 979 1012 c 0
 1008 1005 1022 984 1022 951 c 0
 1022 933 1018 912 1010 887 c 0
 964 749 906 592 837 416 c 0
 768 240 710 107 664 20 c 0
 638 -31 597 -55 541 -55 c 0
 538 -55 535 -55 532 -55 c 0
 507 -55 488 -50 474 -40 c 0
 460 -30 450 -11 446 18 c 0
 443 47 442 78 442 113 c 0
 442 148 443 185 446 226 c 0
 451 307 462 404 476 517 c 0
 490 630 499 698 502 723 c 1
 479 672 449 602 414 513 c 0
 379 424 341 334 303 245 c 0
 265 156 226 72 186 -6 c 0xe0
EndSplineSet
Validated: 1
EndChar

StartChar: x
Encoding: 120 120 99
Width: 1036
GlyphClass: 2
Flags: HW
LayerCount: 2
Fore
SplineSet
143 0 m 0
 124 -22 106 -36 89 -43 c 0
 72 -50 58 -51 47 -46 c 0
 36 -41 26 -32 16 -20 c 0
 7 -7 2 7 2 24 c 0
 2 54 17 89 47 129 c 0
 67 155 100 189 145 232 c 0
 190 275 241 324 297 377 c 0
 353 430 400 479 438 524 c 1
 415 577 382 640 338 710 c 0
 294 780 268 827 258 852 c 0
 249 874 245 894 245 913 c 0
 245 927 247 948 258 968 c 0
 266 982 277 995 291 1006 c 0
 305 1017 319 1024 334 1027 c 0
 349 1030 365 1029 382 1021 c 0
 399 1013 413 999 424 977 c 0
 443 946 469 896 501 830 c 0
 533 764 561 702 584 645 c 1
 604 668 633 701 671 745 c 0
 709 789 737 823 757 846 c 0
 777 869 798 894 823 921 c 0
 848 948 869 968 887 983 c 0
 917 1012 943 1029 966 1034 c 0
 989 1039 1005 1035 1016 1020 c 0
 1024 1010 1030 998 1033 984 c 0
 1036 970 1035 953 1029 934 c 0
 1023 915 1011 897 995 881 c 2
 649 506 l 1
 641 500 l 1
 660 452 683 405 710 359 c 0
 737 313 760 271 783 233 c 0
 806 195 824 162 836 133 c 0
 846 108 850 88 851 70 c 0
 852 52 850 37 846 25 c 0
 842 13 834 1 823 -10 c 0
 809 -24 795 -34 780 -40 c 0
 765 -46 749 -46 731 -38 c 0
 713 -30 697 -15 682 10 c 0
 608 141 548 263 500 375 c 1
 454 324 386 254 299 164 c 0
 212 74 159 19 143 0 c 0
EndSplineSet
Validated: 1
EndChar

StartChar: y
Encoding: 121 121 100
Width: 1036
GlyphClass: 2
Flags: HMW
HStem: 1006 41G<1021 1032>
VStem: 184 190
LayerCount: 2
Fore
SplineSet
98 -594 m 0
 82 -620 61 -637 36 -646 c 0
 28 -649 20 -650 13 -650 c 0
 -3 -650 -18 -644 -31 -631 c 0
 -41 -621 -46 -610 -49 -596 c 0
 -52 -582 -52 -567 -49 -549 c 0
 -46 -531 -39 -513 -25 -494 c 2
 330 27 l 1
 256 342 207 619 184 858 c 0
 183 866 183 874 183 881 c 0
 183 903 187 923 193 940 c 0
 201 963 210 981 221 995 c 0
 232 1009 245 1019 260 1024 c 0
 272 1031 285 1035 297 1036 c 0
 309 1037 321 1035 333 1030 c 0
 345 1025 354 1014 362 998 c 0
 370 982 375 962 375 936 c 0
 378 862 384 779 396 686 c 0
 408 593 418 519 428 463 c 0
 438 407 451 333 469 240 c 1
 657 528 804 764 909 948 c 0
 921 971 935 991 949 1007 c 0
 963 1023 977 1033 990 1038 c 0
 1003 1043 1015 1047 1026 1047 c 0
 1037 1047 1047 1043 1057 1038 c 0
 1065 1033 1072 1026 1077 1017 c 0
 1082 1008 1087 997 1089 983 c 0
 1091 969 1089 953 1084 933 c 0
 1079 913 1071 892 1057 870 c 0
 1011 792 944 686 857 552 c 0
 770 418 687 291 608 172 c 0
 529 53 402 -137 229 -399 c 0
 172 -484 128 -549 98 -594 c 0
EndSplineSet
Validated: 1
EndChar

StartChar: z
Encoding: 122 122 101
Width: 1036
GlyphClass: 2
Flags: HMW
HStem: -18 178<700 722> 836 174 844 182
LayerCount: 2
Fore
SplineSet
819 78 m 0xc0
 814 51 802 27 784 9 c 0
 766 -9 740 -18 705 -18 c 0
 695 -18 649 -16 566 -13 c 0
 483 -10 407 -8 336 -7 c 0
 322 -7 307 -7 292 -7 c 0
 232 -7 164 -8 90 -10 c 0
 68 -10 53 3 45 30 c 0
 40 46 38 62 38 77 c 0
 38 87 39 97 41 107 c 0
 42 117 46 126 52 136 c 0
 58 146 71 162 91 185 c 0
 111 208 139 235 174 268 c 0
 197 290 254 341 344 422 c 0
 434 503 521 581 606 658 c 0
 691 735 753 795 791 836 c 1xc0
 696 832 613 829 543 829 c 0
 438 829 360 834 311 844 c 0
 272 852 253 872 253 906 c 0
 253 914 254 923 256 932 c 0
 261 961 273 985 290 1004 c 0
 304 1020 321 1027 342 1027 c 0
 346 1027 351 1027 356 1026 c 0xa0
 484 1010 611 1002 737 1002 c 0
 807 1002 877 1005 946 1010 c 0
 966 1011 981 1001 991 979 c 0
 997 965 1000 950 1000 934 c 0
 1000 925 999 915 997 905 c 0
 993 880 962 832 905 760 c 0
 857 701 805 644 748 587 c 0
 691 530 639 482 593 444 c 0
 547 406 492 360 427 305 c 0
 362 250 307 202 262 160 c 1
 750 160 l 2
 781 153 801 143 811 130 c 0
 821 117 823 100 819 78 c 0xc0
EndSplineSet
Validated: 1
EndChar

StartChar: braceleft
Encoding: 123 123 102
Width: 1036
GlyphClass: 2
Flags: HMW
HStem: -205 174<490 566> 655 205<53 115> 1569 174<898 932>
VStem: 392 191
LayerCount: 2
Fore
SplineSet
631 -113 m 0
 626 -136 613 -157 595 -176 c 0
 577 -195 551 -205 520 -205 c 0
 460 -205 404 -198 351 -185 c 0
 298 -172 254 -154 216 -130 c 0
 178 -106 151 -75 134 -36 c 0
 124 -12 119 13 119 41 c 0
 119 59 121 77 125 96 c 0
 133 134 146 172 162 207 c 0
 178 242 195 274 213 302 c 0
 231 330 248 358 265 385 c 0
 282 412 298 441 312 471 c 0
 326 501 338 531 346 561 c 0
 347 565 345 572 337 580 c 0
 329 588 318 596 303 605 c 0
 288 614 270 622 248 629 c 0
 226 636 199 642 167 647 c 0
 135 652 101 655 66 655 c 0
 40 655 20 666 6 689 c 0
 -3 704 -8 720 -8 738 c 0
 -8 747 -6 756 -4 766 c 0
 3 795 15 818 32 835 c 0
 49 852 71 860 98 860 c 0
 132 860 162 861 189 863 c 0
 216 865 243 868 272 873 c 0
 301 878 326 884 346 892 c 0
 366 900 384 910 399 924 c 0
 414 938 424 954 428 973 c 0
 431 984 429 1000 423 1020 c 0
 417 1040 410 1062 403 1085 c 0
 400 1096 392 1130 392 1191 c 0
 392 1231 398 1275 408 1321 c 0
 438 1449 502 1552 602 1628 c 0
 702 1704 825 1743 971 1743 c 0
 997 1743 1016 1735 1030 1720 c 0
 1044 1705 1048 1687 1044 1667 c 0
 1039 1644 1022 1622 994 1601 c 0
 966 1580 942 1569 922 1569 c 0
 836 1569 764 1548 705 1507 c 0
 646 1466 608 1411 592 1343 c 0
 586 1318 583 1292 583 1263 c 0
 583 1253 583 1243 584 1233 c 0
 587 1192 591 1156 598 1126 c 0
 605 1096 610 1067 615 1039 c 0
 620 1011 621 991 618 979 c 0
 613 952 600 926 579 902 c 0
 558 878 532 858 503 841 c 0
 474 824 444 809 413 797 c 0
 382 785 350 775 317 768 c 1
 384 745 437 715 477 678 c 0
 511 647 528 617 528 590 c 0
 528 585 527 582 526 577 c 0
 519 546 509 514 494 483 c 0
 479 452 462 423 445 396 c 0
 428 369 411 342 394 314 c 0
 377 286 361 255 345 220 c 0
 329 185 318 150 311 113 c 0
 309 106 309 100 309 93 c 0
 309 78 314 62 323 49 c 0
 336 30 354 15 379 4 c 0
 404 -7 431 -16 461 -22 c 0
 491 -28 522 -31 553 -31 c 0
 579 -31 599 -38 615 -53 c 0
 627 -64 633 -79 633 -95 c 0
 633 -101 632 -107 631 -113 c 0
EndSplineSet
Validated: 1
EndChar

StartChar: bar
Encoding: 124 124 103
Width: 1036
GlyphClass: 2
Flags: HMW
VStem: 209 621
LayerCount: 2
Fore
SplineSet
829 1610 m 0
 826 1599 758 1310 621 745 c 0
 484 180 403 -165 377 -289 c 0
 367 -319 352 -342 329 -359 c 0
 308 -375 286 -383 262 -383 c 0
 260 -383 258 -383 256 -383 c 0
 233 -383 217 -374 209 -356 c 0
 205 -348 204 -340 204 -329 c 0
 204 -315 207 -299 213 -279 c 0
 229 -224 270 -63 333 203 c 0
 396 469 464 754 535 1057 c 0
 606 1360 650 1543 666 1604 c 0
 685 1678 719 1714 768 1714 c 0
 770 1714 772 1714 774 1714 c 0
 815 1714 835 1693 835 1652 c 0
 835 1640 833 1626 829 1610 c 0
EndSplineSet
Validated: 1
EndChar

StartChar: braceright
Encoding: 125 125 104
Width: 1036
GlyphClass: 2
Flags: HMW
HStem: -205 174<102 138> 696 209 1569 174<470 545>
VStem: 452 191
LayerCount: 2
Fore
SplineSet
627 217 m 0
 597 89 532 -14 432 -90 c 0
 332 -166 211 -205 66 -205 c 0
 41 -205 21 -197 6 -182 c 0
 -9 -167 -14 -149 -10 -129 c 0
 -5 -106 12 -83 40 -62 c 0
 68 -41 93 -31 113 -31 c 0
 200 -31 273 -10 331 31 c 0
 389 72 426 127 442 195 c 0
 449 221 452 250 452 283 c 0
 452 291 452 299 452 308 c 0
 450 351 445 389 439 422 c 0
 433 455 428 486 424 517 c 0
 422 535 420 550 420 562 c 0
 420 570 421 577 422 582 c 0
 427 609 441 634 462 657 c 0
 483 680 509 701 538 719 c 0
 567 737 597 752 628 764 c 0
 659 776 690 786 723 793 c 1
 656 816 603 846 563 883 c 0
 530 914 513 942 513 969 c 0
 513 974 514 979 515 984 c 0
 523 1015 533 1045 547 1074 c 0
 561 1103 576 1131 592 1156 c 0
 608 1181 625 1207 642 1233 c 0
 659 1259 675 1288 690 1321 c 0
 705 1354 717 1388 725 1425 c 0
 727 1432 727 1439 727 1446 c 0
 727 1461 723 1476 714 1489 c 0
 701 1508 681 1523 656 1534 c 0
 631 1545 603 1554 573 1560 c 0
 543 1566 513 1569 483 1569 c 0
 457 1569 436 1576 420 1591 c 0
 408 1602 401 1616 401 1633 c 0
 401 1639 402 1645 403 1651 c 0
 408 1674 421 1695 439 1714 c 0
 457 1733 483 1743 514 1743 c 0
 575 1743 632 1736 683 1723 c 0
 734 1710 779 1692 818 1668 c 0
 857 1644 885 1613 902 1574 c 0
 912 1551 917 1527 917 1501 c 0
 917 1482 914 1463 909 1442 c 0
 901 1404 889 1367 873 1333 c 0
 857 1299 841 1269 824 1243 c 0
 807 1217 790 1191 773 1166 c 0
 756 1141 740 1114 726 1085 c 0
 712 1056 701 1028 694 999 c 0
 693 994 695 988 703 980 c 0
 711 972 722 964 737 955 c 0
 752 946 771 939 793 931 c 0
 815 923 841 917 873 912 c 0
 905 907 940 905 975 905 c 0
 1001 905 1020 894 1034 871 c 0
 1044 855 1049 837 1049 818 c 0
 1049 810 1049 803 1047 795 c 0
 1040 766 1028 743 1010 725 c 0
 992 707 969 698 942 698 c 0
 908 698 877 697 850 696 c 0
 823 695 795 692 766 687 c 0
 737 682 713 676 693 668 c 0
 673 660 656 649 641 635 c 0
 626 621 616 606 612 588 c 0
 609 577 611 560 616 537 c 0
 621 514 628 489 634 464 c 0
 640 439 643 403 643 358 c 0
 643 313 638 266 627 217 c 0
EndSplineSet
Validated: 1
EndChar

StartChar: asciitilde
Encoding: 126 126 105
Width: 1036
GlyphClass: 2
Flags: HMW
HStem: 541 215<670 678 678 681> 870 217<345 406>
LayerCount: 2
Fore
SplineSet
1026 1047 m 0
 1037 1042 1044 1032 1046 1019 c 0
 1048 1006 1045 990 1038 971 c 0
 1031 952 1024 933 1016 915 c 0
 1008 897 996 877 981 854 c 0
 854 645 736 541 627 541 c 0
 600 541 576 545 556 554 c 0
 536 563 519 577 505 597 c 0
 491 617 479 637 469 658 c 0
 459 679 450 706 442 737 c 0
 441 744 437 755 432 771 c 0
 427 787 423 797 422 802 c 0
 421 807 418 814 414 825 c 0
 410 836 405 843 402 846 c 0
 399 849 394 853 389 858 c 0
 384 863 378 867 372 868 c 0
 366 869 358 870 350 870 c 0
 340 870 332 868 323 865 c 0
 314 862 304 856 294 846 c 0
 284 836 275 827 267 818 c 0
 259 809 250 794 238 774 c 0
 226 754 215 736 206 721 c 0
 197 706 184 682 166 651 c 0
 151 624 127 600 95 579 c 0
 69 562 48 553 32 553 c 0
 28 553 24 554 20 555 c 0
 8 559 -1 572 -6 594 c 0
 -8 601 -9 608 -9 615 c 0
 -9 631 -5 648 4 666 c 0
 67 797 135 900 207 975 c 0
 279 1050 342 1087 395 1087 c 0
 417 1087 434 1086 447 1084 c 0
 460 1082 474 1078 489 1072 c 0
 504 1066 516 1056 526 1043 c 0
 536 1030 546 1013 556 993 c 0
 566 973 575 946 582 915 c 0
 585 907 588 896 591 880 c 0
 594 864 597 853 599 845 c 0
 601 837 604 828 608 816 c 0
 612 804 617 796 620 791 c 0
 623 786 627 779 632 773 c 0
 637 767 642 763 649 760 c 0
 656 757 663 756 670 756 c 2
 678 756 l 2
 689 756 697 756 702 757 c 0
 707 758 715 759 725 762 c 0
 735 765 743 769 750 775 c 0
 757 781 765 790 776 802 c 0
 787 814 799 829 812 847 c 0
 825 865 840 887 856 913 c 0
 866 929 877 947 890 964 c 0
 903 981 918 997 934 1013 c 0
 950 1029 967 1040 983 1047 c 0
 999 1054 1014 1054 1026 1047 c 0
EndSplineSet
Validated: 1
EndChar

StartChar: endash
Encoding: 8211 8211 114
Width: 1036
GlyphClass: 2
Flags: HW
HStem: 510 178<169 867>
LayerCount: 2
Fore
SplineSet
254 688 m 0
 350 688 464 687 597 685 c 0
 730 683 805 682 823 682 c 0
 853 682 873 674 881 660 c 0
 889 646 891 627 887 604 c 0
 873 544 839 514 784 514 c 0
 762 514 677 513 528 512 c 0
 379 511 275 510 215 510 c 0
 171 510 150 528 150 566 c 0
 150 575 151 586 154 598 c 0
 165 658 198 688 254 688 c 0
EndSplineSet
Validated: 1
EndChar

StartChar: emdash
Encoding: 8212 8212 115
Width: 1036
GlyphClass: 2
Flags: HW
HStem: 510 174<55 977>
LayerCount: 2
Fore
SplineSet
141 684 m 0
 278 683 388 682 471 682 c 0
 554 682 648 683 750 684 c 0
 852 685 914 686 936 686 c 0
 966 686 985 679 993 664 c 0
 1001 649 1002 629 997 604 c 0
 983 544 950 514 897 514 c 0
 867 514 749 513 541 512 c 0
 333 511 187 510 102 510 c 0
 58 510 37 528 37 566 c 0
 37 575 38 586 41 598 c 0
 52 655 84 684 138 684 c 0
 139 684 140 684 141 684 c 0
EndSplineSet
Validated: 1
EndChar

StartChar: quoteleft
Encoding: 8216 8216 116
Width: 1036
GlyphClass: 2
Flags: HW
HStem: 991 528
VStem: 380 277
LayerCount: 2
Fore
SplineSet
449 1040 m 0
 437 1082 424 1139 410 1211 c 0
 396 1283 386 1343 381 1391 c 0
 381 1395 380 1398 380 1402 c 0
 380 1424 387 1445 400 1462 c 0
 416 1482 435 1497 455 1507 c 0
 471 1514 487 1519 503 1520 c 0
 519 1521 533 1517 547 1509 c 0
 561 1501 568 1488 571 1470 c 0
 579 1399 607 1285 653 1128 c 0
 656 1120 657 1113 657 1105 c 0
 657 1067 626 1034 563 1004 c 0
 552 999 541 994 531 991 c 0
 521 988 511 988 500 989 c 0
 489 990 479 996 469 1004 c 0
 459 1012 453 1024 449 1040 c 0
EndSplineSet
Validated: 1
EndChar

StartChar: quoteright
Encoding: 8217 8217 117
Width: 1036
GlyphClass: 2
Flags: HW
HStem: 932 565
VStem: 305 427
LayerCount: 2
Fore
SplineSet
717 1368 m 0
 616 1191 542 1070 494 1006 c 0
 471 975 445 953 418 941 c 0
 404 935 391 932 379 932 c 0
 368 932 359 935 350 940 c 0
 330 952 316 974 308 1005 c 0
 306 1013 305 1020 305 1028 c 0
 305 1050 314 1073 330 1094 c 0
 361 1135 402 1193 451 1267 c 0
 500 1341 537 1402 563 1448 c 0
 575 1467 590 1480 607 1488 c 0
 624 1496 640 1498 655 1497 c 0
 670 1496 684 1492 696 1485 c 0
 712 1477 724 1462 730 1441 c 0
 732 1435 733 1429 733 1422 c 0
 733 1406 728 1387 717 1368 c 0
EndSplineSet
Validated: 1
EndChar

StartChar: quotesinglbase
Encoding: 8218 8218 118
Width: 1036
GlyphClass: 2
Flags: HW
HStem: 975 541
VStem: 440 191<997 1499>
LayerCount: 2
Fore
SplineSet
616 1452 m 0
 620 1401 625 1340 628 1266 c 0
 630 1213 631 1166 631 1126 c 0
 631 1110 631 1095 631 1081 c 0
 630 1054 620 1031 602 1012 c 0
 584 993 565 980 543 975 c 0
 528 972 513 971 497 971 c 0
 481 971 468 976 456 987 c 0
 444 998 439 1013 440 1032 c 0
 440 1035 440 1039 440 1043 c 0
 440 1108 430 1227 408 1397 c 0
 405 1409 406 1421 411 1433 c 0
 416 1445 421 1453 428 1461 c 0
 435 1469 444 1476 454 1483 c 0
 464 1490 473 1495 483 1498 c 0
 493 1501 502 1504 512 1507 c 0
 527 1511 542 1515 556 1516 c 0
 570 1517 583 1512 595 1501 c 0
 607 1490 613 1474 616 1452 c 0
EndSplineSet
Validated: 1
EndChar

StartChar: quotedblleft
Encoding: 8220 8220 119
Width: 1036
GlyphClass: 2
Flags: HW
HStem: 970 638
VStem: 225 584
LayerCount: 2
Fore
SplineSet
604 1128 m 0
 592 1170 579 1227 565 1299 c 0
 551 1371 542 1431 537 1479 c 0
 537 1483 536 1486 536 1490 c 0
 536 1511 543 1531 556 1549 c 0
 572 1570 590 1585 610 1595 c 0
 626 1602 642 1607 658 1608 c 0
 674 1609 688 1605 701 1597 c 0
 714 1589 722 1577 725 1559 c 0
 733 1488 761 1374 809 1217 c 0
 812 1209 813 1201 813 1193 c 0
 813 1155 782 1122 719 1092 c 0
 708 1087 697 1082 686 1079 c 0
 675 1076 664 1076 653 1077 c 0
 642 1078 633 1084 624 1093 c 0
 615 1102 608 1113 604 1128 c 0
293 1020 m 0
 281 1062 268 1119 254 1190 c 0
 240 1261 230 1320 225 1368 c 0
 225 1372 225 1376 225 1380 c 0
 225 1402 232 1423 245 1441 c 0
 261 1462 279 1477 299 1485 c 0
 315 1492 331 1496 347 1497 c 0
 363 1498 377 1496 391 1488 c 0
 405 1480 413 1467 416 1448 c 0
 424 1377 452 1263 500 1106 c 0
 503 1098 503 1091 503 1083 c 0
 503 1045 473 1011 410 981 c 0
 398 976 386 972 376 970 c 0
 366 968 355 968 344 969 c 0
 333 970 323 975 313 983 c 0
 303 991 297 1004 293 1020 c 0
EndSplineSet
Validated: 1
EndChar

StartChar: quotedblright
Encoding: 8221 8221 120
Width: 1036
GlyphClass: 2
Flags: HW
HStem: 932 676
LayerCount: 2
Fore
SplineSet
592 1479 m 0
 491 1300 417 1178 371 1114 c 0
 355 1094 336 1078 317 1067 c 0
 298 1056 281 1051 265 1051 c 0
 249 1051 236 1054 225 1059 c 0
 189 1081 171 1105 171 1131 c 0
 171 1148 179 1166 193 1184 c 0
 224 1225 266 1286 319 1367 c 0
 372 1448 412 1513 438 1559 c 0
 449 1577 463 1589 481 1597 c 0
 499 1605 515 1609 530 1608 c 0
 545 1607 559 1602 571 1595 c 0
 587 1587 599 1572 605 1550 c 0
 607 1544 608 1538 608 1531 c 0
 608 1515 603 1497 592 1479 c 0
852 1368 m 0
 751 1191 677 1070 631 1006 c 0
 606 975 580 953 553 941 c 0
 539 935 527 932 515 932 c 0
 504 932 494 935 485 940 c 0
 465 952 451 974 443 1005 c 0
 441 1013 441 1020 441 1028 c 0
 441 1050 449 1073 465 1094 c 0
 496 1135 537 1193 586 1267 c 0
 635 1341 672 1402 698 1448 c 0
 709 1467 723 1480 741 1488 c 0
 759 1496 776 1498 791 1497 c 0
 806 1496 819 1492 831 1485 c 0
 847 1477 859 1462 864 1441 c 0
 866 1435 867 1429 867 1422 c 0
 867 1406 862 1388 852 1368 c 0
EndSplineSet
Validated: 1
EndChar

StartChar: bullet
Encoding: 8226 8226 121
Width: 1036
GlyphClass: 2
Flags: HW
HStem: 687 376<440 600>
VStem: 327 384<795 957>
LayerCount: 2
Fore
SplineSet
479 688 m 0
 472 687 466 687 459 687 c 0
 412 687 376 704 353 738 c 0
 335 764 327 793 327 826 c 0
 327 843 329 860 334 879 c 0
 345 928 374 971 421 1006 c 0
 468 1041 516 1060 565 1063 c 0
 567 1063 569 1063 571 1063 c 0
 623 1063 661 1046 685 1012 c 0
 702 988 711 960 711 929 c 0
 711 914 709 898 705 881 c 0
 693 829 666 786 626 751 c 0
 586 716 536 695 479 688 c 0
EndSplineSet
Validated: 1
EndChar

StartChar: lambda
Encoding: 955 955 122
Width: 1036
Flags: HW
HStem: -67 43G<780 793>
LayerCount: 2
Fore
SplineSet
521 1574 m 0
 534 1529 552 1464 577 1379 c 0
 649 1117 702 927 735 808 c 0
 768 689 802 562 836 428 c 0
 870 294 894 187 909 109 c 0
 914 87 915 67 911 47 c 0
 907 27 900 11 891 -3 c 0
 882 -17 872 -28 861 -37 c 0
 850 -46 838 -53 826 -58 c 0
 812 -63 800 -67 787 -67 c 0
 774 -67 761 -63 749 -58 c 0
 737 -53 725 -43 716 -27 c 0
 707 -11 700 9 697 32 c 0
 666 216 612 452 535 740 c 1
 469 647 418 573 379 517 c 0
 340 461 291 387 232 294 c 0
 173 201 124 118 84 44 c 0
 71 18 56 -3 39 -19 c 0
 22 -35 6 -45 -10 -50 c 0
 -26 -55 -41 -57 -54 -56 c 0
 -67 -55 -79 -51 -90 -44 c 0
 -105 -39 -116 -29 -122 -15 c 0
 -128 -1 -131 17 -129 40 c 0
 -127 63 -117 91 -98 122 c 0
 46 361 238 638 477 953 c 1
 328 1473 l 2
 321 1492 321 1511 326 1529 c 0
 331 1547 339 1562 350 1576 c 0
 361 1590 374 1601 390 1611 c 0
 412 1624 431 1630 449 1630 c 0
 458 1630 466 1629 474 1626 c 0
 499 1617 515 1600 521 1574 c 0
EndSplineSet
Validated: 1
EndChar
